<svg xmlns="http://www.w3.org/2000/svg" viewBox="0 0 1200 800" width="1200" height="800" role="img" aria-labelledby="t d" preserveAspectRatio="xMidYMid slice"><title id="t">Placeholder image for article: The numbers that actually move a hold</title><desc id="d">Generated placeholder graphic. Not a photograph. Replace with real photography before launch.</desc><rect width="1200" height="800" fill="#07182D"/><rect x="0" width="300" height="800" fill="#12294a" opacity="0.77"/><rect x="300" width="300" height="800" fill="#12294a" opacity="0.67"/><rect x="600" width="300" height="800" fill="#12294a" opacity="0.78"/><line x1="0" y1="0" x2="1200" y2="0" stroke="#22456f" stroke-width="1" opacity=".5"/><rect x="363" y="71" width="174" height="58" fill="#F7F7F4" opacity="0.38"/><rect x="663" y="71" width="174" height="58" fill="#F7F7F4" opacity="0.21"/><line x1="0" y1="200" x2="1200" y2="200" stroke="#22456f" stroke-width="1" opacity=".5"/><rect x="363" y="271" width="174" height="58" fill="#F7F7F4" opacity="0.22"/><rect x="663" y="271" width="174" height="58" fill="#F7F7F4" opacity="0.17"/><line x1="0" y1="400" x2="1200" y2="400" stroke="#22456f" stroke-width="1" opacity=".5"/><rect x="63" y="471" width="174" height="58" fill="#F7F7F4" opacity="0.14"/><rect x="663" y="471" width="174" height="58" fill="#F7F7F4" opacity="0.22"/><line x1="0" y1="600" x2="1200" y2="600" stroke="#22456f" stroke-width="1" opacity=".5"/><rect x="663" y="671" width="174" height="58" fill="#F7F7F4" opacity="0.26"/><filter id="g"><feTurbulence type="fractalNoise" baseFrequency="0.9" numOctaves="2"/><feColorMatrix type="saturate" values="0"/></filter><rect width="1200" height="800" filter="url(#g)" opacity=".045"/><radialGradient id="v" cx="50%" cy="45%" r="78%"><stop offset="55%" stop-color="#000" stop-opacity="0"/><stop offset="100%" stop-color="#000" stop-opacity=".42"/></radialGradient><rect width="1200" height="800" fill="url(#v)"/></svg>