<svg xmlns="http://www.w3.org/2000/svg" viewBox="0 0 1200 800" width="1200" height="800" role="img" aria-labelledby="t d" preserveAspectRatio="xMidYMid slice"><title id="t">Placeholder image for article: The conversation before the decision</title><desc id="d">Generated placeholder graphic. Not a photograph. Replace with real photography before launch.</desc><rect width="1200" height="800" fill="#07182D"/><rect x="171" width="171" height="800" fill="#12294a" opacity="0.70"/><rect x="1029" width="171" height="800" fill="#12294a" opacity="0.73"/><line x1="0" y1="0" x2="1200" y2="0" stroke="#22456f" stroke-width="1" opacity=".5"/><rect x="36" y="47" width="99" height="38" fill="#F7F7F4" opacity="0.32"/><rect x="550" y="47" width="99" height="38" fill="#F7F7F4" opacity="0.26"/><line x1="0" y1="133" x2="1200" y2="133" stroke="#22456f" stroke-width="1" opacity=".5"/><rect x="36" y="181" width="99" height="38" fill="#F7F7F4" opacity="0.31"/><rect x="207" y="181" width="99" height="38" fill="#F7F7F4" opacity="0.38"/><rect x="379" y="181" width="99" height="38" fill="#F7F7F4" opacity="0.28"/><rect x="550" y="181" width="99" height="38" fill="#F7F7F4" opacity="0.30"/><rect x="722" y="181" width="99" height="38" fill="#F7F7F4" opacity="0.45"/><rect x="893" y="181" width="99" height="38" fill="#F7F7F4" opacity="0.43"/><rect x="1065" y="181" width="99" height="38" fill="#F7F7F4" opacity="0.45"/><line x1="0" y1="267" x2="1200" y2="267" stroke="#22456f" stroke-width="1" opacity=".5"/><rect x="36" y="314" width="99" height="38" fill="#F7F7F4" opacity="0.17"/><rect x="379" y="314" width="99" height="38" fill="#F7F7F4" opacity="0.42"/><rect x="550" y="314" width="99" height="38" fill="#F7F7F4" opacity="0.40"/><rect x="722" y="314" width="99" height="38" fill="#F7F7F4" opacity="0.26"/><line x1="0" y1="400" x2="1200" y2="400" stroke="#22456f" stroke-width="1" opacity=".5"/><rect x="207" y="447" width="99" height="38" fill="#F7F7F4" opacity="0.42"/><rect x="379" y="447" width="99" height="38" fill="#F7F7F4" opacity="0.24"/><rect x="893" y="447" width="99" height="38" fill="#F7F7F4" opacity="0.34"/><rect x="1065" y="447" width="99" height="38" fill="#F7F7F4" opacity="0.40"/><line x1="0" y1="533" x2="1200" y2="533" stroke="#22456f" stroke-width="1" opacity=".5"/><rect x="36" y="581" width="99" height="38" fill="#F7F7F4" opacity="0.28"/><rect x="207" y="581" width="99" height="38" fill="#F7F7F4" opacity="0.32"/><rect x="550" y="581" width="99" height="38" fill="#F7F7F4" opacity="0.15"/><rect x="893" y="581" width="99" height="38" fill="#F7F7F4" opacity="0.17"/><rect x="1065" y="581" width="99" height="38" fill="#F7F7F4" opacity="0.41"/><line x1="0" y1="667" x2="1200" y2="667" stroke="#22456f" stroke-width="1" opacity=".5"/><rect x="36" y="714" width="99" height="38" fill="#F7F7F4" opacity="0.29"/><rect x="550" y="714" width="99" height="38" fill="#F7F7F4" opacity="0.38"/><rect x="722" y="714" width="99" height="38" fill="#F7F7F4" opacity="0.27"/><rect x="1065" y="714" width="99" height="38" fill="#F7F7F4" opacity="0.35"/><filter id="g"><feTurbulence type="fractalNoise" baseFrequency="0.9" numOctaves="2"/><feColorMatrix type="saturate" values="0"/></filter><rect width="1200" height="800" filter="url(#g)" opacity=".045"/><radialGradient id="v" cx="50%" cy="45%" r="78%"><stop offset="55%" stop-color="#000" stop-opacity="0"/><stop offset="100%" stop-color="#000" stop-opacity=".42"/></radialGradient><rect width="1200" height="800" fill="url(#v)"/></svg>