<svg xmlns="http://www.w3.org/2000/svg" viewBox="0 0 2000 1200" width="2000" height="1200" role="img" aria-labelledby="t d" preserveAspectRatio="xMidYMid slice"><title id="t">Placeholder homepage hero image</title><desc id="d">Generated placeholder graphic. Not a photograph. Replace with real photography before launch.</desc><rect width="2000" height="1200" fill="#06111F"/><rect x="-2" y="281" width="245" height="919" fill="#12294a"/><rect x="4" y="300" width="16" height="18" fill="#F7F7F4" opacity="0.28"/><rect x="4" y="376" width="16" height="18" fill="#F7F7F4" opacity="0.39"/><rect x="4" y="489" width="16" height="18" fill="#F7F7F4" opacity="0.53"/><rect x="4" y="527" width="16" height="18" fill="#F7F7F4" opacity="0.50"/><rect x="4" y="602" width="16" height="18" fill="#F7F7F4" opacity="0.28"/><rect x="4" y="640" width="16" height="18" fill="#F7F7F4" opacity="0.51"/><rect x="4" y="678" width="16" height="18" fill="#F7F7F4" opacity="0.14"/><rect x="4" y="715" width="16" height="18" fill="#F7F7F4" opacity="0.22"/><rect x="4" y="753" width="16" height="18" fill="#F7F7F4" opacity="0.54"/><rect x="4" y="829" width="16" height="18" fill="#F7F7F4" opacity="0.16"/><rect x="4" y="904" width="16" height="18" fill="#F7F7F4" opacity="0.35"/><rect x="4" y="979" width="16" height="18" fill="#F7F7F4" opacity="0.46"/><rect x="4" y="1017" width="16" height="18" fill="#F7F7F4" opacity="0.15"/><rect x="4" y="1093" width="16" height="18" fill="#F7F7F4" opacity="0.20"/><rect x="4" y="1130" width="16" height="18" fill="#F7F7F4" opacity="0.36"/><rect x="31" y="300" width="16" height="18" fill="#F7F7F4" opacity="0.34"/><rect x="31" y="338" width="16" height="18" fill="#F7F7F4" opacity="0.14"/><rect x="31" y="489" width="16" height="18" fill="#F7F7F4" opacity="0.24"/><rect x="31" y="527" width="16" height="18" fill="#F7F7F4" opacity="0.37"/><rect x="31" y="564" width="16" height="18" fill="#F7F7F4" opacity="0.19"/><rect x="31" y="602" width="16" height="18" fill="#F7F7F4" opacity="0.13"/><rect x="31" y="678" width="16" height="18" fill="#F7F7F4" opacity="0.55"/><rect x="31" y="715" width="16" height="18" fill="#F7F7F4" opacity="0.17"/><rect x="31" y="753" width="16" height="18" fill="#F7F7F4" opacity="0.12"/><rect x="31" y="866" width="16" height="18" fill="#F7F7F4" opacity="0.40"/><rect x="31" y="1017" width="16" height="18" fill="#F7F7F4" opacity="0.24"/><rect x="31" y="1168" width="16" height="18" fill="#F7F7F4" opacity="0.22"/><rect x="58" y="300" width="16" height="18" fill="#F7F7F4" opacity="0.10"/><rect x="58" y="376" width="16" height="18" fill="#F7F7F4" opacity="0.26"/><rect x="58" y="527" width="16" height="18" fill="#F7F7F4" opacity="0.24"/><rect x="58" y="564" width="16" height="18" fill="#F7F7F4" opacity="0.33"/><rect x="58" y="640" width="16" height="18" fill="#F7F7F4" opacity="0.17"/><rect x="58" y="753" width="16" height="18" fill="#F7F7F4" opacity="0.35"/><rect x="58" y="829" width="16" height="18" fill="#F7F7F4" opacity="0.28"/><rect x="58" y="904" width="16" height="18" fill="#F7F7F4" opacity="0.15"/><rect x="58" y="1017" width="16" height="18" fill="#F7F7F4" opacity="0.34"/><rect x="58" y="1093" width="16" height="18" fill="#F7F7F4" opacity="0.17"/><rect x="58" y="1130" width="16" height="18" fill="#F7F7F4" opacity="0.34"/><rect x="86" y="451" width="16" height="18" fill="#F7F7F4" opacity="0.50"/><rect x="86" y="489" width="16" height="18" fill="#F7F7F4" opacity="0.50"/><rect x="86" y="527" width="16" height="18" fill="#F7F7F4" opacity="0.49"/><rect x="86" y="564" width="16" height="18" fill="#F7F7F4" opacity="0.15"/><rect x="86" y="602" width="16" height="18" fill="#F7F7F4" opacity="0.13"/><rect x="86" y="753" width="16" height="18" fill="#F7F7F4" opacity="0.17"/><rect x="86" y="904" width="16" height="18" fill="#F7F7F4" opacity="0.29"/><rect x="86" y="1093" width="16" height="18" fill="#F7F7F4" opacity="0.47"/><rect x="86" y="1168" width="16" height="18" fill="#F7F7F4" opacity="0.52"/><rect x="113" y="414" width="16" height="18" fill="#F7F7F4" opacity="0.41"/><rect x="113" y="451" width="16" height="18" fill="#F7F7F4" opacity="0.53"/><rect x="113" y="489" width="16" height="18" fill="#F7F7F4" opacity="0.19"/><rect x="113" y="527" width="16" height="18" fill="#F7F7F4" opacity="0.21"/><rect x="113" y="564" width="16" height="18" fill="#F7F7F4" opacity="0.21"/><rect x="113" y="602" width="16" height="18" fill="#F7F7F4" opacity="0.27"/><rect x="113" y="678" width="16" height="18" fill="#F7F7F4" opacity="0.35"/><rect x="113" y="753" width="16" height="18" fill="#F7F7F4" opacity="0.15"/><rect x="113" y="791" width="16" height="18" fill="#F7F7F4" opacity="0.13"/><rect x="113" y="829" width="16" height="18" fill="#F7F7F4" opacity="0.54"/><rect x="113" y="866" width="16" height="18" fill="#F7F7F4" opacity="0.15"/><rect x="113" y="942" width="16" height="18" fill="#F7F7F4" opacity="0.48"/><rect x="113" y="979" width="16" height="18" fill="#F7F7F4" opacity="0.47"/><rect x="113" y="1017" width="16" height="18" fill="#F7F7F4" opacity="0.53"/><rect x="113" y="1055" width="16" height="18" fill="#F7F7F4" opacity="0.11"/><rect x="113" y="1093" width="16" height="18" fill="#F7F7F4" opacity="0.53"/><rect x="113" y="1168" width="16" height="18" fill="#F7F7F4" opacity="0.41"/><rect x="140" y="300" width="16" height="18" fill="#F7F7F4" opacity="0.33"/><rect x="140" y="338" width="16" height="18" fill="#F7F7F4" opacity="0.11"/><rect x="140" y="376" width="16" height="18" fill="#F7F7F4" opacity="0.34"/><rect x="140" y="414" width="16" height="18" fill="#F7F7F4" opacity="0.33"/><rect x="140" y="527" width="16" height="18" fill="#F7F7F4" opacity="0.25"/><rect x="140" y="564" width="16" height="18" fill="#F7F7F4" opacity="0.12"/><rect x="140" y="602" width="16" height="18" fill="#F7F7F4" opacity="0.13"/><rect x="140" y="678" width="16" height="18" fill="#F7F7F4" opacity="0.18"/><rect x="140" y="829" width="16" height="18" fill="#F7F7F4" opacity="0.14"/><rect x="140" y="866" width="16" height="18" fill="#F7F7F4" opacity="0.39"/><rect x="140" y="942" width="16" height="18" fill="#F7F7F4" opacity="0.30"/><rect x="140" y="1017" width="16" height="18" fill="#F7F7F4" opacity="0.47"/><rect x="140" y="1093" width="16" height="18" fill="#F7F7F4" opacity="0.47"/><rect x="167" y="300" width="16" height="18" fill="#F7F7F4" opacity="0.47"/><rect x="167" y="414" width="16" height="18" fill="#F7F7F4" opacity="0.21"/><rect x="167" y="489" width="16" height="18" fill="#F7F7F4" opacity="0.38"/><rect x="167" y="564" width="16" height="18" fill="#F7F7F4" opacity="0.48"/><rect x="167" y="602" width="16" height="18" fill="#F7F7F4" opacity="0.49"/><rect x="167" y="678" width="16" height="18" fill="#F7F7F4" opacity="0.52"/><rect x="167" y="715" width="16" height="18" fill="#F7F7F4" opacity="0.18"/><rect x="167" y="753" width="16" height="18" fill="#F7F7F4" opacity="0.29"/><rect x="167" y="829" width="16" height="18" fill="#F7F7F4" opacity="0.20"/><rect x="167" y="866" width="16" height="18" fill="#F7F7F4" opacity="0.14"/><rect x="167" y="1017" width="16" height="18" fill="#F7F7F4" opacity="0.15"/><rect x="167" y="1055" width="16" height="18" fill="#F7F7F4" opacity="0.39"/><rect x="167" y="1093" width="16" height="18" fill="#F7F7F4" opacity="0.13"/><rect x="167" y="1130" width="16" height="18" fill="#F7F7F4" opacity="0.50"/><rect x="167" y="1168" width="16" height="18" fill="#F7F7F4" opacity="0.38"/><rect x="195" y="376" width="16" height="18" fill="#F7F7F4" opacity="0.17"/><rect x="195" y="414" width="16" height="18" fill="#F7F7F4" opacity="0.27"/><rect x="195" y="527" width="16" height="18" fill="#F7F7F4" opacity="0.47"/><rect x="195" y="564" width="16" height="18" fill="#F7F7F4" opacity="0.35"/><rect x="195" y="640" width="16" height="18" fill="#F7F7F4" opacity="0.46"/><rect x="195" y="678" width="16" height="18" fill="#F7F7F4" opacity="0.20"/><rect x="195" y="715" width="16" height="18" fill="#F7F7F4" opacity="0.12"/><rect x="195" y="753" width="16" height="18" fill="#F7F7F4" opacity="0.42"/><rect x="195" y="791" width="16" height="18" fill="#F7F7F4" opacity="0.23"/><rect x="195" y="829" width="16" height="18" fill="#F7F7F4" opacity="0.26"/><rect x="195" y="866" width="16" height="18" fill="#F7F7F4" opacity="0.18"/><rect x="195" y="942" width="16" height="18" fill="#F7F7F4" opacity="0.54"/><rect x="195" y="1055" width="16" height="18" fill="#F7F7F4" opacity="0.25"/><rect x="195" y="1093" width="16" height="18" fill="#F7F7F4" opacity="0.25"/><rect x="195" y="1130" width="16" height="18" fill="#F7F7F4" opacity="0.39"/><rect x="195" y="1168" width="16" height="18" fill="#F7F7F4" opacity="0.20"/><rect x="222" y="300" width="16" height="18" fill="#F7F7F4" opacity="0.54"/><rect x="222" y="376" width="16" height="18" fill="#F7F7F4" opacity="0.54"/><rect x="222" y="414" width="16" height="18" fill="#F7F7F4" opacity="0.51"/><rect x="222" y="451" width="16" height="18" fill="#F7F7F4" opacity="0.28"/><rect x="222" y="489" width="16" height="18" fill="#F7F7F4" opacity="0.53"/><rect x="222" y="602" width="16" height="18" fill="#F7F7F4" opacity="0.53"/><rect x="222" y="678" width="16" height="18" fill="#F7F7F4" opacity="0.48"/><rect x="222" y="829" width="16" height="18" fill="#F7F7F4" opacity="0.51"/><rect x="222" y="904" width="16" height="18" fill="#F7F7F4" opacity="0.41"/><rect x="222" y="942" width="16" height="18" fill="#F7F7F4" opacity="0.35"/><rect x="222" y="979" width="16" height="18" fill="#F7F7F4" opacity="0.35"/><rect x="222" y="1055" width="16" height="18" fill="#F7F7F4" opacity="0.30"/><rect x="222" y="1168" width="16" height="18" fill="#F7F7F4" opacity="0.51"/><rect x="249" y="807" width="201" height="393" fill="#1b3a63"/><rect x="255" y="827" width="17" height="18" fill="#F7F7F4" opacity="0.26"/><rect x="255" y="865" width="17" height="18" fill="#F7F7F4" opacity="0.37"/><rect x="255" y="903" width="17" height="18" fill="#F7F7F4" opacity="0.37"/><rect x="255" y="941" width="17" height="18" fill="#F7F7F4" opacity="0.44"/><rect x="255" y="979" width="17" height="18" fill="#F7F7F4" opacity="0.32"/><rect x="255" y="1016" width="17" height="18" fill="#F7F7F4" opacity="0.24"/><rect x="255" y="1092" width="17" height="18" fill="#F7F7F4" opacity="0.31"/><rect x="255" y="1130" width="17" height="18" fill="#F7F7F4" opacity="0.34"/><rect x="255" y="1168" width="17" height="18" fill="#F7F7F4" opacity="0.18"/><rect x="284" y="865" width="17" height="18" fill="#F7F7F4" opacity="0.50"/><rect x="284" y="941" width="17" height="18" fill="#F7F7F4" opacity="0.24"/><rect x="284" y="1016" width="17" height="18" fill="#F7F7F4" opacity="0.31"/><rect x="284" y="1054" width="17" height="18" fill="#F7F7F4" opacity="0.21"/><rect x="284" y="1092" width="17" height="18" fill="#F7F7F4" opacity="0.19"/><rect x="284" y="1130" width="17" height="18" fill="#F7F7F4" opacity="0.14"/><rect x="284" y="1168" width="17" height="18" fill="#F7F7F4" opacity="0.22"/><rect x="313" y="903" width="17" height="18" fill="#F7F7F4" opacity="0.16"/><rect x="313" y="941" width="17" height="18" fill="#F7F7F4" opacity="0.36"/><rect x="313" y="1016" width="17" height="18" fill="#F7F7F4" opacity="0.43"/><rect x="313" y="1130" width="17" height="18" fill="#F7F7F4" opacity="0.24"/><rect x="313" y="1168" width="17" height="18" fill="#F7F7F4" opacity="0.23"/><rect x="341" y="827" width="17" height="18" fill="#F7F7F4" opacity="0.43"/><rect x="341" y="903" width="17" height="18" fill="#F7F7F4" opacity="0.40"/><rect x="341" y="941" width="17" height="18" fill="#F7F7F4" opacity="0.15"/><rect x="341" y="979" width="17" height="18" fill="#F7F7F4" opacity="0.23"/><rect x="341" y="1054" width="17" height="18" fill="#F7F7F4" opacity="0.15"/><rect x="341" y="1092" width="17" height="18" fill="#F7F7F4" opacity="0.30"/><rect x="341" y="1130" width="17" height="18" fill="#F7F7F4" opacity="0.15"/><rect x="370" y="827" width="17" height="18" fill="#F7F7F4" opacity="0.30"/><rect x="370" y="865" width="17" height="18" fill="#F7F7F4" opacity="0.47"/><rect x="370" y="941" width="17" height="18" fill="#F7F7F4" opacity="0.27"/><rect x="370" y="979" width="17" height="18" fill="#F7F7F4" opacity="0.22"/><rect x="370" y="1054" width="17" height="18" fill="#F7F7F4" opacity="0.15"/><rect x="370" y="1130" width="17" height="18" fill="#F7F7F4" opacity="0.11"/><rect x="399" y="865" width="17" height="18" fill="#F7F7F4" opacity="0.27"/><rect x="399" y="941" width="17" height="18" fill="#F7F7F4" opacity="0.50"/><rect x="399" y="1016" width="17" height="18" fill="#F7F7F4" opacity="0.25"/><rect x="399" y="1054" width="17" height="18" fill="#F7F7F4" opacity="0.20"/><rect x="399" y="1092" width="17" height="18" fill="#F7F7F4" opacity="0.39"/><rect x="427" y="827" width="17" height="18" fill="#F7F7F4" opacity="0.30"/><rect x="427" y="941" width="17" height="18" fill="#F7F7F4" opacity="0.48"/><rect x="427" y="979" width="17" height="18" fill="#F7F7F4" opacity="0.11"/><rect x="427" y="1092" width="17" height="18" fill="#F7F7F4" opacity="0.26"/><rect x="427" y="1130" width="17" height="18" fill="#F7F7F4" opacity="0.16"/><rect x="427" y="1168" width="17" height="18" fill="#F7F7F4" opacity="0.38"/><rect x="502" y="681" width="212" height="519" fill="#07182D"/><rect x="507" y="778" width="15" height="19" fill="#F7F7F4" opacity="0.50"/><rect x="507" y="817" width="15" height="19" fill="#F7F7F4" opacity="0.31"/><rect x="507" y="934" width="15" height="19" fill="#F7F7F4" opacity="0.13"/><rect x="507" y="973" width="15" height="19" fill="#F7F7F4" opacity="0.22"/><rect x="507" y="1012" width="15" height="19" fill="#F7F7F4" opacity="0.36"/><rect x="507" y="1051" width="15" height="19" fill="#F7F7F4" opacity="0.20"/><rect x="507" y="1089" width="15" height="19" fill="#F7F7F4" opacity="0.38"/><rect x="507" y="1128" width="15" height="19" fill="#F7F7F4" opacity="0.50"/><rect x="534" y="740" width="15" height="19" fill="#F7F7F4" opacity="0.20"/><rect x="534" y="895" width="15" height="19" fill="#F7F7F4" opacity="0.52"/><rect x="534" y="1167" width="15" height="19" fill="#F7F7F4" opacity="0.17"/><rect x="560" y="701" width="15" height="19" fill="#F7F7F4" opacity="0.18"/><rect x="560" y="740" width="15" height="19" fill="#F7F7F4" opacity="0.36"/><rect x="560" y="934" width="15" height="19" fill="#F7F7F4" opacity="0.43"/><rect x="560" y="973" width="15" height="19" fill="#F7F7F4" opacity="0.28"/><rect x="560" y="1012" width="15" height="19" fill="#F7F7F4" opacity="0.47"/><rect x="560" y="1051" width="15" height="19" fill="#F7F7F4" opacity="0.29"/><rect x="560" y="1089" width="15" height="19" fill="#F7F7F4" opacity="0.44"/><rect x="560" y="1128" width="15" height="19" fill="#F7F7F4" opacity="0.38"/><rect x="587" y="701" width="15" height="19" fill="#F7F7F4" opacity="0.43"/><rect x="587" y="740" width="15" height="19" fill="#F7F7F4" opacity="0.25"/><rect x="587" y="778" width="15" height="19" fill="#F7F7F4" opacity="0.12"/><rect x="587" y="817" width="15" height="19" fill="#F7F7F4" opacity="0.49"/><rect x="587" y="895" width="15" height="19" fill="#F7F7F4" opacity="0.25"/><rect x="587" y="973" width="15" height="19" fill="#F7F7F4" opacity="0.41"/><rect x="587" y="1012" width="15" height="19" fill="#F7F7F4" opacity="0.11"/><rect x="587" y="1089" width="15" height="19" fill="#F7F7F4" opacity="0.31"/><rect x="587" y="1167" width="15" height="19" fill="#F7F7F4" opacity="0.24"/><rect x="613" y="701" width="15" height="19" fill="#F7F7F4" opacity="0.40"/><rect x="613" y="740" width="15" height="19" fill="#F7F7F4" opacity="0.40"/><rect x="613" y="817" width="15" height="19" fill="#F7F7F4" opacity="0.54"/><rect x="613" y="895" width="15" height="19" fill="#F7F7F4" opacity="0.39"/><rect x="613" y="934" width="15" height="19" fill="#F7F7F4" opacity="0.15"/><rect x="613" y="973" width="15" height="19" fill="#F7F7F4" opacity="0.20"/><rect x="613" y="1012" width="15" height="19" fill="#F7F7F4" opacity="0.27"/><rect x="613" y="1051" width="15" height="19" fill="#F7F7F4" opacity="0.46"/><rect x="613" y="1089" width="15" height="19" fill="#F7F7F4" opacity="0.18"/><rect x="613" y="1128" width="15" height="19" fill="#F7F7F4" opacity="0.27"/><rect x="613" y="1167" width="15" height="19" fill="#F7F7F4" opacity="0.40"/><rect x="640" y="740" width="15" height="19" fill="#F7F7F4" opacity="0.11"/><rect x="640" y="856" width="15" height="19" fill="#F7F7F4" opacity="0.46"/><rect x="640" y="895" width="15" height="19" fill="#F7F7F4" opacity="0.30"/><rect x="640" y="934" width="15" height="19" fill="#F7F7F4" opacity="0.28"/><rect x="640" y="1012" width="15" height="19" fill="#F7F7F4" opacity="0.22"/><rect x="640" y="1051" width="15" height="19" fill="#F7F7F4" opacity="0.31"/><rect x="666" y="817" width="15" height="19" fill="#F7F7F4" opacity="0.20"/><rect x="666" y="856" width="15" height="19" fill="#F7F7F4" opacity="0.42"/><rect x="666" y="973" width="15" height="19" fill="#F7F7F4" opacity="0.49"/><rect x="666" y="1012" width="15" height="19" fill="#F7F7F4" opacity="0.49"/><rect x="666" y="1167" width="15" height="19" fill="#F7F7F4" opacity="0.40"/><rect x="692" y="701" width="15" height="19" fill="#F7F7F4" opacity="0.26"/><rect x="692" y="740" width="15" height="19" fill="#F7F7F4" opacity="0.27"/><rect x="692" y="856" width="15" height="19" fill="#F7F7F4" opacity="0.15"/><rect x="692" y="1012" width="15" height="19" fill="#F7F7F4" opacity="0.20"/><rect x="692" y="1089" width="15" height="19" fill="#F7F7F4" opacity="0.17"/><rect x="692" y="1128" width="15" height="19" fill="#F7F7F4" opacity="0.49"/><rect x="752" y="820" width="216" height="380" fill="#07182D"/><rect x="758" y="949" width="16" height="18" fill="#F7F7F4" opacity="0.48"/><rect x="758" y="1022" width="16" height="18" fill="#F7F7F4" opacity="0.25"/><rect x="758" y="1096" width="16" height="18" fill="#F7F7F4" opacity="0.15"/><rect x="758" y="1132" width="16" height="18" fill="#F7F7F4" opacity="0.16"/><rect x="758" y="1169" width="16" height="18" fill="#F7F7F4" opacity="0.21"/><rect x="785" y="839" width="16" height="18" fill="#F7F7F4" opacity="0.52"/><rect x="785" y="876" width="16" height="18" fill="#F7F7F4" opacity="0.35"/><rect x="785" y="913" width="16" height="18" fill="#F7F7F4" opacity="0.45"/><rect x="812" y="876" width="16" height="18" fill="#F7F7F4" opacity="0.47"/><rect x="812" y="949" width="16" height="18" fill="#F7F7F4" opacity="0.31"/><rect x="812" y="1022" width="16" height="18" fill="#F7F7F4" opacity="0.51"/><rect x="839" y="839" width="16" height="18" fill="#F7F7F4" opacity="0.46"/><rect x="839" y="913" width="16" height="18" fill="#F7F7F4" opacity="0.39"/><rect x="839" y="949" width="16" height="18" fill="#F7F7F4" opacity="0.40"/><rect x="839" y="1022" width="16" height="18" fill="#F7F7F4" opacity="0.27"/><rect x="839" y="1059" width="16" height="18" fill="#F7F7F4" opacity="0.28"/><rect x="839" y="1096" width="16" height="18" fill="#F7F7F4" opacity="0.14"/><rect x="839" y="1169" width="16" height="18" fill="#F7F7F4" opacity="0.54"/><rect x="866" y="839" width="16" height="18" fill="#F7F7F4" opacity="0.27"/><rect x="866" y="913" width="16" height="18" fill="#F7F7F4" opacity="0.29"/><rect x="866" y="1169" width="16" height="18" fill="#F7F7F4" opacity="0.25"/><rect x="893" y="876" width="16" height="18" fill="#F7F7F4" opacity="0.54"/><rect x="893" y="949" width="16" height="18" fill="#F7F7F4" opacity="0.25"/><rect x="893" y="1022" width="16" height="18" fill="#F7F7F4" opacity="0.28"/><rect x="893" y="1059" width="16" height="18" fill="#F7F7F4" opacity="0.54"/><rect x="893" y="1096" width="16" height="18" fill="#F7F7F4" opacity="0.18"/><rect x="920" y="839" width="16" height="18" fill="#F7F7F4" opacity="0.22"/><rect x="920" y="876" width="16" height="18" fill="#F7F7F4" opacity="0.16"/><rect x="920" y="913" width="16" height="18" fill="#F7F7F4" opacity="0.55"/><rect x="920" y="986" width="16" height="18" fill="#F7F7F4" opacity="0.40"/><rect x="920" y="1096" width="16" height="18" fill="#F7F7F4" opacity="0.15"/><rect x="920" y="1132" width="16" height="18" fill="#F7F7F4" opacity="0.44"/><rect x="920" y="1169" width="16" height="18" fill="#F7F7F4" opacity="0.37"/><rect x="947" y="913" width="16" height="18" fill="#F7F7F4" opacity="0.12"/><rect x="947" y="949" width="16" height="18" fill="#F7F7F4" opacity="0.51"/><rect x="947" y="1022" width="16" height="18" fill="#F7F7F4" opacity="0.16"/><rect x="947" y="1169" width="16" height="18" fill="#F7F7F4" opacity="0.45"/><rect x="1002" y="559" width="253" height="641" fill="#07182D"/><rect x="1008" y="618" width="16" height="19" fill="#F7F7F4" opacity="0.15"/><rect x="1008" y="658" width="16" height="19" fill="#F7F7F4" opacity="0.11"/><rect x="1008" y="775" width="16" height="19" fill="#F7F7F4" opacity="0.37"/><rect x="1008" y="932" width="16" height="19" fill="#F7F7F4" opacity="0.12"/><rect x="1008" y="1010" width="16" height="19" fill="#F7F7F4" opacity="0.15"/><rect x="1008" y="1049" width="16" height="19" fill="#F7F7F4" opacity="0.46"/><rect x="1008" y="1128" width="16" height="19" fill="#F7F7F4" opacity="0.41"/><rect x="1008" y="1167" width="16" height="19" fill="#F7F7F4" opacity="0.55"/><rect x="1036" y="579" width="16" height="19" fill="#F7F7F4" opacity="0.27"/><rect x="1036" y="697" width="16" height="19" fill="#F7F7F4" opacity="0.14"/><rect x="1036" y="736" width="16" height="19" fill="#F7F7F4" opacity="0.11"/><rect x="1036" y="775" width="16" height="19" fill="#F7F7F4" opacity="0.15"/><rect x="1036" y="814" width="16" height="19" fill="#F7F7F4" opacity="0.26"/><rect x="1036" y="893" width="16" height="19" fill="#F7F7F4" opacity="0.25"/><rect x="1036" y="971" width="16" height="19" fill="#F7F7F4" opacity="0.15"/><rect x="1036" y="1049" width="16" height="19" fill="#F7F7F4" opacity="0.29"/><rect x="1036" y="1128" width="16" height="19" fill="#F7F7F4" opacity="0.55"/><rect x="1036" y="1167" width="16" height="19" fill="#F7F7F4" opacity="0.39"/><rect x="1064" y="618" width="16" height="19" fill="#F7F7F4" opacity="0.39"/><rect x="1064" y="736" width="16" height="19" fill="#F7F7F4" opacity="0.49"/><rect x="1064" y="775" width="16" height="19" fill="#F7F7F4" opacity="0.14"/><rect x="1064" y="814" width="16" height="19" fill="#F7F7F4" opacity="0.15"/><rect x="1064" y="854" width="16" height="19" fill="#F7F7F4" opacity="0.50"/><rect x="1064" y="1010" width="16" height="19" fill="#F7F7F4" opacity="0.42"/><rect x="1064" y="1049" width="16" height="19" fill="#F7F7F4" opacity="0.54"/><rect x="1064" y="1089" width="16" height="19" fill="#F7F7F4" opacity="0.36"/><rect x="1064" y="1167" width="16" height="19" fill="#F7F7F4" opacity="0.48"/><rect x="1092" y="579" width="16" height="19" fill="#F7F7F4" opacity="0.18"/><rect x="1092" y="658" width="16" height="19" fill="#F7F7F4" opacity="0.13"/><rect x="1092" y="736" width="16" height="19" fill="#F7F7F4" opacity="0.28"/><rect x="1092" y="854" width="16" height="19" fill="#F7F7F4" opacity="0.52"/><rect x="1092" y="893" width="16" height="19" fill="#F7F7F4" opacity="0.33"/><rect x="1092" y="971" width="16" height="19" fill="#F7F7F4" opacity="0.19"/><rect x="1092" y="1010" width="16" height="19" fill="#F7F7F4" opacity="0.27"/><rect x="1092" y="1128" width="16" height="19" fill="#F7F7F4" opacity="0.17"/><rect x="1092" y="1167" width="16" height="19" fill="#F7F7F4" opacity="0.49"/><rect x="1120" y="658" width="16" height="19" fill="#F7F7F4" opacity="0.14"/><rect x="1120" y="697" width="16" height="19" fill="#F7F7F4" opacity="0.31"/><rect x="1120" y="893" width="16" height="19" fill="#F7F7F4" opacity="0.53"/><rect x="1120" y="932" width="16" height="19" fill="#F7F7F4" opacity="0.36"/><rect x="1120" y="971" width="16" height="19" fill="#F7F7F4" opacity="0.18"/><rect x="1120" y="1049" width="16" height="19" fill="#F7F7F4" opacity="0.26"/><rect x="1120" y="1089" width="16" height="19" fill="#F7F7F4" opacity="0.49"/><rect x="1148" y="579" width="16" height="19" fill="#F7F7F4" opacity="0.17"/><rect x="1148" y="697" width="16" height="19" fill="#F7F7F4" opacity="0.32"/><rect x="1148" y="736" width="16" height="19" fill="#F7F7F4" opacity="0.44"/><rect x="1148" y="775" width="16" height="19" fill="#F7F7F4" opacity="0.33"/><rect x="1148" y="814" width="16" height="19" fill="#F7F7F4" opacity="0.12"/><rect x="1148" y="854" width="16" height="19" fill="#F7F7F4" opacity="0.31"/><rect x="1148" y="893" width="16" height="19" fill="#F7F7F4" opacity="0.52"/><rect x="1148" y="971" width="16" height="19" fill="#F7F7F4" opacity="0.18"/><rect x="1148" y="1049" width="16" height="19" fill="#F7F7F4" opacity="0.31"/><rect x="1148" y="1167" width="16" height="19" fill="#F7F7F4" opacity="0.18"/><rect x="1176" y="579" width="16" height="19" fill="#F7F7F4" opacity="0.43"/><rect x="1176" y="618" width="16" height="19" fill="#F7F7F4" opacity="0.54"/><rect x="1176" y="697" width="16" height="19" fill="#F7F7F4" opacity="0.47"/><rect x="1176" y="736" width="16" height="19" fill="#F7F7F4" opacity="0.21"/><rect x="1176" y="814" width="16" height="19" fill="#F7F7F4" opacity="0.21"/><rect x="1176" y="893" width="16" height="19" fill="#F7F7F4" opacity="0.17"/><rect x="1176" y="932" width="16" height="19" fill="#F7F7F4" opacity="0.15"/><rect x="1176" y="1049" width="16" height="19" fill="#F7F7F4" opacity="0.40"/><rect x="1176" y="1167" width="16" height="19" fill="#F7F7F4" opacity="0.53"/><rect x="1204" y="579" width="16" height="19" fill="#F7F7F4" opacity="0.37"/><rect x="1204" y="618" width="16" height="19" fill="#F7F7F4" opacity="0.26"/><rect x="1204" y="658" width="16" height="19" fill="#F7F7F4" opacity="0.54"/><rect x="1204" y="697" width="16" height="19" fill="#F7F7F4" opacity="0.49"/><rect x="1204" y="775" width="16" height="19" fill="#F7F7F4" opacity="0.22"/><rect x="1204" y="854" width="16" height="19" fill="#F7F7F4" opacity="0.38"/><rect x="1204" y="893" width="16" height="19" fill="#F7F7F4" opacity="0.21"/><rect x="1204" y="932" width="16" height="19" fill="#F7F7F4" opacity="0.41"/><rect x="1204" y="971" width="16" height="19" fill="#F7F7F4" opacity="0.44"/><rect x="1204" y="1089" width="16" height="19" fill="#F7F7F4" opacity="0.54"/><rect x="1204" y="1128" width="16" height="19" fill="#F7F7F4" opacity="0.51"/><rect x="1204" y="1167" width="16" height="19" fill="#F7F7F4" opacity="0.46"/><rect x="1233" y="618" width="16" height="19" fill="#F7F7F4" opacity="0.33"/><rect x="1233" y="893" width="16" height="19" fill="#F7F7F4" opacity="0.52"/><rect x="1233" y="932" width="16" height="19" fill="#F7F7F4" opacity="0.52"/><rect x="1233" y="1010" width="16" height="19" fill="#F7F7F4" opacity="0.45"/><rect x="1233" y="1049" width="16" height="19" fill="#F7F7F4" opacity="0.14"/><rect x="1233" y="1089" width="16" height="19" fill="#F7F7F4" opacity="0.53"/><rect x="1233" y="1128" width="16" height="19" fill="#F7F7F4" opacity="0.41"/><rect x="1233" y="1167" width="16" height="19" fill="#F7F7F4" opacity="0.14"/><rect x="1250" y="326" width="206" height="874" fill="#07182D"/><rect x="1256" y="385" width="17" height="19" fill="#F7F7F4" opacity="0.54"/><rect x="1256" y="464" width="17" height="19" fill="#F7F7F4" opacity="0.44"/><rect x="1256" y="581" width="17" height="19" fill="#F7F7F4" opacity="0.16"/><rect x="1256" y="620" width="17" height="19" fill="#F7F7F4" opacity="0.37"/><rect x="1256" y="698" width="17" height="19" fill="#F7F7F4" opacity="0.32"/><rect x="1256" y="854" width="17" height="19" fill="#F7F7F4" opacity="0.15"/><rect x="1256" y="933" width="17" height="19" fill="#F7F7F4" opacity="0.26"/><rect x="1256" y="972" width="17" height="19" fill="#F7F7F4" opacity="0.49"/><rect x="1256" y="1050" width="17" height="19" fill="#F7F7F4" opacity="0.43"/><rect x="1256" y="1167" width="17" height="19" fill="#F7F7F4" opacity="0.43"/><rect x="1285" y="385" width="17" height="19" fill="#F7F7F4" opacity="0.34"/><rect x="1285" y="424" width="17" height="19" fill="#F7F7F4" opacity="0.14"/><rect x="1285" y="464" width="17" height="19" fill="#F7F7F4" opacity="0.42"/><rect x="1285" y="503" width="17" height="19" fill="#F7F7F4" opacity="0.21"/><rect x="1285" y="542" width="17" height="19" fill="#F7F7F4" opacity="0.19"/><rect x="1285" y="581" width="17" height="19" fill="#F7F7F4" opacity="0.14"/><rect x="1285" y="698" width="17" height="19" fill="#F7F7F4" opacity="0.13"/><rect x="1285" y="737" width="17" height="19" fill="#F7F7F4" opacity="0.11"/><rect x="1285" y="815" width="17" height="19" fill="#F7F7F4" opacity="0.51"/><rect x="1285" y="854" width="17" height="19" fill="#F7F7F4" opacity="0.28"/><rect x="1285" y="933" width="17" height="19" fill="#F7F7F4" opacity="0.35"/><rect x="1285" y="1011" width="17" height="19" fill="#F7F7F4" opacity="0.54"/><rect x="1285" y="1050" width="17" height="19" fill="#F7F7F4" opacity="0.43"/><rect x="1285" y="1128" width="17" height="19" fill="#F7F7F4" opacity="0.33"/><rect x="1315" y="346" width="17" height="19" fill="#F7F7F4" opacity="0.30"/><rect x="1315" y="464" width="17" height="19" fill="#F7F7F4" opacity="0.16"/><rect x="1315" y="503" width="17" height="19" fill="#F7F7F4" opacity="0.47"/><rect x="1315" y="542" width="17" height="19" fill="#F7F7F4" opacity="0.11"/><rect x="1315" y="581" width="17" height="19" fill="#F7F7F4" opacity="0.28"/><rect x="1315" y="620" width="17" height="19" fill="#F7F7F4" opacity="0.30"/><rect x="1315" y="659" width="17" height="19" fill="#F7F7F4" opacity="0.30"/><rect x="1315" y="698" width="17" height="19" fill="#F7F7F4" opacity="0.13"/><rect x="1315" y="737" width="17" height="19" fill="#F7F7F4" opacity="0.24"/><rect x="1315" y="776" width="17" height="19" fill="#F7F7F4" opacity="0.42"/><rect x="1315" y="815" width="17" height="19" fill="#F7F7F4" opacity="0.54"/><rect x="1315" y="854" width="17" height="19" fill="#F7F7F4" opacity="0.12"/><rect x="1315" y="893" width="17" height="19" fill="#F7F7F4" opacity="0.44"/><rect x="1315" y="933" width="17" height="19" fill="#F7F7F4" opacity="0.40"/><rect x="1315" y="972" width="17" height="19" fill="#F7F7F4" opacity="0.50"/><rect x="1315" y="1089" width="17" height="19" fill="#F7F7F4" opacity="0.15"/><rect x="1315" y="1128" width="17" height="19" fill="#F7F7F4" opacity="0.25"/><rect x="1315" y="1167" width="17" height="19" fill="#F7F7F4" opacity="0.26"/><rect x="1344" y="346" width="17" height="19" fill="#F7F7F4" opacity="0.13"/><rect x="1344" y="385" width="17" height="19" fill="#F7F7F4" opacity="0.53"/><rect x="1344" y="424" width="17" height="19" fill="#F7F7F4" opacity="0.36"/><rect x="1344" y="464" width="17" height="19" fill="#F7F7F4" opacity="0.34"/><rect x="1344" y="503" width="17" height="19" fill="#F7F7F4" opacity="0.24"/><rect x="1344" y="542" width="17" height="19" fill="#F7F7F4" opacity="0.27"/><rect x="1344" y="581" width="17" height="19" fill="#F7F7F4" opacity="0.40"/><rect x="1344" y="659" width="17" height="19" fill="#F7F7F4" opacity="0.43"/><rect x="1344" y="698" width="17" height="19" fill="#F7F7F4" opacity="0.22"/><rect x="1344" y="737" width="17" height="19" fill="#F7F7F4" opacity="0.15"/><rect x="1344" y="776" width="17" height="19" fill="#F7F7F4" opacity="0.15"/><rect x="1344" y="815" width="17" height="19" fill="#F7F7F4" opacity="0.33"/><rect x="1344" y="854" width="17" height="19" fill="#F7F7F4" opacity="0.29"/><rect x="1344" y="893" width="17" height="19" fill="#F7F7F4" opacity="0.30"/><rect x="1344" y="1089" width="17" height="19" fill="#F7F7F4" opacity="0.14"/><rect x="1344" y="1128" width="17" height="19" fill="#F7F7F4" opacity="0.45"/><rect x="1344" y="1167" width="17" height="19" fill="#F7F7F4" opacity="0.30"/><rect x="1374" y="385" width="17" height="19" fill="#F7F7F4" opacity="0.45"/><rect x="1374" y="424" width="17" height="19" fill="#F7F7F4" opacity="0.24"/><rect x="1374" y="503" width="17" height="19" fill="#F7F7F4" opacity="0.42"/><rect x="1374" y="542" width="17" height="19" fill="#F7F7F4" opacity="0.28"/><rect x="1374" y="659" width="17" height="19" fill="#F7F7F4" opacity="0.15"/><rect x="1374" y="698" width="17" height="19" fill="#F7F7F4" opacity="0.24"/><rect x="1374" y="854" width="17" height="19" fill="#F7F7F4" opacity="0.13"/><rect x="1374" y="893" width="17" height="19" fill="#F7F7F4" opacity="0.32"/><rect x="1374" y="933" width="17" height="19" fill="#F7F7F4" opacity="0.22"/><rect x="1374" y="1050" width="17" height="19" fill="#F7F7F4" opacity="0.32"/><rect x="1374" y="1089" width="17" height="19" fill="#F7F7F4" opacity="0.28"/><rect x="1374" y="1128" width="17" height="19" fill="#F7F7F4" opacity="0.29"/><rect x="1374" y="1167" width="17" height="19" fill="#F7F7F4" opacity="0.13"/><rect x="1403" y="385" width="17" height="19" fill="#F7F7F4" opacity="0.41"/><rect x="1403" y="424" width="17" height="19" fill="#F7F7F4" opacity="0.53"/><rect x="1403" y="542" width="17" height="19" fill="#F7F7F4" opacity="0.49"/><rect x="1403" y="581" width="17" height="19" fill="#F7F7F4" opacity="0.12"/><rect x="1403" y="620" width="17" height="19" fill="#F7F7F4" opacity="0.17"/><rect x="1403" y="737" width="17" height="19" fill="#F7F7F4" opacity="0.44"/><rect x="1403" y="815" width="17" height="19" fill="#F7F7F4" opacity="0.44"/><rect x="1403" y="854" width="17" height="19" fill="#F7F7F4" opacity="0.14"/><rect x="1403" y="893" width="17" height="19" fill="#F7F7F4" opacity="0.11"/><rect x="1403" y="933" width="17" height="19" fill="#F7F7F4" opacity="0.49"/><rect x="1403" y="1050" width="17" height="19" fill="#F7F7F4" opacity="0.38"/><rect x="1403" y="1089" width="17" height="19" fill="#F7F7F4" opacity="0.26"/><rect x="1403" y="1128" width="17" height="19" fill="#F7F7F4" opacity="0.14"/><rect x="1432" y="346" width="17" height="19" fill="#F7F7F4" opacity="0.15"/><rect x="1432" y="385" width="17" height="19" fill="#F7F7F4" opacity="0.17"/><rect x="1432" y="464" width="17" height="19" fill="#F7F7F4" opacity="0.13"/><rect x="1432" y="581" width="17" height="19" fill="#F7F7F4" opacity="0.15"/><rect x="1432" y="620" width="17" height="19" fill="#F7F7F4" opacity="0.45"/><rect x="1432" y="737" width="17" height="19" fill="#F7F7F4" opacity="0.29"/><rect x="1432" y="776" width="17" height="19" fill="#F7F7F4" opacity="0.37"/><rect x="1432" y="854" width="17" height="19" fill="#F7F7F4" opacity="0.21"/><rect x="1432" y="893" width="17" height="19" fill="#F7F7F4" opacity="0.40"/><rect x="1432" y="933" width="17" height="19" fill="#F7F7F4" opacity="0.20"/><rect x="1432" y="1089" width="17" height="19" fill="#F7F7F4" opacity="0.31"/><rect x="1500" y="400" width="227" height="800" fill="#1b3a63"/><rect x="1506" y="419" width="16" height="18" fill="#F7F7F4" opacity="0.54"/><rect x="1506" y="494" width="16" height="18" fill="#F7F7F4" opacity="0.24"/><rect x="1506" y="532" width="16" height="18" fill="#F7F7F4" opacity="0.42"/><rect x="1506" y="569" width="16" height="18" fill="#F7F7F4" opacity="0.21"/><rect x="1506" y="794" width="16" height="18" fill="#F7F7F4" opacity="0.42"/><rect x="1506" y="869" width="16" height="18" fill="#F7F7F4" opacity="0.43"/><rect x="1506" y="981" width="16" height="18" fill="#F7F7F4" opacity="0.39"/><rect x="1506" y="1018" width="16" height="18" fill="#F7F7F4" opacity="0.25"/><rect x="1506" y="1056" width="16" height="18" fill="#F7F7F4" opacity="0.30"/><rect x="1506" y="1093" width="16" height="18" fill="#F7F7F4" opacity="0.52"/><rect x="1506" y="1131" width="16" height="18" fill="#F7F7F4" opacity="0.29"/><rect x="1534" y="457" width="16" height="18" fill="#F7F7F4" opacity="0.20"/><rect x="1534" y="532" width="16" height="18" fill="#F7F7F4" opacity="0.45"/><rect x="1534" y="644" width="16" height="18" fill="#F7F7F4" opacity="0.41"/><rect x="1534" y="681" width="16" height="18" fill="#F7F7F4" opacity="0.37"/><rect x="1534" y="756" width="16" height="18" fill="#F7F7F4" opacity="0.27"/><rect x="1534" y="794" width="16" height="18" fill="#F7F7F4" opacity="0.38"/><rect x="1534" y="869" width="16" height="18" fill="#F7F7F4" opacity="0.23"/><rect x="1534" y="944" width="16" height="18" fill="#F7F7F4" opacity="0.29"/><rect x="1534" y="981" width="16" height="18" fill="#F7F7F4" opacity="0.25"/><rect x="1534" y="1018" width="16" height="18" fill="#F7F7F4" opacity="0.27"/><rect x="1534" y="1093" width="16" height="18" fill="#F7F7F4" opacity="0.30"/><rect x="1562" y="419" width="16" height="18" fill="#F7F7F4" opacity="0.48"/><rect x="1562" y="494" width="16" height="18" fill="#F7F7F4" opacity="0.11"/><rect x="1562" y="532" width="16" height="18" fill="#F7F7F4" opacity="0.32"/><rect x="1562" y="681" width="16" height="18" fill="#F7F7F4" opacity="0.27"/><rect x="1562" y="719" width="16" height="18" fill="#F7F7F4" opacity="0.27"/><rect x="1562" y="756" width="16" height="18" fill="#F7F7F4" opacity="0.48"/><rect x="1562" y="831" width="16" height="18" fill="#F7F7F4" opacity="0.42"/><rect x="1562" y="869" width="16" height="18" fill="#F7F7F4" opacity="0.16"/><rect x="1562" y="944" width="16" height="18" fill="#F7F7F4" opacity="0.40"/><rect x="1562" y="1056" width="16" height="18" fill="#F7F7F4" opacity="0.12"/><rect x="1562" y="1131" width="16" height="18" fill="#F7F7F4" opacity="0.44"/><rect x="1562" y="1168" width="16" height="18" fill="#F7F7F4" opacity="0.43"/><rect x="1591" y="494" width="16" height="18" fill="#F7F7F4" opacity="0.20"/><rect x="1591" y="569" width="16" height="18" fill="#F7F7F4" opacity="0.20"/><rect x="1591" y="644" width="16" height="18" fill="#F7F7F4" opacity="0.41"/><rect x="1591" y="681" width="16" height="18" fill="#F7F7F4" opacity="0.34"/><rect x="1591" y="719" width="16" height="18" fill="#F7F7F4" opacity="0.17"/><rect x="1591" y="756" width="16" height="18" fill="#F7F7F4" opacity="0.37"/><rect x="1591" y="794" width="16" height="18" fill="#F7F7F4" opacity="0.51"/><rect x="1591" y="831" width="16" height="18" fill="#F7F7F4" opacity="0.46"/><rect x="1591" y="869" width="16" height="18" fill="#F7F7F4" opacity="0.20"/><rect x="1591" y="1018" width="16" height="18" fill="#F7F7F4" opacity="0.30"/><rect x="1591" y="1056" width="16" height="18" fill="#F7F7F4" opacity="0.53"/><rect x="1591" y="1131" width="16" height="18" fill="#F7F7F4" opacity="0.54"/><rect x="1591" y="1168" width="16" height="18" fill="#F7F7F4" opacity="0.34"/><rect x="1619" y="607" width="16" height="18" fill="#F7F7F4" opacity="0.29"/><rect x="1619" y="644" width="16" height="18" fill="#F7F7F4" opacity="0.22"/><rect x="1619" y="756" width="16" height="18" fill="#F7F7F4" opacity="0.52"/><rect x="1619" y="831" width="16" height="18" fill="#F7F7F4" opacity="0.45"/><rect x="1619" y="869" width="16" height="18" fill="#F7F7F4" opacity="0.43"/><rect x="1619" y="906" width="16" height="18" fill="#F7F7F4" opacity="0.31"/><rect x="1619" y="944" width="16" height="18" fill="#F7F7F4" opacity="0.13"/><rect x="1619" y="1018" width="16" height="18" fill="#F7F7F4" opacity="0.48"/><rect x="1619" y="1056" width="16" height="18" fill="#F7F7F4" opacity="0.33"/><rect x="1619" y="1093" width="16" height="18" fill="#F7F7F4" opacity="0.35"/><rect x="1647" y="419" width="16" height="18" fill="#F7F7F4" opacity="0.45"/><rect x="1647" y="457" width="16" height="18" fill="#F7F7F4" opacity="0.39"/><rect x="1647" y="494" width="16" height="18" fill="#F7F7F4" opacity="0.28"/><rect x="1647" y="532" width="16" height="18" fill="#F7F7F4" opacity="0.20"/><rect x="1647" y="569" width="16" height="18" fill="#F7F7F4" opacity="0.20"/><rect x="1647" y="607" width="16" height="18" fill="#F7F7F4" opacity="0.30"/><rect x="1647" y="644" width="16" height="18" fill="#F7F7F4" opacity="0.29"/><rect x="1647" y="681" width="16" height="18" fill="#F7F7F4" opacity="0.50"/><rect x="1647" y="794" width="16" height="18" fill="#F7F7F4" opacity="0.18"/><rect x="1647" y="831" width="16" height="18" fill="#F7F7F4" opacity="0.31"/><rect x="1647" y="869" width="16" height="18" fill="#F7F7F4" opacity="0.17"/><rect x="1647" y="1131" width="16" height="18" fill="#F7F7F4" opacity="0.44"/><rect x="1647" y="1168" width="16" height="18" fill="#F7F7F4" opacity="0.37"/><rect x="1676" y="419" width="16" height="18" fill="#F7F7F4" opacity="0.38"/><rect x="1676" y="457" width="16" height="18" fill="#F7F7F4" opacity="0.11"/><rect x="1676" y="494" width="16" height="18" fill="#F7F7F4" opacity="0.11"/><rect x="1676" y="532" width="16" height="18" fill="#F7F7F4" opacity="0.18"/><rect x="1676" y="569" width="16" height="18" fill="#F7F7F4" opacity="0.40"/><rect x="1676" y="644" width="16" height="18" fill="#F7F7F4" opacity="0.45"/><rect x="1676" y="719" width="16" height="18" fill="#F7F7F4" opacity="0.55"/><rect x="1676" y="756" width="16" height="18" fill="#F7F7F4" opacity="0.12"/><rect x="1676" y="831" width="16" height="18" fill="#F7F7F4" opacity="0.32"/><rect x="1676" y="981" width="16" height="18" fill="#F7F7F4" opacity="0.22"/><rect x="1676" y="1018" width="16" height="18" fill="#F7F7F4" opacity="0.19"/><rect x="1676" y="1093" width="16" height="18" fill="#F7F7F4" opacity="0.39"/><rect x="1676" y="1168" width="16" height="18" fill="#F7F7F4" opacity="0.36"/><rect x="1704" y="419" width="16" height="18" fill="#F7F7F4" opacity="0.41"/><rect x="1704" y="494" width="16" height="18" fill="#F7F7F4" opacity="0.28"/><rect x="1704" y="569" width="16" height="18" fill="#F7F7F4" opacity="0.50"/><rect x="1704" y="607" width="16" height="18" fill="#F7F7F4" opacity="0.35"/><rect x="1704" y="644" width="16" height="18" fill="#F7F7F4" opacity="0.16"/><rect x="1704" y="681" width="16" height="18" fill="#F7F7F4" opacity="0.33"/><rect x="1704" y="831" width="16" height="18" fill="#F7F7F4" opacity="0.37"/><rect x="1704" y="869" width="16" height="18" fill="#F7F7F4" opacity="0.19"/><rect x="1704" y="906" width="16" height="18" fill="#F7F7F4" opacity="0.38"/><rect x="1704" y="981" width="16" height="18" fill="#F7F7F4" opacity="0.15"/><rect x="1704" y="1056" width="16" height="18" fill="#F7F7F4" opacity="0.16"/><rect x="1704" y="1093" width="16" height="18" fill="#F7F7F4" opacity="0.39"/><rect x="1750" y="493" width="254" height="707" fill="#1b3a63"/><rect x="1756" y="513" width="16" height="18" fill="#F7F7F4" opacity="0.28"/><rect x="1756" y="552" width="16" height="18" fill="#F7F7F4" opacity="0.51"/><rect x="1756" y="667" width="16" height="18" fill="#F7F7F4" opacity="0.54"/><rect x="1756" y="706" width="16" height="18" fill="#F7F7F4" opacity="0.31"/><rect x="1756" y="860" width="16" height="18" fill="#F7F7F4" opacity="0.14"/><rect x="1756" y="898" width="16" height="18" fill="#F7F7F4" opacity="0.40"/><rect x="1756" y="937" width="16" height="18" fill="#F7F7F4" opacity="0.39"/><rect x="1756" y="1014" width="16" height="18" fill="#F7F7F4" opacity="0.13"/><rect x="1756" y="1091" width="16" height="18" fill="#F7F7F4" opacity="0.14"/><rect x="1756" y="1168" width="16" height="18" fill="#F7F7F4" opacity="0.46"/><rect x="1784" y="513" width="16" height="18" fill="#F7F7F4" opacity="0.17"/><rect x="1784" y="590" width="16" height="18" fill="#F7F7F4" opacity="0.12"/><rect x="1784" y="629" width="16" height="18" fill="#F7F7F4" opacity="0.50"/><rect x="1784" y="706" width="16" height="18" fill="#F7F7F4" opacity="0.48"/><rect x="1784" y="744" width="16" height="18" fill="#F7F7F4" opacity="0.49"/><rect x="1784" y="821" width="16" height="18" fill="#F7F7F4" opacity="0.48"/><rect x="1784" y="1014" width="16" height="18" fill="#F7F7F4" opacity="0.37"/><rect x="1784" y="1091" width="16" height="18" fill="#F7F7F4" opacity="0.35"/><rect x="1784" y="1168" width="16" height="18" fill="#F7F7F4" opacity="0.27"/><rect x="1812" y="513" width="16" height="18" fill="#F7F7F4" opacity="0.10"/><rect x="1812" y="590" width="16" height="18" fill="#F7F7F4" opacity="0.26"/><rect x="1812" y="629" width="16" height="18" fill="#F7F7F4" opacity="0.43"/><rect x="1812" y="706" width="16" height="18" fill="#F7F7F4" opacity="0.33"/><rect x="1812" y="744" width="16" height="18" fill="#F7F7F4" opacity="0.14"/><rect x="1812" y="783" width="16" height="18" fill="#F7F7F4" opacity="0.48"/><rect x="1812" y="821" width="16" height="18" fill="#F7F7F4" opacity="0.18"/><rect x="1812" y="860" width="16" height="18" fill="#F7F7F4" opacity="0.49"/><rect x="1812" y="937" width="16" height="18" fill="#F7F7F4" opacity="0.43"/><rect x="1812" y="1014" width="16" height="18" fill="#F7F7F4" opacity="0.41"/><rect x="1812" y="1052" width="16" height="18" fill="#F7F7F4" opacity="0.52"/><rect x="1812" y="1129" width="16" height="18" fill="#F7F7F4" opacity="0.39"/><rect x="1841" y="513" width="16" height="18" fill="#F7F7F4" opacity="0.36"/><rect x="1841" y="744" width="16" height="18" fill="#F7F7F4" opacity="0.28"/><rect x="1841" y="860" width="16" height="18" fill="#F7F7F4" opacity="0.32"/><rect x="1841" y="937" width="16" height="18" fill="#F7F7F4" opacity="0.53"/><rect x="1841" y="1014" width="16" height="18" fill="#F7F7F4" opacity="0.16"/><rect x="1841" y="1052" width="16" height="18" fill="#F7F7F4" opacity="0.48"/><rect x="1841" y="1091" width="16" height="18" fill="#F7F7F4" opacity="0.16"/><rect x="1841" y="1129" width="16" height="18" fill="#F7F7F4" opacity="0.16"/><rect x="1841" y="1168" width="16" height="18" fill="#F7F7F4" opacity="0.24"/><rect x="1869" y="513" width="16" height="18" fill="#F7F7F4" opacity="0.24"/><rect x="1869" y="629" width="16" height="18" fill="#F7F7F4" opacity="0.33"/><rect x="1869" y="744" width="16" height="18" fill="#F7F7F4" opacity="0.35"/><rect x="1869" y="783" width="16" height="18" fill="#F7F7F4" opacity="0.48"/><rect x="1869" y="821" width="16" height="18" fill="#F7F7F4" opacity="0.41"/><rect x="1869" y="898" width="16" height="18" fill="#F7F7F4" opacity="0.55"/><rect x="1869" y="975" width="16" height="18" fill="#F7F7F4" opacity="0.55"/><rect x="1869" y="1129" width="16" height="18" fill="#F7F7F4" opacity="0.41"/><rect x="1869" y="1168" width="16" height="18" fill="#F7F7F4" opacity="0.53"/><rect x="1897" y="552" width="16" height="18" fill="#F7F7F4" opacity="0.14"/><rect x="1897" y="590" width="16" height="18" fill="#F7F7F4" opacity="0.38"/><rect x="1897" y="667" width="16" height="18" fill="#F7F7F4" opacity="0.31"/><rect x="1897" y="706" width="16" height="18" fill="#F7F7F4" opacity="0.37"/><rect x="1897" y="821" width="16" height="18" fill="#F7F7F4" opacity="0.19"/><rect x="1897" y="1091" width="16" height="18" fill="#F7F7F4" opacity="0.29"/><rect x="1897" y="1168" width="16" height="18" fill="#F7F7F4" opacity="0.42"/><rect x="1925" y="513" width="16" height="18" fill="#F7F7F4" opacity="0.18"/><rect x="1925" y="590" width="16" height="18" fill="#F7F7F4" opacity="0.16"/><rect x="1925" y="629" width="16" height="18" fill="#F7F7F4" opacity="0.37"/><rect x="1925" y="821" width="16" height="18" fill="#F7F7F4" opacity="0.43"/><rect x="1925" y="860" width="16" height="18" fill="#F7F7F4" opacity="0.30"/><rect x="1925" y="975" width="16" height="18" fill="#F7F7F4" opacity="0.28"/><rect x="1925" y="1014" width="16" height="18" fill="#F7F7F4" opacity="0.53"/><rect x="1925" y="1091" width="16" height="18" fill="#F7F7F4" opacity="0.42"/><rect x="1925" y="1129" width="16" height="18" fill="#F7F7F4" opacity="0.25"/><rect x="1925" y="1168" width="16" height="18" fill="#F7F7F4" opacity="0.15"/><rect x="1953" y="513" width="16" height="18" fill="#F7F7F4" opacity="0.33"/><rect x="1953" y="552" width="16" height="18" fill="#F7F7F4" opacity="0.42"/><rect x="1953" y="590" width="16" height="18" fill="#F7F7F4" opacity="0.52"/><rect x="1953" y="629" width="16" height="18" fill="#F7F7F4" opacity="0.46"/><rect x="1953" y="706" width="16" height="18" fill="#F7F7F4" opacity="0.35"/><rect x="1953" y="744" width="16" height="18" fill="#F7F7F4" opacity="0.27"/><rect x="1953" y="821" width="16" height="18" fill="#F7F7F4" opacity="0.44"/><rect x="1953" y="860" width="16" height="18" fill="#F7F7F4" opacity="0.12"/><rect x="1953" y="898" width="16" height="18" fill="#F7F7F4" opacity="0.50"/><rect x="1953" y="937" width="16" height="18" fill="#F7F7F4" opacity="0.53"/><rect x="1953" y="1014" width="16" height="18" fill="#F7F7F4" opacity="0.27"/><rect x="1953" y="1091" width="16" height="18" fill="#F7F7F4" opacity="0.30"/><rect x="1953" y="1168" width="16" height="18" fill="#F7F7F4" opacity="0.24"/><rect x="1982" y="552" width="16" height="18" fill="#F7F7F4" opacity="0.19"/><rect x="1982" y="590" width="16" height="18" fill="#F7F7F4" opacity="0.43"/><rect x="1982" y="667" width="16" height="18" fill="#F7F7F4" opacity="0.11"/><rect x="1982" y="706" width="16" height="18" fill="#F7F7F4" opacity="0.24"/><rect x="1982" y="744" width="16" height="18" fill="#F7F7F4" opacity="0.23"/><rect x="1982" y="821" width="16" height="18" fill="#F7F7F4" opacity="0.49"/><rect x="1982" y="898" width="16" height="18" fill="#F7F7F4" opacity="0.40"/><rect x="1982" y="937" width="16" height="18" fill="#F7F7F4" opacity="0.37"/><rect x="1982" y="975" width="16" height="18" fill="#F7F7F4" opacity="0.14"/><rect x="1982" y="1014" width="16" height="18" fill="#F7F7F4" opacity="0.28"/><rect x="1982" y="1091" width="16" height="18" fill="#F7F7F4" opacity="0.28"/><rect x="1982" y="1129" width="16" height="18" fill="#F7F7F4" opacity="0.11"/><rect y="1104" width="2000" height="96" fill="#06111F" opacity=".5"/><filter id="g"><feTurbulence type="fractalNoise" baseFrequency="0.9" numOctaves="2"/><feColorMatrix type="saturate" values="0"/></filter><rect width="2000" height="1200" filter="url(#g)" opacity=".045"/><radialGradient id="v" cx="50%" cy="45%" r="78%"><stop offset="55%" stop-color="#000" stop-opacity="0"/><stop offset="100%" stop-color="#000" stop-opacity=".42"/></radialGradient><rect width="2000" height="1200" fill="url(#v)"/></svg>