<svg xmlns="http://www.w3.org/2000/svg" viewBox="0 0 1200 900" width="1200" height="900" role="img" aria-labelledby="t d" preserveAspectRatio="xMidYMid slice"><title id="t">Placeholder image for marketing chapter 6</title><desc id="d">Generated placeholder graphic. Not a photograph. Replace with real photography before launch.</desc><rect width="1200" height="900" fill="#06111F"/><rect x="-1" y="389" width="100" height="511" fill="#12294a"/><rect x="6" y="409" width="19" height="18" fill="#F7F7F4" opacity="0.33"/><rect x="6" y="600" width="19" height="18" fill="#F7F7F4" opacity="0.34"/><rect x="6" y="638" width="19" height="18" fill="#F7F7F4" opacity="0.21"/><rect x="6" y="715" width="19" height="18" fill="#F7F7F4" opacity="0.44"/><rect x="6" y="753" width="19" height="18" fill="#F7F7F4" opacity="0.18"/><rect x="6" y="868" width="19" height="18" fill="#F7F7F4" opacity="0.45"/><rect x="40" y="447" width="19" height="18" fill="#F7F7F4" opacity="0.44"/><rect x="40" y="562" width="19" height="18" fill="#F7F7F4" opacity="0.29"/><rect x="40" y="638" width="19" height="18" fill="#F7F7F4" opacity="0.51"/><rect x="40" y="677" width="19" height="18" fill="#F7F7F4" opacity="0.49"/><rect x="40" y="715" width="19" height="18" fill="#F7F7F4" opacity="0.45"/><rect x="40" y="753" width="19" height="18" fill="#F7F7F4" opacity="0.15"/><rect x="40" y="829" width="19" height="18" fill="#F7F7F4" opacity="0.25"/><rect x="73" y="409" width="19" height="18" fill="#F7F7F4" opacity="0.14"/><rect x="73" y="485" width="19" height="18" fill="#F7F7F4" opacity="0.31"/><rect x="73" y="562" width="19" height="18" fill="#F7F7F4" opacity="0.46"/><rect x="73" y="600" width="19" height="18" fill="#F7F7F4" opacity="0.41"/><rect x="73" y="753" width="19" height="18" fill="#F7F7F4" opacity="0.35"/><rect x="73" y="791" width="19" height="18" fill="#F7F7F4" opacity="0.51"/><rect x="73" y="868" width="19" height="18" fill="#F7F7F4" opacity="0.34"/><rect x="121" y="341" width="118" height="559" fill="#07182D"/><rect x="127" y="362" width="17" height="19" fill="#F7F7F4" opacity="0.19"/><rect x="127" y="478" width="17" height="19" fill="#F7F7F4" opacity="0.10"/><rect x="127" y="517" width="17" height="19" fill="#F7F7F4" opacity="0.17"/><rect x="127" y="556" width="17" height="19" fill="#F7F7F4" opacity="0.35"/><rect x="127" y="595" width="17" height="19" fill="#F7F7F4" opacity="0.42"/><rect x="127" y="634" width="17" height="19" fill="#F7F7F4" opacity="0.29"/><rect x="127" y="712" width="17" height="19" fill="#F7F7F4" opacity="0.54"/><rect x="127" y="751" width="17" height="19" fill="#F7F7F4" opacity="0.54"/><rect x="127" y="789" width="17" height="19" fill="#F7F7F4" opacity="0.16"/><rect x="127" y="828" width="17" height="19" fill="#F7F7F4" opacity="0.45"/><rect x="127" y="867" width="17" height="19" fill="#F7F7F4" opacity="0.50"/><rect x="157" y="400" width="17" height="19" fill="#F7F7F4" opacity="0.37"/><rect x="157" y="439" width="17" height="19" fill="#F7F7F4" opacity="0.37"/><rect x="157" y="478" width="17" height="19" fill="#F7F7F4" opacity="0.38"/><rect x="157" y="517" width="17" height="19" fill="#F7F7F4" opacity="0.35"/><rect x="157" y="556" width="17" height="19" fill="#F7F7F4" opacity="0.30"/><rect x="157" y="595" width="17" height="19" fill="#F7F7F4" opacity="0.21"/><rect x="157" y="634" width="17" height="19" fill="#F7F7F4" opacity="0.52"/><rect x="157" y="789" width="17" height="19" fill="#F7F7F4" opacity="0.28"/><rect x="157" y="828" width="17" height="19" fill="#F7F7F4" opacity="0.43"/><rect x="186" y="400" width="17" height="19" fill="#F7F7F4" opacity="0.30"/><rect x="186" y="439" width="17" height="19" fill="#F7F7F4" opacity="0.40"/><rect x="186" y="478" width="17" height="19" fill="#F7F7F4" opacity="0.44"/><rect x="186" y="517" width="17" height="19" fill="#F7F7F4" opacity="0.41"/><rect x="186" y="556" width="17" height="19" fill="#F7F7F4" opacity="0.37"/><rect x="186" y="595" width="17" height="19" fill="#F7F7F4" opacity="0.32"/><rect x="186" y="634" width="17" height="19" fill="#F7F7F4" opacity="0.34"/><rect x="186" y="673" width="17" height="19" fill="#F7F7F4" opacity="0.42"/><rect x="186" y="712" width="17" height="19" fill="#F7F7F4" opacity="0.31"/><rect x="186" y="751" width="17" height="19" fill="#F7F7F4" opacity="0.10"/><rect x="186" y="828" width="17" height="19" fill="#F7F7F4" opacity="0.25"/><rect x="186" y="867" width="17" height="19" fill="#F7F7F4" opacity="0.49"/><rect x="216" y="362" width="17" height="19" fill="#F7F7F4" opacity="0.37"/><rect x="216" y="400" width="17" height="19" fill="#F7F7F4" opacity="0.33"/><rect x="216" y="556" width="17" height="19" fill="#F7F7F4" opacity="0.27"/><rect x="216" y="789" width="17" height="19" fill="#F7F7F4" opacity="0.18"/><rect x="216" y="828" width="17" height="19" fill="#F7F7F4" opacity="0.36"/><rect x="216" y="867" width="17" height="19" fill="#F7F7F4" opacity="0.16"/><rect x="241" y="165" width="122" height="735" fill="#07182D"/><rect x="247" y="185" width="18" height="18" fill="#F7F7F4" opacity="0.24"/><rect x="247" y="223" width="18" height="18" fill="#F7F7F4" opacity="0.31"/><rect x="247" y="261" width="18" height="18" fill="#F7F7F4" opacity="0.36"/><rect x="247" y="299" width="18" height="18" fill="#F7F7F4" opacity="0.21"/><rect x="247" y="375" width="18" height="18" fill="#F7F7F4" opacity="0.12"/><rect x="247" y="412" width="18" height="18" fill="#F7F7F4" opacity="0.49"/><rect x="247" y="526" width="18" height="18" fill="#F7F7F4" opacity="0.24"/><rect x="247" y="564" width="18" height="18" fill="#F7F7F4" opacity="0.51"/><rect x="247" y="602" width="18" height="18" fill="#F7F7F4" opacity="0.16"/><rect x="247" y="640" width="18" height="18" fill="#F7F7F4" opacity="0.44"/><rect x="247" y="678" width="18" height="18" fill="#F7F7F4" opacity="0.38"/><rect x="247" y="716" width="18" height="18" fill="#F7F7F4" opacity="0.53"/><rect x="247" y="792" width="18" height="18" fill="#F7F7F4" opacity="0.25"/><rect x="247" y="830" width="18" height="18" fill="#F7F7F4" opacity="0.28"/><rect x="247" y="868" width="18" height="18" fill="#F7F7F4" opacity="0.28"/><rect x="278" y="185" width="18" height="18" fill="#F7F7F4" opacity="0.11"/><rect x="278" y="261" width="18" height="18" fill="#F7F7F4" opacity="0.12"/><rect x="278" y="375" width="18" height="18" fill="#F7F7F4" opacity="0.24"/><rect x="278" y="450" width="18" height="18" fill="#F7F7F4" opacity="0.24"/><rect x="278" y="488" width="18" height="18" fill="#F7F7F4" opacity="0.12"/><rect x="278" y="526" width="18" height="18" fill="#F7F7F4" opacity="0.16"/><rect x="278" y="564" width="18" height="18" fill="#F7F7F4" opacity="0.43"/><rect x="278" y="640" width="18" height="18" fill="#F7F7F4" opacity="0.54"/><rect x="278" y="678" width="18" height="18" fill="#F7F7F4" opacity="0.25"/><rect x="278" y="754" width="18" height="18" fill="#F7F7F4" opacity="0.30"/><rect x="278" y="830" width="18" height="18" fill="#F7F7F4" opacity="0.50"/><rect x="308" y="223" width="18" height="18" fill="#F7F7F4" opacity="0.29"/><rect x="308" y="261" width="18" height="18" fill="#F7F7F4" opacity="0.44"/><rect x="308" y="299" width="18" height="18" fill="#F7F7F4" opacity="0.20"/><rect x="308" y="337" width="18" height="18" fill="#F7F7F4" opacity="0.54"/><rect x="308" y="375" width="18" height="18" fill="#F7F7F4" opacity="0.53"/><rect x="308" y="450" width="18" height="18" fill="#F7F7F4" opacity="0.15"/><rect x="308" y="564" width="18" height="18" fill="#F7F7F4" opacity="0.30"/><rect x="308" y="640" width="18" height="18" fill="#F7F7F4" opacity="0.21"/><rect x="308" y="678" width="18" height="18" fill="#F7F7F4" opacity="0.42"/><rect x="308" y="754" width="18" height="18" fill="#F7F7F4" opacity="0.34"/><rect x="339" y="185" width="18" height="18" fill="#F7F7F4" opacity="0.50"/><rect x="339" y="299" width="18" height="18" fill="#F7F7F4" opacity="0.51"/><rect x="339" y="337" width="18" height="18" fill="#F7F7F4" opacity="0.22"/><rect x="339" y="375" width="18" height="18" fill="#F7F7F4" opacity="0.50"/><rect x="339" y="754" width="18" height="18" fill="#F7F7F4" opacity="0.52"/><rect x="339" y="830" width="18" height="18" fill="#F7F7F4" opacity="0.50"/><rect x="360" y="510" width="100" height="390" fill="#07182D"/><rect x="367" y="568" width="19" height="18" fill="#F7F7F4" opacity="0.12"/><rect x="367" y="643" width="19" height="18" fill="#F7F7F4" opacity="0.14"/><rect x="367" y="680" width="19" height="18" fill="#F7F7F4" opacity="0.36"/><rect x="367" y="793" width="19" height="18" fill="#F7F7F4" opacity="0.17"/><rect x="367" y="831" width="19" height="18" fill="#F7F7F4" opacity="0.13"/><rect x="401" y="530" width="19" height="18" fill="#F7F7F4" opacity="0.55"/><rect x="401" y="568" width="19" height="18" fill="#F7F7F4" opacity="0.54"/><rect x="401" y="643" width="19" height="18" fill="#F7F7F4" opacity="0.31"/><rect x="401" y="756" width="19" height="18" fill="#F7F7F4" opacity="0.12"/><rect x="401" y="831" width="19" height="18" fill="#F7F7F4" opacity="0.53"/><rect x="401" y="868" width="19" height="18" fill="#F7F7F4" opacity="0.17"/><rect x="434" y="605" width="19" height="18" fill="#F7F7F4" opacity="0.17"/><rect x="434" y="643" width="19" height="18" fill="#F7F7F4" opacity="0.37"/><rect x="434" y="680" width="19" height="18" fill="#F7F7F4" opacity="0.18"/><rect x="434" y="718" width="19" height="18" fill="#F7F7F4" opacity="0.49"/><rect x="434" y="756" width="19" height="18" fill="#F7F7F4" opacity="0.13"/><rect x="434" y="831" width="19" height="18" fill="#F7F7F4" opacity="0.39"/><rect x="481" y="526" width="111" height="374" fill="#12294a"/><rect x="487" y="586" width="16" height="19" fill="#F7F7F4" opacity="0.28"/><rect x="487" y="666" width="16" height="19" fill="#F7F7F4" opacity="0.21"/><rect x="487" y="706" width="16" height="19" fill="#F7F7F4" opacity="0.13"/><rect x="487" y="786" width="16" height="19" fill="#F7F7F4" opacity="0.53"/><rect x="487" y="826" width="16" height="19" fill="#F7F7F4" opacity="0.43"/><rect x="487" y="866" width="16" height="19" fill="#F7F7F4" opacity="0.33"/><rect x="515" y="586" width="16" height="19" fill="#F7F7F4" opacity="0.17"/><rect x="515" y="666" width="16" height="19" fill="#F7F7F4" opacity="0.30"/><rect x="515" y="706" width="16" height="19" fill="#F7F7F4" opacity="0.21"/><rect x="515" y="746" width="16" height="19" fill="#F7F7F4" opacity="0.39"/><rect x="515" y="786" width="16" height="19" fill="#F7F7F4" opacity="0.37"/><rect x="515" y="826" width="16" height="19" fill="#F7F7F4" opacity="0.43"/><rect x="542" y="586" width="16" height="19" fill="#F7F7F4" opacity="0.51"/><rect x="542" y="626" width="16" height="19" fill="#F7F7F4" opacity="0.42"/><rect x="542" y="666" width="16" height="19" fill="#F7F7F4" opacity="0.21"/><rect x="542" y="706" width="16" height="19" fill="#F7F7F4" opacity="0.13"/><rect x="542" y="746" width="16" height="19" fill="#F7F7F4" opacity="0.39"/><rect x="542" y="866" width="16" height="19" fill="#F7F7F4" opacity="0.25"/><rect x="570" y="546" width="16" height="19" fill="#F7F7F4" opacity="0.31"/><rect x="570" y="586" width="16" height="19" fill="#F7F7F4" opacity="0.12"/><rect x="570" y="626" width="16" height="19" fill="#F7F7F4" opacity="0.15"/><rect x="570" y="786" width="16" height="19" fill="#F7F7F4" opacity="0.44"/><rect x="570" y="826" width="16" height="19" fill="#F7F7F4" opacity="0.24"/><rect x="601" y="594" width="99" height="306" fill="#1b3a63"/><rect x="608" y="613" width="19" height="18" fill="#F7F7F4" opacity="0.10"/><rect x="608" y="650" width="19" height="18" fill="#F7F7F4" opacity="0.33"/><rect x="608" y="686" width="19" height="18" fill="#F7F7F4" opacity="0.53"/><rect x="608" y="723" width="19" height="18" fill="#F7F7F4" opacity="0.28"/><rect x="608" y="759" width="19" height="18" fill="#F7F7F4" opacity="0.51"/><rect x="608" y="796" width="19" height="18" fill="#F7F7F4" opacity="0.28"/><rect x="641" y="613" width="19" height="18" fill="#F7F7F4" opacity="0.53"/><rect x="641" y="650" width="19" height="18" fill="#F7F7F4" opacity="0.54"/><rect x="641" y="686" width="19" height="18" fill="#F7F7F4" opacity="0.33"/><rect x="641" y="796" width="19" height="18" fill="#F7F7F4" opacity="0.38"/><rect x="674" y="613" width="19" height="18" fill="#F7F7F4" opacity="0.29"/><rect x="674" y="650" width="19" height="18" fill="#F7F7F4" opacity="0.53"/><rect x="674" y="686" width="19" height="18" fill="#F7F7F4" opacity="0.51"/><rect x="674" y="796" width="19" height="18" fill="#F7F7F4" opacity="0.29"/><rect x="674" y="832" width="19" height="18" fill="#F7F7F4" opacity="0.37"/><rect x="721" y="360" width="116" height="540" fill="#07182D"/><rect x="727" y="493" width="17" height="18" fill="#F7F7F4" opacity="0.21"/><rect x="727" y="568" width="17" height="18" fill="#F7F7F4" opacity="0.54"/><rect x="727" y="605" width="17" height="18" fill="#F7F7F4" opacity="0.21"/><rect x="727" y="756" width="17" height="18" fill="#F7F7F4" opacity="0.50"/><rect x="727" y="793" width="17" height="18" fill="#F7F7F4" opacity="0.23"/><rect x="727" y="831" width="17" height="18" fill="#F7F7F4" opacity="0.55"/><rect x="727" y="868" width="17" height="18" fill="#F7F7F4" opacity="0.43"/><rect x="756" y="380" width="17" height="18" fill="#F7F7F4" opacity="0.38"/><rect x="756" y="418" width="17" height="18" fill="#F7F7F4" opacity="0.34"/><rect x="756" y="455" width="17" height="18" fill="#F7F7F4" opacity="0.35"/><rect x="756" y="493" width="17" height="18" fill="#F7F7F4" opacity="0.28"/><rect x="756" y="568" width="17" height="18" fill="#F7F7F4" opacity="0.13"/><rect x="756" y="605" width="17" height="18" fill="#F7F7F4" opacity="0.15"/><rect x="756" y="643" width="17" height="18" fill="#F7F7F4" opacity="0.26"/><rect x="756" y="681" width="17" height="18" fill="#F7F7F4" opacity="0.38"/><rect x="756" y="718" width="17" height="18" fill="#F7F7F4" opacity="0.47"/><rect x="756" y="756" width="17" height="18" fill="#F7F7F4" opacity="0.53"/><rect x="756" y="793" width="17" height="18" fill="#F7F7F4" opacity="0.28"/><rect x="756" y="831" width="17" height="18" fill="#F7F7F4" opacity="0.23"/><rect x="785" y="455" width="17" height="18" fill="#F7F7F4" opacity="0.23"/><rect x="785" y="493" width="17" height="18" fill="#F7F7F4" opacity="0.34"/><rect x="785" y="568" width="17" height="18" fill="#F7F7F4" opacity="0.49"/><rect x="785" y="643" width="17" height="18" fill="#F7F7F4" opacity="0.22"/><rect x="785" y="718" width="17" height="18" fill="#F7F7F4" opacity="0.28"/><rect x="785" y="793" width="17" height="18" fill="#F7F7F4" opacity="0.47"/><rect x="785" y="868" width="17" height="18" fill="#F7F7F4" opacity="0.54"/><rect x="814" y="418" width="17" height="18" fill="#F7F7F4" opacity="0.33"/><rect x="814" y="493" width="17" height="18" fill="#F7F7F4" opacity="0.38"/><rect x="814" y="530" width="17" height="18" fill="#F7F7F4" opacity="0.49"/><rect x="814" y="605" width="17" height="18" fill="#F7F7F4" opacity="0.19"/><rect x="814" y="643" width="17" height="18" fill="#F7F7F4" opacity="0.39"/><rect x="814" y="681" width="17" height="18" fill="#F7F7F4" opacity="0.39"/><rect x="814" y="756" width="17" height="18" fill="#F7F7F4" opacity="0.52"/><rect x="814" y="793" width="17" height="18" fill="#F7F7F4" opacity="0.44"/><rect x="814" y="831" width="17" height="18" fill="#F7F7F4" opacity="0.28"/><rect x="814" y="868" width="17" height="18" fill="#F7F7F4" opacity="0.51"/><rect x="838" y="552" width="117" height="348" fill="#07182D"/><rect x="844" y="683" width="17" height="18" fill="#F7F7F4" opacity="0.31"/><rect x="844" y="720" width="17" height="18" fill="#F7F7F4" opacity="0.53"/><rect x="844" y="831" width="17" height="18" fill="#F7F7F4" opacity="0.55"/><rect x="873" y="572" width="17" height="18" fill="#F7F7F4" opacity="0.38"/><rect x="873" y="609" width="17" height="18" fill="#F7F7F4" opacity="0.37"/><rect x="873" y="646" width="17" height="18" fill="#F7F7F4" opacity="0.20"/><rect x="873" y="757" width="17" height="18" fill="#F7F7F4" opacity="0.44"/><rect x="873" y="794" width="17" height="18" fill="#F7F7F4" opacity="0.30"/><rect x="873" y="831" width="17" height="18" fill="#F7F7F4" opacity="0.43"/><rect x="873" y="869" width="17" height="18" fill="#F7F7F4" opacity="0.53"/><rect x="903" y="572" width="17" height="18" fill="#F7F7F4" opacity="0.31"/><rect x="903" y="683" width="17" height="18" fill="#F7F7F4" opacity="0.28"/><rect x="903" y="720" width="17" height="18" fill="#F7F7F4" opacity="0.31"/><rect x="903" y="869" width="17" height="18" fill="#F7F7F4" opacity="0.37"/><rect x="932" y="572" width="17" height="18" fill="#F7F7F4" opacity="0.20"/><rect x="932" y="609" width="17" height="18" fill="#F7F7F4" opacity="0.45"/><rect x="932" y="646" width="17" height="18" fill="#F7F7F4" opacity="0.27"/><rect x="932" y="683" width="17" height="18" fill="#F7F7F4" opacity="0.55"/><rect x="932" y="757" width="17" height="18" fill="#F7F7F4" opacity="0.30"/><rect x="932" y="794" width="17" height="18" fill="#F7F7F4" opacity="0.45"/><rect x="932" y="831" width="17" height="18" fill="#F7F7F4" opacity="0.46"/><rect x="932" y="869" width="17" height="18" fill="#F7F7F4" opacity="0.22"/><rect x="959" y="611" width="111" height="289" fill="#07182D"/><rect x="965" y="631" width="16" height="19" fill="#F7F7F4" opacity="0.29"/><rect x="965" y="671" width="16" height="19" fill="#F7F7F4" opacity="0.38"/><rect x="965" y="710" width="16" height="19" fill="#F7F7F4" opacity="0.35"/><rect x="965" y="749" width="16" height="19" fill="#F7F7F4" opacity="0.14"/><rect x="993" y="631" width="16" height="19" fill="#F7F7F4" opacity="0.27"/><rect x="993" y="788" width="16" height="19" fill="#F7F7F4" opacity="0.53"/><rect x="993" y="828" width="16" height="19" fill="#F7F7F4" opacity="0.13"/><rect x="1020" y="631" width="16" height="19" fill="#F7F7F4" opacity="0.52"/><rect x="1020" y="671" width="16" height="19" fill="#F7F7F4" opacity="0.50"/><rect x="1020" y="710" width="16" height="19" fill="#F7F7F4" opacity="0.41"/><rect x="1020" y="749" width="16" height="19" fill="#F7F7F4" opacity="0.42"/><rect x="1020" y="788" width="16" height="19" fill="#F7F7F4" opacity="0.17"/><rect x="1020" y="828" width="16" height="19" fill="#F7F7F4" opacity="0.44"/><rect x="1048" y="631" width="16" height="19" fill="#F7F7F4" opacity="0.19"/><rect x="1048" y="671" width="16" height="19" fill="#F7F7F4" opacity="0.23"/><rect x="1048" y="749" width="16" height="19" fill="#F7F7F4" opacity="0.12"/><rect x="1048" y="867" width="16" height="19" fill="#F7F7F4" opacity="0.32"/><rect x="1080" y="212" width="105" height="688" fill="#1b3a63"/><rect x="1085" y="269" width="15" height="18" fill="#F7F7F4" opacity="0.53"/><rect x="1085" y="419" width="15" height="18" fill="#F7F7F4" opacity="0.23"/><rect x="1085" y="457" width="15" height="18" fill="#F7F7F4" opacity="0.27"/><rect x="1085" y="644" width="15" height="18" fill="#F7F7F4" opacity="0.40"/><rect x="1085" y="681" width="15" height="18" fill="#F7F7F4" opacity="0.51"/><rect x="1085" y="756" width="15" height="18" fill="#F7F7F4" opacity="0.44"/><rect x="1085" y="793" width="15" height="18" fill="#F7F7F4" opacity="0.55"/><rect x="1111" y="232" width="15" height="18" fill="#F7F7F4" opacity="0.50"/><rect x="1111" y="269" width="15" height="18" fill="#F7F7F4" opacity="0.50"/><rect x="1111" y="494" width="15" height="18" fill="#F7F7F4" opacity="0.42"/><rect x="1111" y="569" width="15" height="18" fill="#F7F7F4" opacity="0.38"/><rect x="1111" y="606" width="15" height="18" fill="#F7F7F4" opacity="0.20"/><rect x="1111" y="681" width="15" height="18" fill="#F7F7F4" opacity="0.36"/><rect x="1111" y="793" width="15" height="18" fill="#F7F7F4" opacity="0.33"/><rect x="1111" y="868" width="15" height="18" fill="#F7F7F4" opacity="0.12"/><rect x="1138" y="269" width="15" height="18" fill="#F7F7F4" opacity="0.50"/><rect x="1138" y="382" width="15" height="18" fill="#F7F7F4" opacity="0.45"/><rect x="1138" y="419" width="15" height="18" fill="#F7F7F4" opacity="0.20"/><rect x="1138" y="457" width="15" height="18" fill="#F7F7F4" opacity="0.47"/><rect x="1138" y="494" width="15" height="18" fill="#F7F7F4" opacity="0.38"/><rect x="1138" y="531" width="15" height="18" fill="#F7F7F4" opacity="0.49"/><rect x="1138" y="606" width="15" height="18" fill="#F7F7F4" opacity="0.51"/><rect x="1138" y="644" width="15" height="18" fill="#F7F7F4" opacity="0.50"/><rect x="1138" y="793" width="15" height="18" fill="#F7F7F4" opacity="0.43"/><rect x="1138" y="831" width="15" height="18" fill="#F7F7F4" opacity="0.53"/><rect x="1138" y="868" width="15" height="18" fill="#F7F7F4" opacity="0.42"/><rect x="1164" y="457" width="15" height="18" fill="#F7F7F4" opacity="0.12"/><rect x="1164" y="531" width="15" height="18" fill="#F7F7F4" opacity="0.37"/><rect x="1164" y="569" width="15" height="18" fill="#F7F7F4" opacity="0.44"/><rect x="1164" y="719" width="15" height="18" fill="#F7F7F4" opacity="0.28"/><rect x="1164" y="756" width="15" height="18" fill="#F7F7F4" opacity="0.49"/><rect x="1164" y="831" width="15" height="18" fill="#F7F7F4" opacity="0.51"/><rect x="1164" y="868" width="15" height="18" fill="#F7F7F4" opacity="0.32"/><rect y="828" width="1200" height="72" fill="#06111F" opacity=".5"/><filter id="g"><feTurbulence type="fractalNoise" baseFrequency="0.9" numOctaves="2"/><feColorMatrix type="saturate" values="0"/></filter><rect width="1200" height="900" filter="url(#g)" opacity=".045"/><radialGradient id="v" cx="50%" cy="45%" r="78%"><stop offset="55%" stop-color="#000" stop-opacity="0"/><stop offset="100%" stop-color="#000" stop-opacity=".42"/></radialGradient><rect width="1200" height="900" fill="url(#v)"/></svg>