<svg xmlns="http://www.w3.org/2000/svg" viewBox="0 0 1200 800" width="1200" height="800" role="img" aria-labelledby="t d" preserveAspectRatio="xMidYMid slice"><title id="t">Placeholder gallery image 3 for demo listing DEMO-1010</title><desc id="d">Generated placeholder graphic. Not a photograph. Replace with real photography before launch.</desc><rect width="1200" height="800" fill="#07182D"/><rect y="448" width="1200" height="352" fill="#06111F"/><polygon points="-10,205 114,114 238,205" fill="#12294a"/><rect x="3" y="205" width="222" height="244" fill="#12294a"/><rect x="26" y="218" width="64" height="12" fill="#F7F7F4" opacity="0.47"/><rect x="26" y="270" width="64" height="12" fill="#F7F7F4" opacity="0.30"/><rect x="26" y="425" width="64" height="12" fill="#F7F7F4" opacity="0.21"/><rect x="137" y="244" width="64" height="12" fill="#F7F7F4" opacity="0.17"/><rect x="137" y="321" width="64" height="12" fill="#F7F7F4" opacity="0.18"/><rect x="137" y="373" width="64" height="12" fill="#F7F7F4" opacity="0.40"/><rect x="137" y="399" width="64" height="12" fill="#F7F7F4" opacity="0.15"/><rect x="137" y="425" width="64" height="12" fill="#F7F7F4" opacity="0.15"/><polygon points="225,192 352,92 480,192" fill="#12294a"/><rect x="238" y="192" width="228" height="256" fill="#12294a"/><rect x="262" y="205" width="66" height="13" fill="#F7F7F4" opacity="0.17"/><rect x="262" y="232" width="66" height="13" fill="#F7F7F4" opacity="0.28"/><rect x="262" y="287" width="66" height="13" fill="#F7F7F4" opacity="0.36"/><rect x="262" y="342" width="66" height="13" fill="#F7F7F4" opacity="0.49"/><rect x="262" y="369" width="66" height="13" fill="#F7F7F4" opacity="0.35"/><rect x="262" y="397" width="66" height="13" fill="#F7F7F4" opacity="0.20"/><rect x="262" y="424" width="66" height="13" fill="#F7F7F4" opacity="0.47"/><rect x="376" y="232" width="66" height="13" fill="#F7F7F4" opacity="0.33"/><rect x="376" y="260" width="66" height="13" fill="#F7F7F4" opacity="0.25"/><rect x="376" y="287" width="66" height="13" fill="#F7F7F4" opacity="0.26"/><rect x="376" y="342" width="66" height="13" fill="#F7F7F4" opacity="0.38"/><rect x="376" y="397" width="66" height="13" fill="#F7F7F4" opacity="0.46"/><rect x="376" y="424" width="66" height="13" fill="#F7F7F4" opacity="0.50"/><polygon points="465,182 581,84 697,182" fill="#12294a"/><rect x="478" y="182" width="206" height="266" fill="#12294a"/><rect x="499" y="195" width="60" height="12" fill="#F7F7F4" opacity="0.33"/><rect x="499" y="297" width="60" height="12" fill="#F7F7F4" opacity="0.35"/><rect x="499" y="323" width="60" height="12" fill="#F7F7F4" opacity="0.22"/><rect x="499" y="348" width="60" height="12" fill="#F7F7F4" opacity="0.37"/><rect x="499" y="374" width="60" height="12" fill="#F7F7F4" opacity="0.50"/><rect x="499" y="425" width="60" height="12" fill="#F7F7F4" opacity="0.22"/><rect x="603" y="195" width="60" height="12" fill="#F7F7F4" opacity="0.35"/><rect x="603" y="220" width="60" height="12" fill="#F7F7F4" opacity="0.20"/><rect x="603" y="271" width="60" height="12" fill="#F7F7F4" opacity="0.35"/><rect x="603" y="297" width="60" height="12" fill="#F7F7F4" opacity="0.45"/><rect x="603" y="348" width="60" height="12" fill="#F7F7F4" opacity="0.43"/><rect x="603" y="374" width="60" height="12" fill="#F7F7F4" opacity="0.18"/><polygon points="710,220 828,130 946,220" fill="#12294a"/><rect x="722" y="220" width="211" height="228" fill="#12294a"/><rect x="744" y="233" width="61" height="13" fill="#F7F7F4" opacity="0.37"/><rect x="744" y="261" width="61" height="13" fill="#F7F7F4" opacity="0.37"/><rect x="744" y="288" width="61" height="13" fill="#F7F7F4" opacity="0.48"/><rect x="744" y="342" width="61" height="13" fill="#F7F7F4" opacity="0.34"/><rect x="744" y="397" width="61" height="13" fill="#F7F7F4" opacity="0.32"/><rect x="850" y="233" width="61" height="13" fill="#F7F7F4" opacity="0.49"/><rect x="850" y="315" width="61" height="13" fill="#F7F7F4" opacity="0.47"/><rect x="850" y="342" width="61" height="13" fill="#F7F7F4" opacity="0.50"/><rect x="850" y="370" width="61" height="13" fill="#F7F7F4" opacity="0.15"/><rect x="850" y="397" width="61" height="13" fill="#F7F7F4" opacity="0.50"/><rect x="850" y="424" width="61" height="13" fill="#F7F7F4" opacity="0.26"/><polygon points="945,219 1063,131 1181,219" fill="#1b3a63"/><rect x="957" y="219" width="211" height="229" fill="#1b3a63"/><rect x="979" y="287" width="61" height="13" fill="#F7F7F4" opacity="0.44"/><rect x="979" y="315" width="61" height="13" fill="#F7F7F4" opacity="0.39"/><rect x="979" y="342" width="61" height="13" fill="#F7F7F4" opacity="0.26"/><rect x="979" y="369" width="61" height="13" fill="#F7F7F4" opacity="0.24"/><rect x="979" y="397" width="61" height="13" fill="#F7F7F4" opacity="0.28"/><rect x="979" y="424" width="61" height="13" fill="#F7F7F4" opacity="0.49"/><rect x="1085" y="287" width="61" height="13" fill="#F7F7F4" opacity="0.19"/><rect x="1085" y="315" width="61" height="13" fill="#F7F7F4" opacity="0.42"/><rect x="1085" y="342" width="61" height="13" fill="#F7F7F4" opacity="0.41"/><rect x="1085" y="424" width="61" height="13" fill="#F7F7F4" opacity="0.46"/><line x1="0" y1="448" x2="1200" y2="448" stroke="#22456f" stroke-width="1" opacity=".55"/><filter id="g"><feTurbulence type="fractalNoise" baseFrequency="0.9" numOctaves="2"/><feColorMatrix type="saturate" values="0"/></filter><rect width="1200" height="800" filter="url(#g)" opacity=".045"/><radialGradient id="v" cx="50%" cy="45%" r="78%"><stop offset="55%" stop-color="#000" stop-opacity="0"/><stop offset="100%" stop-color="#000" stop-opacity=".42"/></radialGradient><rect width="1200" height="800" fill="url(#v)"/></svg>