<svg xmlns="http://www.w3.org/2000/svg" viewBox="0 0 1200 800" width="1200" height="800" role="img" aria-labelledby="t d" preserveAspectRatio="xMidYMid slice"><title id="t">Placeholder gallery image 3 for demo listing DEMO-1022</title><desc id="d">Generated placeholder graphic. Not a photograph. Replace with real photography before launch.</desc><rect width="1200" height="800" fill="#07182D"/><rect y="464" width="1200" height="336" fill="#06111F"/><polygon points="-17,248 131,155 280,248" fill="#16335a"/><rect x="-2" y="248" width="265" height="216" fill="#16335a"/><rect x="26" y="261" width="77" height="12" fill="#F7F7F4" opacity="0.42"/><rect x="26" y="287" width="77" height="12" fill="#F7F7F4" opacity="0.38"/><rect x="26" y="364" width="77" height="12" fill="#F7F7F4" opacity="0.40"/><rect x="26" y="390" width="77" height="12" fill="#F7F7F4" opacity="0.37"/><rect x="159" y="287" width="77" height="12" fill="#F7F7F4" opacity="0.20"/><rect x="159" y="338" width="77" height="12" fill="#F7F7F4" opacity="0.17"/><rect x="159" y="364" width="77" height="12" fill="#F7F7F4" opacity="0.38"/><rect x="159" y="390" width="77" height="12" fill="#F7F7F4" opacity="0.29"/><rect x="159" y="415" width="77" height="12" fill="#F7F7F4" opacity="0.50"/><rect x="159" y="441" width="77" height="12" fill="#F7F7F4" opacity="0.18"/><polygon points="286,255 443,176 601,255" fill="#16335a"/><rect x="303" y="255" width="281" height="209" fill="#16335a"/><rect x="332" y="292" width="82" height="12" fill="#F7F7F4" opacity="0.48"/><rect x="332" y="317" width="82" height="12" fill="#F7F7F4" opacity="0.37"/><rect x="332" y="342" width="82" height="12" fill="#F7F7F4" opacity="0.45"/><rect x="332" y="367" width="82" height="12" fill="#F7F7F4" opacity="0.45"/><rect x="332" y="392" width="82" height="12" fill="#F7F7F4" opacity="0.40"/><rect x="332" y="417" width="82" height="12" fill="#F7F7F4" opacity="0.42"/><rect x="473" y="268" width="82" height="12" fill="#F7F7F4" opacity="0.42"/><rect x="473" y="317" width="82" height="12" fill="#F7F7F4" opacity="0.31"/><rect x="473" y="342" width="82" height="12" fill="#F7F7F4" opacity="0.33"/><rect x="473" y="417" width="82" height="12" fill="#F7F7F4" opacity="0.48"/><rect x="473" y="442" width="82" height="12" fill="#F7F7F4" opacity="0.22"/><polygon points="583,282 716,217 849,282" fill="#1b3a63"/><rect x="597" y="282" width="238" height="182" fill="#1b3a63"/><rect x="622" y="295" width="69" height="12" fill="#F7F7F4" opacity="0.41"/><rect x="741" y="295" width="69" height="12" fill="#F7F7F4" opacity="0.16"/><rect x="741" y="344" width="69" height="12" fill="#F7F7F4" opacity="0.26"/><rect x="741" y="368" width="69" height="12" fill="#F7F7F4" opacity="0.18"/><rect x="741" y="393" width="69" height="12" fill="#F7F7F4" opacity="0.15"/><rect x="741" y="417" width="69" height="12" fill="#F7F7F4" opacity="0.15"/><polygon points="885,243 1023,157 1160,243" fill="#16335a"/><rect x="900" y="243" width="245" height="221" fill="#16335a"/><rect x="926" y="309" width="71" height="13" fill="#F7F7F4" opacity="0.21"/><rect x="926" y="335" width="71" height="13" fill="#F7F7F4" opacity="0.17"/><rect x="926" y="361" width="71" height="13" fill="#F7F7F4" opacity="0.26"/><rect x="926" y="441" width="71" height="13" fill="#F7F7F4" opacity="0.36"/><rect x="1048" y="256" width="71" height="13" fill="#F7F7F4" opacity="0.29"/><rect x="1048" y="335" width="71" height="13" fill="#F7F7F4" opacity="0.45"/><rect x="1048" y="361" width="71" height="13" fill="#F7F7F4" opacity="0.26"/><rect x="1048" y="388" width="71" height="13" fill="#F7F7F4" opacity="0.17"/><rect x="1048" y="414" width="71" height="13" fill="#F7F7F4" opacity="0.30"/><line x1="0" y1="464" x2="1200" y2="464" stroke="#22456f" stroke-width="1" opacity=".55"/><filter id="g"><feTurbulence type="fractalNoise" baseFrequency="0.9" numOctaves="2"/><feColorMatrix type="saturate" values="0"/></filter><rect width="1200" height="800" filter="url(#g)" opacity=".045"/><radialGradient id="v" cx="50%" cy="45%" r="78%"><stop offset="55%" stop-color="#000" stop-opacity="0"/><stop offset="100%" stop-color="#000" stop-opacity=".42"/></radialGradient><rect width="1200" height="800" fill="url(#v)"/></svg>