<svg xmlns="http://www.w3.org/2000/svg" viewBox="0 0 1200 800" width="1200" height="800" role="img" aria-labelledby="t d" preserveAspectRatio="xMidYMid slice"><title id="t">Placeholder gallery image 4 for demo listing DEMO-1017</title><desc id="d">Generated placeholder graphic. Not a photograph. Replace with real photography before launch.</desc><rect width="1200" height="800" fill="#06111F"/><rect x="-2" y="454" width="111" height="346" fill="#1b3a63"/><rect x="4" y="473" width="16" height="18" fill="#F7F7F4" opacity="0.16"/><rect x="4" y="510" width="16" height="18" fill="#F7F7F4" opacity="0.44"/><rect x="4" y="584" width="16" height="18" fill="#F7F7F4" opacity="0.31"/><rect x="4" y="732" width="16" height="18" fill="#F7F7F4" opacity="0.22"/><rect x="32" y="473" width="16" height="18" fill="#F7F7F4" opacity="0.30"/><rect x="32" y="547" width="16" height="18" fill="#F7F7F4" opacity="0.38"/><rect x="32" y="584" width="16" height="18" fill="#F7F7F4" opacity="0.24"/><rect x="32" y="732" width="16" height="18" fill="#F7F7F4" opacity="0.25"/><rect x="32" y="769" width="16" height="18" fill="#F7F7F4" opacity="0.48"/><rect x="60" y="473" width="16" height="18" fill="#F7F7F4" opacity="0.50"/><rect x="60" y="510" width="16" height="18" fill="#F7F7F4" opacity="0.29"/><rect x="60" y="621" width="16" height="18" fill="#F7F7F4" opacity="0.12"/><rect x="60" y="658" width="16" height="18" fill="#F7F7F4" opacity="0.20"/><rect x="60" y="732" width="16" height="18" fill="#F7F7F4" opacity="0.54"/><rect x="87" y="473" width="16" height="18" fill="#F7F7F4" opacity="0.39"/><rect x="87" y="510" width="16" height="18" fill="#F7F7F4" opacity="0.13"/><rect x="87" y="584" width="16" height="18" fill="#F7F7F4" opacity="0.18"/><rect x="87" y="658" width="16" height="18" fill="#F7F7F4" opacity="0.29"/><rect x="87" y="695" width="16" height="18" fill="#F7F7F4" opacity="0.21"/><rect x="87" y="769" width="16" height="18" fill="#F7F7F4" opacity="0.15"/><rect x="133" y="324" width="126" height="476" fill="#07182D"/><rect x="139" y="344" width="18" height="18" fill="#F7F7F4" opacity="0.37"/><rect x="139" y="382" width="18" height="18" fill="#F7F7F4" opacity="0.45"/><rect x="139" y="459" width="18" height="18" fill="#F7F7F4" opacity="0.44"/><rect x="139" y="498" width="18" height="18" fill="#F7F7F4" opacity="0.11"/><rect x="139" y="536" width="18" height="18" fill="#F7F7F4" opacity="0.40"/><rect x="139" y="613" width="18" height="18" fill="#F7F7F4" opacity="0.28"/><rect x="139" y="652" width="18" height="18" fill="#F7F7F4" opacity="0.37"/><rect x="139" y="690" width="18" height="18" fill="#F7F7F4" opacity="0.22"/><rect x="139" y="729" width="18" height="18" fill="#F7F7F4" opacity="0.35"/><rect x="139" y="767" width="18" height="18" fill="#F7F7F4" opacity="0.55"/><rect x="171" y="344" width="18" height="18" fill="#F7F7F4" opacity="0.53"/><rect x="171" y="421" width="18" height="18" fill="#F7F7F4" opacity="0.24"/><rect x="171" y="459" width="18" height="18" fill="#F7F7F4" opacity="0.13"/><rect x="171" y="536" width="18" height="18" fill="#F7F7F4" opacity="0.39"/><rect x="171" y="575" width="18" height="18" fill="#F7F7F4" opacity="0.46"/><rect x="171" y="613" width="18" height="18" fill="#F7F7F4" opacity="0.43"/><rect x="171" y="652" width="18" height="18" fill="#F7F7F4" opacity="0.23"/><rect x="171" y="767" width="18" height="18" fill="#F7F7F4" opacity="0.25"/><rect x="203" y="344" width="18" height="18" fill="#F7F7F4" opacity="0.39"/><rect x="203" y="382" width="18" height="18" fill="#F7F7F4" opacity="0.11"/><rect x="203" y="421" width="18" height="18" fill="#F7F7F4" opacity="0.40"/><rect x="203" y="613" width="18" height="18" fill="#F7F7F4" opacity="0.28"/><rect x="203" y="652" width="18" height="18" fill="#F7F7F4" opacity="0.50"/><rect x="203" y="690" width="18" height="18" fill="#F7F7F4" opacity="0.49"/><rect x="203" y="767" width="18" height="18" fill="#F7F7F4" opacity="0.48"/><rect x="234" y="344" width="18" height="18" fill="#F7F7F4" opacity="0.26"/><rect x="234" y="421" width="18" height="18" fill="#F7F7F4" opacity="0.52"/><rect x="234" y="498" width="18" height="18" fill="#F7F7F4" opacity="0.26"/><rect x="234" y="536" width="18" height="18" fill="#F7F7F4" opacity="0.49"/><rect x="234" y="652" width="18" height="18" fill="#F7F7F4" opacity="0.31"/><rect x="234" y="690" width="18" height="18" fill="#F7F7F4" opacity="0.23"/><rect x="268" y="324" width="119" height="476" fill="#07182D"/><rect x="274" y="344" width="17" height="18" fill="#F7F7F4" opacity="0.44"/><rect x="274" y="421" width="17" height="18" fill="#F7F7F4" opacity="0.12"/><rect x="274" y="459" width="17" height="18" fill="#F7F7F4" opacity="0.49"/><rect x="274" y="498" width="17" height="18" fill="#F7F7F4" opacity="0.29"/><rect x="274" y="536" width="17" height="18" fill="#F7F7F4" opacity="0.30"/><rect x="274" y="575" width="17" height="18" fill="#F7F7F4" opacity="0.11"/><rect x="274" y="729" width="17" height="18" fill="#F7F7F4" opacity="0.51"/><rect x="274" y="767" width="17" height="18" fill="#F7F7F4" opacity="0.42"/><rect x="304" y="421" width="17" height="18" fill="#F7F7F4" opacity="0.47"/><rect x="304" y="459" width="17" height="18" fill="#F7F7F4" opacity="0.17"/><rect x="304" y="498" width="17" height="18" fill="#F7F7F4" opacity="0.37"/><rect x="304" y="575" width="17" height="18" fill="#F7F7F4" opacity="0.15"/><rect x="304" y="652" width="17" height="18" fill="#F7F7F4" opacity="0.28"/><rect x="304" y="767" width="17" height="18" fill="#F7F7F4" opacity="0.20"/><rect x="334" y="382" width="17" height="18" fill="#F7F7F4" opacity="0.42"/><rect x="334" y="421" width="17" height="18" fill="#F7F7F4" opacity="0.47"/><rect x="334" y="498" width="17" height="18" fill="#F7F7F4" opacity="0.34"/><rect x="334" y="536" width="17" height="18" fill="#F7F7F4" opacity="0.44"/><rect x="334" y="613" width="17" height="18" fill="#F7F7F4" opacity="0.35"/><rect x="334" y="652" width="17" height="18" fill="#F7F7F4" opacity="0.44"/><rect x="334" y="729" width="17" height="18" fill="#F7F7F4" opacity="0.36"/><rect x="364" y="344" width="17" height="18" fill="#F7F7F4" opacity="0.15"/><rect x="364" y="382" width="17" height="18" fill="#F7F7F4" opacity="0.51"/><rect x="364" y="536" width="17" height="18" fill="#F7F7F4" opacity="0.30"/><rect x="364" y="575" width="17" height="18" fill="#F7F7F4" opacity="0.30"/><rect x="364" y="652" width="17" height="18" fill="#F7F7F4" opacity="0.12"/><rect x="364" y="767" width="17" height="18" fill="#F7F7F4" opacity="0.21"/><rect x="401" y="184" width="136" height="616" fill="#1b3a63"/><rect x="406" y="203" width="16" height="18" fill="#F7F7F4" opacity="0.38"/><rect x="406" y="241" width="16" height="18" fill="#F7F7F4" opacity="0.13"/><rect x="406" y="354" width="16" height="18" fill="#F7F7F4" opacity="0.27"/><rect x="406" y="392" width="16" height="18" fill="#F7F7F4" opacity="0.22"/><rect x="406" y="429" width="16" height="18" fill="#F7F7F4" opacity="0.41"/><rect x="406" y="542" width="16" height="18" fill="#F7F7F4" opacity="0.48"/><rect x="406" y="580" width="16" height="18" fill="#F7F7F4" opacity="0.41"/><rect x="406" y="618" width="16" height="18" fill="#F7F7F4" opacity="0.29"/><rect x="406" y="655" width="16" height="18" fill="#F7F7F4" opacity="0.40"/><rect x="406" y="693" width="16" height="18" fill="#F7F7F4" opacity="0.37"/><rect x="434" y="241" width="16" height="18" fill="#F7F7F4" opacity="0.45"/><rect x="434" y="354" width="16" height="18" fill="#F7F7F4" opacity="0.12"/><rect x="434" y="467" width="16" height="18" fill="#F7F7F4" opacity="0.55"/><rect x="434" y="542" width="16" height="18" fill="#F7F7F4" opacity="0.25"/><rect x="434" y="580" width="16" height="18" fill="#F7F7F4" opacity="0.25"/><rect x="434" y="730" width="16" height="18" fill="#F7F7F4" opacity="0.43"/><rect x="461" y="241" width="16" height="18" fill="#F7F7F4" opacity="0.30"/><rect x="461" y="279" width="16" height="18" fill="#F7F7F4" opacity="0.27"/><rect x="461" y="316" width="16" height="18" fill="#F7F7F4" opacity="0.30"/><rect x="461" y="429" width="16" height="18" fill="#F7F7F4" opacity="0.20"/><rect x="461" y="505" width="16" height="18" fill="#F7F7F4" opacity="0.51"/><rect x="461" y="580" width="16" height="18" fill="#F7F7F4" opacity="0.22"/><rect x="461" y="730" width="16" height="18" fill="#F7F7F4" opacity="0.18"/><rect x="488" y="354" width="16" height="18" fill="#F7F7F4" opacity="0.37"/><rect x="488" y="392" width="16" height="18" fill="#F7F7F4" opacity="0.41"/><rect x="488" y="467" width="16" height="18" fill="#F7F7F4" opacity="0.37"/><rect x="488" y="505" width="16" height="18" fill="#F7F7F4" opacity="0.34"/><rect x="488" y="580" width="16" height="18" fill="#F7F7F4" opacity="0.53"/><rect x="488" y="618" width="16" height="18" fill="#F7F7F4" opacity="0.45"/><rect x="488" y="693" width="16" height="18" fill="#F7F7F4" opacity="0.26"/><rect x="515" y="203" width="16" height="18" fill="#F7F7F4" opacity="0.28"/><rect x="515" y="241" width="16" height="18" fill="#F7F7F4" opacity="0.16"/><rect x="515" y="279" width="16" height="18" fill="#F7F7F4" opacity="0.46"/><rect x="515" y="316" width="16" height="18" fill="#F7F7F4" opacity="0.41"/><rect x="515" y="354" width="16" height="18" fill="#F7F7F4" opacity="0.23"/><rect x="515" y="429" width="16" height="18" fill="#F7F7F4" opacity="0.12"/><rect x="515" y="580" width="16" height="18" fill="#F7F7F4" opacity="0.54"/><rect x="515" y="618" width="16" height="18" fill="#F7F7F4" opacity="0.42"/><rect x="515" y="655" width="16" height="18" fill="#F7F7F4" opacity="0.25"/><rect x="515" y="693" width="16" height="18" fill="#F7F7F4" opacity="0.21"/><rect x="515" y="730" width="16" height="18" fill="#F7F7F4" opacity="0.51"/><rect x="515" y="768" width="16" height="18" fill="#F7F7F4" opacity="0.32"/><rect x="534" y="248" width="122" height="552" fill="#12294a"/><rect x="541" y="306" width="18" height="18" fill="#F7F7F4" opacity="0.54"/><rect x="541" y="345" width="18" height="18" fill="#F7F7F4" opacity="0.19"/><rect x="541" y="383" width="18" height="18" fill="#F7F7F4" opacity="0.14"/><rect x="541" y="498" width="18" height="18" fill="#F7F7F4" opacity="0.11"/><rect x="541" y="575" width="18" height="18" fill="#F7F7F4" opacity="0.35"/><rect x="541" y="652" width="18" height="18" fill="#F7F7F4" opacity="0.42"/><rect x="541" y="729" width="18" height="18" fill="#F7F7F4" opacity="0.22"/><rect x="541" y="768" width="18" height="18" fill="#F7F7F4" opacity="0.32"/><rect x="571" y="306" width="18" height="18" fill="#F7F7F4" opacity="0.27"/><rect x="571" y="345" width="18" height="18" fill="#F7F7F4" opacity="0.54"/><rect x="571" y="383" width="18" height="18" fill="#F7F7F4" opacity="0.47"/><rect x="571" y="460" width="18" height="18" fill="#F7F7F4" opacity="0.15"/><rect x="571" y="537" width="18" height="18" fill="#F7F7F4" opacity="0.34"/><rect x="571" y="652" width="18" height="18" fill="#F7F7F4" opacity="0.26"/><rect x="601" y="345" width="18" height="18" fill="#F7F7F4" opacity="0.39"/><rect x="601" y="460" width="18" height="18" fill="#F7F7F4" opacity="0.29"/><rect x="601" y="537" width="18" height="18" fill="#F7F7F4" opacity="0.44"/><rect x="601" y="652" width="18" height="18" fill="#F7F7F4" opacity="0.10"/><rect x="601" y="768" width="18" height="18" fill="#F7F7F4" opacity="0.13"/><rect x="632" y="306" width="18" height="18" fill="#F7F7F4" opacity="0.45"/><rect x="632" y="345" width="18" height="18" fill="#F7F7F4" opacity="0.46"/><rect x="632" y="383" width="18" height="18" fill="#F7F7F4" opacity="0.53"/><rect x="632" y="498" width="18" height="18" fill="#F7F7F4" opacity="0.10"/><rect x="632" y="575" width="18" height="18" fill="#F7F7F4" opacity="0.42"/><rect x="632" y="614" width="18" height="18" fill="#F7F7F4" opacity="0.50"/><rect x="632" y="652" width="18" height="18" fill="#F7F7F4" opacity="0.40"/><rect x="665" y="320" width="111" height="480" fill="#12294a"/><rect x="671" y="340" width="16" height="19" fill="#F7F7F4" opacity="0.13"/><rect x="671" y="379" width="16" height="19" fill="#F7F7F4" opacity="0.14"/><rect x="671" y="457" width="16" height="19" fill="#F7F7F4" opacity="0.47"/><rect x="671" y="534" width="16" height="19" fill="#F7F7F4" opacity="0.23"/><rect x="671" y="573" width="16" height="19" fill="#F7F7F4" opacity="0.11"/><rect x="671" y="690" width="16" height="19" fill="#F7F7F4" opacity="0.25"/><rect x="671" y="728" width="16" height="19" fill="#F7F7F4" opacity="0.30"/><rect x="699" y="379" width="16" height="19" fill="#F7F7F4" opacity="0.36"/><rect x="699" y="418" width="16" height="19" fill="#F7F7F4" opacity="0.31"/><rect x="699" y="457" width="16" height="19" fill="#F7F7F4" opacity="0.30"/><rect x="699" y="651" width="16" height="19" fill="#F7F7F4" opacity="0.23"/><rect x="699" y="690" width="16" height="19" fill="#F7F7F4" opacity="0.42"/><rect x="726" y="418" width="16" height="19" fill="#F7F7F4" opacity="0.21"/><rect x="726" y="457" width="16" height="19" fill="#F7F7F4" opacity="0.33"/><rect x="726" y="573" width="16" height="19" fill="#F7F7F4" opacity="0.34"/><rect x="726" y="612" width="16" height="19" fill="#F7F7F4" opacity="0.52"/><rect x="726" y="651" width="16" height="19" fill="#F7F7F4" opacity="0.14"/><rect x="726" y="767" width="16" height="19" fill="#F7F7F4" opacity="0.13"/><rect x="754" y="340" width="16" height="19" fill="#F7F7F4" opacity="0.14"/><rect x="754" y="379" width="16" height="19" fill="#F7F7F4" opacity="0.22"/><rect x="754" y="418" width="16" height="19" fill="#F7F7F4" opacity="0.54"/><rect x="754" y="534" width="16" height="19" fill="#F7F7F4" opacity="0.48"/><rect x="754" y="573" width="16" height="19" fill="#F7F7F4" opacity="0.18"/><rect x="754" y="651" width="16" height="19" fill="#F7F7F4" opacity="0.14"/><rect x="754" y="690" width="16" height="19" fill="#F7F7F4" opacity="0.16"/><rect x="754" y="728" width="16" height="19" fill="#F7F7F4" opacity="0.55"/><rect x="754" y="767" width="16" height="19" fill="#F7F7F4" opacity="0.53"/><rect x="800" y="233" width="109" height="567" fill="#1b3a63"/><rect x="806" y="253" width="16" height="19" fill="#F7F7F4" opacity="0.10"/><rect x="806" y="292" width="16" height="19" fill="#F7F7F4" opacity="0.17"/><rect x="806" y="332" width="16" height="19" fill="#F7F7F4" opacity="0.45"/><rect x="806" y="451" width="16" height="19" fill="#F7F7F4" opacity="0.20"/><rect x="806" y="490" width="16" height="19" fill="#F7F7F4" opacity="0.19"/><rect x="806" y="569" width="16" height="19" fill="#F7F7F4" opacity="0.11"/><rect x="806" y="609" width="16" height="19" fill="#F7F7F4" opacity="0.28"/><rect x="806" y="648" width="16" height="19" fill="#F7F7F4" opacity="0.39"/><rect x="806" y="727" width="16" height="19" fill="#F7F7F4" opacity="0.51"/><rect x="833" y="253" width="16" height="19" fill="#F7F7F4" opacity="0.38"/><rect x="833" y="411" width="16" height="19" fill="#F7F7F4" opacity="0.50"/><rect x="833" y="451" width="16" height="19" fill="#F7F7F4" opacity="0.10"/><rect x="833" y="490" width="16" height="19" fill="#F7F7F4" opacity="0.38"/><rect x="833" y="569" width="16" height="19" fill="#F7F7F4" opacity="0.41"/><rect x="833" y="648" width="16" height="19" fill="#F7F7F4" opacity="0.10"/><rect x="833" y="688" width="16" height="19" fill="#F7F7F4" opacity="0.45"/><rect x="833" y="727" width="16" height="19" fill="#F7F7F4" opacity="0.47"/><rect x="860" y="411" width="16" height="19" fill="#F7F7F4" opacity="0.22"/><rect x="860" y="451" width="16" height="19" fill="#F7F7F4" opacity="0.25"/><rect x="860" y="569" width="16" height="19" fill="#F7F7F4" opacity="0.39"/><rect x="860" y="609" width="16" height="19" fill="#F7F7F4" opacity="0.37"/><rect x="860" y="688" width="16" height="19" fill="#F7F7F4" opacity="0.53"/><rect x="860" y="727" width="16" height="19" fill="#F7F7F4" opacity="0.14"/><rect x="860" y="767" width="16" height="19" fill="#F7F7F4" opacity="0.44"/><rect x="887" y="253" width="16" height="19" fill="#F7F7F4" opacity="0.24"/><rect x="887" y="292" width="16" height="19" fill="#F7F7F4" opacity="0.11"/><rect x="887" y="371" width="16" height="19" fill="#F7F7F4" opacity="0.48"/><rect x="887" y="411" width="16" height="19" fill="#F7F7F4" opacity="0.44"/><rect x="887" y="451" width="16" height="19" fill="#F7F7F4" opacity="0.48"/><rect x="887" y="490" width="16" height="19" fill="#F7F7F4" opacity="0.28"/><rect x="887" y="530" width="16" height="19" fill="#F7F7F4" opacity="0.15"/><rect x="887" y="569" width="16" height="19" fill="#F7F7F4" opacity="0.34"/><rect x="887" y="648" width="16" height="19" fill="#F7F7F4" opacity="0.24"/><rect x="887" y="688" width="16" height="19" fill="#F7F7F4" opacity="0.44"/><rect x="887" y="767" width="16" height="19" fill="#F7F7F4" opacity="0.40"/><rect x="932" y="206" width="112" height="594" fill="#12294a"/><rect x="938" y="226" width="16" height="19" fill="#F7F7F4" opacity="0.33"/><rect x="938" y="303" width="16" height="19" fill="#F7F7F4" opacity="0.28"/><rect x="938" y="497" width="16" height="19" fill="#F7F7F4" opacity="0.45"/><rect x="938" y="574" width="16" height="19" fill="#F7F7F4" opacity="0.48"/><rect x="938" y="613" width="16" height="19" fill="#F7F7F4" opacity="0.54"/><rect x="938" y="690" width="16" height="19" fill="#F7F7F4" opacity="0.42"/><rect x="966" y="226" width="16" height="19" fill="#F7F7F4" opacity="0.19"/><rect x="966" y="264" width="16" height="19" fill="#F7F7F4" opacity="0.48"/><rect x="966" y="303" width="16" height="19" fill="#F7F7F4" opacity="0.15"/><rect x="966" y="342" width="16" height="19" fill="#F7F7F4" opacity="0.15"/><rect x="966" y="380" width="16" height="19" fill="#F7F7F4" opacity="0.11"/><rect x="966" y="419" width="16" height="19" fill="#F7F7F4" opacity="0.53"/><rect x="966" y="458" width="16" height="19" fill="#F7F7F4" opacity="0.38"/><rect x="966" y="497" width="16" height="19" fill="#F7F7F4" opacity="0.12"/><rect x="966" y="535" width="16" height="19" fill="#F7F7F4" opacity="0.32"/><rect x="966" y="574" width="16" height="19" fill="#F7F7F4" opacity="0.25"/><rect x="966" y="651" width="16" height="19" fill="#F7F7F4" opacity="0.21"/><rect x="993" y="226" width="16" height="19" fill="#F7F7F4" opacity="0.38"/><rect x="993" y="264" width="16" height="19" fill="#F7F7F4" opacity="0.29"/><rect x="993" y="342" width="16" height="19" fill="#F7F7F4" opacity="0.40"/><rect x="993" y="497" width="16" height="19" fill="#F7F7F4" opacity="0.42"/><rect x="993" y="613" width="16" height="19" fill="#F7F7F4" opacity="0.39"/><rect x="993" y="651" width="16" height="19" fill="#F7F7F4" opacity="0.21"/><rect x="993" y="729" width="16" height="19" fill="#F7F7F4" opacity="0.37"/><rect x="1021" y="226" width="16" height="19" fill="#F7F7F4" opacity="0.20"/><rect x="1021" y="264" width="16" height="19" fill="#F7F7F4" opacity="0.50"/><rect x="1021" y="303" width="16" height="19" fill="#F7F7F4" opacity="0.47"/><rect x="1021" y="342" width="16" height="19" fill="#F7F7F4" opacity="0.30"/><rect x="1021" y="380" width="16" height="19" fill="#F7F7F4" opacity="0.38"/><rect x="1021" y="458" width="16" height="19" fill="#F7F7F4" opacity="0.14"/><rect x="1021" y="535" width="16" height="19" fill="#F7F7F4" opacity="0.34"/><rect x="1021" y="574" width="16" height="19" fill="#F7F7F4" opacity="0.45"/><rect x="1021" y="613" width="16" height="19" fill="#F7F7F4" opacity="0.24"/><rect x="1021" y="651" width="16" height="19" fill="#F7F7F4" opacity="0.38"/><rect x="1021" y="729" width="16" height="19" fill="#F7F7F4" opacity="0.53"/><rect x="1065" y="403" width="118" height="397" fill="#1b3a63"/><rect x="1071" y="423" width="17" height="18" fill="#F7F7F4" opacity="0.45"/><rect x="1071" y="500" width="17" height="18" fill="#F7F7F4" opacity="0.43"/><rect x="1071" y="691" width="17" height="18" fill="#F7F7F4" opacity="0.36"/><rect x="1071" y="729" width="17" height="18" fill="#F7F7F4" opacity="0.38"/><rect x="1071" y="768" width="17" height="18" fill="#F7F7F4" opacity="0.29"/><rect x="1101" y="423" width="17" height="18" fill="#F7F7F4" opacity="0.18"/><rect x="1101" y="576" width="17" height="18" fill="#F7F7F4" opacity="0.35"/><rect x="1101" y="614" width="17" height="18" fill="#F7F7F4" opacity="0.11"/><rect x="1101" y="653" width="17" height="18" fill="#F7F7F4" opacity="0.29"/><rect x="1101" y="691" width="17" height="18" fill="#F7F7F4" opacity="0.18"/><rect x="1101" y="729" width="17" height="18" fill="#F7F7F4" opacity="0.30"/><rect x="1101" y="768" width="17" height="18" fill="#F7F7F4" opacity="0.53"/><rect x="1130" y="461" width="17" height="18" fill="#F7F7F4" opacity="0.46"/><rect x="1130" y="500" width="17" height="18" fill="#F7F7F4" opacity="0.34"/><rect x="1130" y="576" width="17" height="18" fill="#F7F7F4" opacity="0.22"/><rect x="1130" y="653" width="17" height="18" fill="#F7F7F4" opacity="0.38"/><rect x="1130" y="729" width="17" height="18" fill="#F7F7F4" opacity="0.22"/><rect x="1160" y="423" width="17" height="18" fill="#F7F7F4" opacity="0.47"/><rect x="1160" y="461" width="17" height="18" fill="#F7F7F4" opacity="0.10"/><rect x="1160" y="500" width="17" height="18" fill="#F7F7F4" opacity="0.24"/><rect x="1160" y="538" width="17" height="18" fill="#F7F7F4" opacity="0.51"/><rect x="1160" y="653" width="17" height="18" fill="#F7F7F4" opacity="0.39"/><rect x="1160" y="768" width="17" height="18" fill="#F7F7F4" opacity="0.11"/><rect y="736" width="1200" height="64" fill="#06111F" opacity=".5"/><filter id="g"><feTurbulence type="fractalNoise" baseFrequency="0.9" numOctaves="2"/><feColorMatrix type="saturate" values="0"/></filter><rect width="1200" height="800" filter="url(#g)" opacity=".045"/><radialGradient id="v" cx="50%" cy="45%" r="78%"><stop offset="55%" stop-color="#000" stop-opacity="0"/><stop offset="100%" stop-color="#000" stop-opacity=".42"/></radialGradient><rect width="1200" height="800" fill="url(#v)"/></svg>