<svg xmlns="http://www.w3.org/2000/svg" viewBox="0 0 1200 800" width="1200" height="800" role="img" aria-labelledby="t d" preserveAspectRatio="xMidYMid slice"><title id="t">Placeholder gallery image 4 for demo listing DEMO-1001</title><desc id="d">Generated placeholder graphic. Not a photograph. Replace with real photography before launch.</desc><rect width="1200" height="800" fill="#06111F"/><rect x="-0" y="482" width="130" height="318" fill="#1b3a63"/><rect x="5" y="540" width="15" height="18" fill="#F7F7F4" opacity="0.55"/><rect x="5" y="616" width="15" height="18" fill="#F7F7F4" opacity="0.39"/><rect x="5" y="654" width="15" height="18" fill="#F7F7F4" opacity="0.14"/><rect x="5" y="692" width="15" height="18" fill="#F7F7F4" opacity="0.14"/><rect x="31" y="502" width="15" height="18" fill="#F7F7F4" opacity="0.15"/><rect x="31" y="578" width="15" height="18" fill="#F7F7F4" opacity="0.43"/><rect x="31" y="654" width="15" height="18" fill="#F7F7F4" opacity="0.14"/><rect x="31" y="692" width="15" height="18" fill="#F7F7F4" opacity="0.46"/><rect x="31" y="730" width="15" height="18" fill="#F7F7F4" opacity="0.44"/><rect x="31" y="768" width="15" height="18" fill="#F7F7F4" opacity="0.30"/><rect x="57" y="502" width="15" height="18" fill="#F7F7F4" opacity="0.28"/><rect x="57" y="540" width="15" height="18" fill="#F7F7F4" opacity="0.46"/><rect x="57" y="616" width="15" height="18" fill="#F7F7F4" opacity="0.48"/><rect x="57" y="692" width="15" height="18" fill="#F7F7F4" opacity="0.13"/><rect x="57" y="768" width="15" height="18" fill="#F7F7F4" opacity="0.18"/><rect x="83" y="540" width="15" height="18" fill="#F7F7F4" opacity="0.10"/><rect x="83" y="654" width="15" height="18" fill="#F7F7F4" opacity="0.28"/><rect x="83" y="730" width="15" height="18" fill="#F7F7F4" opacity="0.27"/><rect x="109" y="502" width="15" height="18" fill="#F7F7F4" opacity="0.15"/><rect x="109" y="540" width="15" height="18" fill="#F7F7F4" opacity="0.55"/><rect x="109" y="578" width="15" height="18" fill="#F7F7F4" opacity="0.18"/><rect x="109" y="616" width="15" height="18" fill="#F7F7F4" opacity="0.48"/><rect x="109" y="768" width="15" height="18" fill="#F7F7F4" opacity="0.12"/><rect x="149" y="214" width="143" height="586" fill="#07182D"/><rect x="155" y="272" width="17" height="18" fill="#F7F7F4" opacity="0.35"/><rect x="155" y="310" width="17" height="18" fill="#F7F7F4" opacity="0.46"/><rect x="155" y="348" width="17" height="18" fill="#F7F7F4" opacity="0.24"/><rect x="155" y="386" width="17" height="18" fill="#F7F7F4" opacity="0.38"/><rect x="155" y="425" width="17" height="18" fill="#F7F7F4" opacity="0.52"/><rect x="155" y="501" width="17" height="18" fill="#F7F7F4" opacity="0.34"/><rect x="155" y="653" width="17" height="18" fill="#F7F7F4" opacity="0.12"/><rect x="155" y="730" width="17" height="18" fill="#F7F7F4" opacity="0.12"/><rect x="155" y="768" width="17" height="18" fill="#F7F7F4" opacity="0.27"/><rect x="184" y="234" width="17" height="18" fill="#F7F7F4" opacity="0.54"/><rect x="184" y="272" width="17" height="18" fill="#F7F7F4" opacity="0.51"/><rect x="184" y="310" width="17" height="18" fill="#F7F7F4" opacity="0.13"/><rect x="184" y="386" width="17" height="18" fill="#F7F7F4" opacity="0.37"/><rect x="184" y="501" width="17" height="18" fill="#F7F7F4" opacity="0.44"/><rect x="184" y="539" width="17" height="18" fill="#F7F7F4" opacity="0.50"/><rect x="184" y="653" width="17" height="18" fill="#F7F7F4" opacity="0.14"/><rect x="184" y="730" width="17" height="18" fill="#F7F7F4" opacity="0.37"/><rect x="212" y="234" width="17" height="18" fill="#F7F7F4" opacity="0.38"/><rect x="212" y="425" width="17" height="18" fill="#F7F7F4" opacity="0.17"/><rect x="212" y="463" width="17" height="18" fill="#F7F7F4" opacity="0.13"/><rect x="212" y="539" width="17" height="18" fill="#F7F7F4" opacity="0.43"/><rect x="212" y="615" width="17" height="18" fill="#F7F7F4" opacity="0.17"/><rect x="212" y="653" width="17" height="18" fill="#F7F7F4" opacity="0.42"/><rect x="212" y="692" width="17" height="18" fill="#F7F7F4" opacity="0.29"/><rect x="212" y="730" width="17" height="18" fill="#F7F7F4" opacity="0.14"/><rect x="212" y="768" width="17" height="18" fill="#F7F7F4" opacity="0.23"/><rect x="241" y="234" width="17" height="18" fill="#F7F7F4" opacity="0.48"/><rect x="241" y="272" width="17" height="18" fill="#F7F7F4" opacity="0.51"/><rect x="241" y="348" width="17" height="18" fill="#F7F7F4" opacity="0.43"/><rect x="241" y="425" width="17" height="18" fill="#F7F7F4" opacity="0.54"/><rect x="241" y="463" width="17" height="18" fill="#F7F7F4" opacity="0.11"/><rect x="241" y="615" width="17" height="18" fill="#F7F7F4" opacity="0.33"/><rect x="241" y="730" width="17" height="18" fill="#F7F7F4" opacity="0.16"/><rect x="241" y="768" width="17" height="18" fill="#F7F7F4" opacity="0.41"/><rect x="270" y="272" width="17" height="18" fill="#F7F7F4" opacity="0.28"/><rect x="270" y="310" width="17" height="18" fill="#F7F7F4" opacity="0.29"/><rect x="270" y="348" width="17" height="18" fill="#F7F7F4" opacity="0.29"/><rect x="270" y="386" width="17" height="18" fill="#F7F7F4" opacity="0.47"/><rect x="270" y="539" width="17" height="18" fill="#F7F7F4" opacity="0.14"/><rect x="270" y="615" width="17" height="18" fill="#F7F7F4" opacity="0.36"/><rect x="270" y="653" width="17" height="18" fill="#F7F7F4" opacity="0.17"/><rect x="270" y="768" width="17" height="18" fill="#F7F7F4" opacity="0.35"/><rect x="302" y="189" width="131" height="611" fill="#1b3a63"/><rect x="307" y="208" width="15" height="18" fill="#F7F7F4" opacity="0.46"/><rect x="307" y="246" width="15" height="18" fill="#F7F7F4" opacity="0.10"/><rect x="307" y="320" width="15" height="18" fill="#F7F7F4" opacity="0.19"/><rect x="307" y="358" width="15" height="18" fill="#F7F7F4" opacity="0.38"/><rect x="307" y="395" width="15" height="18" fill="#F7F7F4" opacity="0.11"/><rect x="307" y="432" width="15" height="18" fill="#F7F7F4" opacity="0.21"/><rect x="307" y="544" width="15" height="18" fill="#F7F7F4" opacity="0.42"/><rect x="307" y="582" width="15" height="18" fill="#F7F7F4" opacity="0.40"/><rect x="307" y="619" width="15" height="18" fill="#F7F7F4" opacity="0.11"/><rect x="307" y="656" width="15" height="18" fill="#F7F7F4" opacity="0.46"/><rect x="307" y="694" width="15" height="18" fill="#F7F7F4" opacity="0.35"/><rect x="333" y="246" width="15" height="18" fill="#F7F7F4" opacity="0.11"/><rect x="333" y="320" width="15" height="18" fill="#F7F7F4" opacity="0.10"/><rect x="333" y="358" width="15" height="18" fill="#F7F7F4" opacity="0.28"/><rect x="333" y="432" width="15" height="18" fill="#F7F7F4" opacity="0.34"/><rect x="333" y="507" width="15" height="18" fill="#F7F7F4" opacity="0.14"/><rect x="333" y="582" width="15" height="18" fill="#F7F7F4" opacity="0.34"/><rect x="333" y="656" width="15" height="18" fill="#F7F7F4" opacity="0.15"/><rect x="333" y="694" width="15" height="18" fill="#F7F7F4" opacity="0.34"/><rect x="333" y="768" width="15" height="18" fill="#F7F7F4" opacity="0.26"/><rect x="360" y="208" width="15" height="18" fill="#F7F7F4" opacity="0.41"/><rect x="360" y="358" width="15" height="18" fill="#F7F7F4" opacity="0.38"/><rect x="360" y="544" width="15" height="18" fill="#F7F7F4" opacity="0.44"/><rect x="360" y="582" width="15" height="18" fill="#F7F7F4" opacity="0.40"/><rect x="360" y="656" width="15" height="18" fill="#F7F7F4" opacity="0.40"/><rect x="360" y="731" width="15" height="18" fill="#F7F7F4" opacity="0.49"/><rect x="386" y="246" width="15" height="18" fill="#F7F7F4" opacity="0.31"/><rect x="386" y="320" width="15" height="18" fill="#F7F7F4" opacity="0.26"/><rect x="386" y="358" width="15" height="18" fill="#F7F7F4" opacity="0.49"/><rect x="386" y="470" width="15" height="18" fill="#F7F7F4" opacity="0.49"/><rect x="386" y="507" width="15" height="18" fill="#F7F7F4" opacity="0.18"/><rect x="386" y="619" width="15" height="18" fill="#F7F7F4" opacity="0.32"/><rect x="386" y="656" width="15" height="18" fill="#F7F7F4" opacity="0.47"/><rect x="386" y="768" width="15" height="18" fill="#F7F7F4" opacity="0.43"/><rect x="412" y="208" width="15" height="18" fill="#F7F7F4" opacity="0.23"/><rect x="412" y="283" width="15" height="18" fill="#F7F7F4" opacity="0.53"/><rect x="412" y="432" width="15" height="18" fill="#F7F7F4" opacity="0.27"/><rect x="412" y="470" width="15" height="18" fill="#F7F7F4" opacity="0.32"/><rect x="412" y="507" width="15" height="18" fill="#F7F7F4" opacity="0.16"/><rect x="412" y="619" width="15" height="18" fill="#F7F7F4" opacity="0.23"/><rect x="412" y="731" width="15" height="18" fill="#F7F7F4" opacity="0.39"/><rect x="412" y="768" width="15" height="18" fill="#F7F7F4" opacity="0.14"/><rect x="451" y="393" width="136" height="407" fill="#1b3a63"/><rect x="456" y="413" width="16" height="19" fill="#F7F7F4" opacity="0.37"/><rect x="456" y="452" width="16" height="19" fill="#F7F7F4" opacity="0.52"/><rect x="456" y="492" width="16" height="19" fill="#F7F7F4" opacity="0.25"/><rect x="456" y="570" width="16" height="19" fill="#F7F7F4" opacity="0.34"/><rect x="456" y="610" width="16" height="19" fill="#F7F7F4" opacity="0.46"/><rect x="456" y="688" width="16" height="19" fill="#F7F7F4" opacity="0.52"/><rect x="484" y="413" width="16" height="19" fill="#F7F7F4" opacity="0.24"/><rect x="484" y="649" width="16" height="19" fill="#F7F7F4" opacity="0.19"/><rect x="484" y="688" width="16" height="19" fill="#F7F7F4" opacity="0.41"/><rect x="511" y="413" width="16" height="19" fill="#F7F7F4" opacity="0.14"/><rect x="511" y="492" width="16" height="19" fill="#F7F7F4" opacity="0.30"/><rect x="511" y="531" width="16" height="19" fill="#F7F7F4" opacity="0.48"/><rect x="511" y="688" width="16" height="19" fill="#F7F7F4" opacity="0.38"/><rect x="538" y="452" width="16" height="19" fill="#F7F7F4" opacity="0.18"/><rect x="538" y="492" width="16" height="19" fill="#F7F7F4" opacity="0.39"/><rect x="538" y="649" width="16" height="19" fill="#F7F7F4" opacity="0.49"/><rect x="538" y="728" width="16" height="19" fill="#F7F7F4" opacity="0.40"/><rect x="565" y="570" width="16" height="19" fill="#F7F7F4" opacity="0.45"/><rect x="565" y="610" width="16" height="19" fill="#F7F7F4" opacity="0.47"/><rect x="565" y="649" width="16" height="19" fill="#F7F7F4" opacity="0.54"/><rect x="565" y="728" width="16" height="19" fill="#F7F7F4" opacity="0.35"/><rect x="565" y="767" width="16" height="19" fill="#F7F7F4" opacity="0.42"/><rect x="601" y="410" width="125" height="390" fill="#07182D"/><rect x="607" y="467" width="18" height="18" fill="#F7F7F4" opacity="0.36"/><rect x="607" y="542" width="18" height="18" fill="#F7F7F4" opacity="0.51"/><rect x="607" y="580" width="18" height="18" fill="#F7F7F4" opacity="0.26"/><rect x="607" y="618" width="18" height="18" fill="#F7F7F4" opacity="0.21"/><rect x="607" y="655" width="18" height="18" fill="#F7F7F4" opacity="0.51"/><rect x="607" y="693" width="18" height="18" fill="#F7F7F4" opacity="0.51"/><rect x="607" y="731" width="18" height="18" fill="#F7F7F4" opacity="0.44"/><rect x="607" y="768" width="18" height="18" fill="#F7F7F4" opacity="0.43"/><rect x="638" y="430" width="18" height="18" fill="#F7F7F4" opacity="0.29"/><rect x="638" y="467" width="18" height="18" fill="#F7F7F4" opacity="0.25"/><rect x="638" y="542" width="18" height="18" fill="#F7F7F4" opacity="0.44"/><rect x="638" y="580" width="18" height="18" fill="#F7F7F4" opacity="0.49"/><rect x="638" y="618" width="18" height="18" fill="#F7F7F4" opacity="0.28"/><rect x="638" y="655" width="18" height="18" fill="#F7F7F4" opacity="0.23"/><rect x="638" y="693" width="18" height="18" fill="#F7F7F4" opacity="0.48"/><rect x="638" y="731" width="18" height="18" fill="#F7F7F4" opacity="0.37"/><rect x="670" y="505" width="18" height="18" fill="#F7F7F4" opacity="0.27"/><rect x="670" y="542" width="18" height="18" fill="#F7F7F4" opacity="0.31"/><rect x="670" y="580" width="18" height="18" fill="#F7F7F4" opacity="0.12"/><rect x="670" y="655" width="18" height="18" fill="#F7F7F4" opacity="0.22"/><rect x="670" y="693" width="18" height="18" fill="#F7F7F4" opacity="0.29"/><rect x="670" y="731" width="18" height="18" fill="#F7F7F4" opacity="0.39"/><rect x="670" y="768" width="18" height="18" fill="#F7F7F4" opacity="0.46"/><rect x="701" y="430" width="18" height="18" fill="#F7F7F4" opacity="0.15"/><rect x="701" y="505" width="18" height="18" fill="#F7F7F4" opacity="0.24"/><rect x="701" y="542" width="18" height="18" fill="#F7F7F4" opacity="0.13"/><rect x="701" y="580" width="18" height="18" fill="#F7F7F4" opacity="0.39"/><rect x="701" y="618" width="18" height="18" fill="#F7F7F4" opacity="0.50"/><rect x="701" y="655" width="18" height="18" fill="#F7F7F4" opacity="0.30"/><rect x="701" y="731" width="18" height="18" fill="#F7F7F4" opacity="0.37"/><rect x="748" y="450" width="142" height="350" fill="#1b3a63"/><rect x="754" y="545" width="17" height="18" fill="#F7F7F4" opacity="0.12"/><rect x="754" y="582" width="17" height="18" fill="#F7F7F4" opacity="0.38"/><rect x="754" y="619" width="17" height="18" fill="#F7F7F4" opacity="0.36"/><rect x="754" y="657" width="17" height="18" fill="#F7F7F4" opacity="0.34"/><rect x="754" y="731" width="17" height="18" fill="#F7F7F4" opacity="0.34"/><rect x="754" y="768" width="17" height="18" fill="#F7F7F4" opacity="0.44"/><rect x="783" y="470" width="17" height="18" fill="#F7F7F4" opacity="0.37"/><rect x="783" y="507" width="17" height="18" fill="#F7F7F4" opacity="0.46"/><rect x="783" y="582" width="17" height="18" fill="#F7F7F4" opacity="0.20"/><rect x="783" y="619" width="17" height="18" fill="#F7F7F4" opacity="0.21"/><rect x="783" y="657" width="17" height="18" fill="#F7F7F4" opacity="0.31"/><rect x="783" y="768" width="17" height="18" fill="#F7F7F4" opacity="0.49"/><rect x="811" y="545" width="17" height="18" fill="#F7F7F4" opacity="0.52"/><rect x="811" y="619" width="17" height="18" fill="#F7F7F4" opacity="0.15"/><rect x="811" y="657" width="17" height="18" fill="#F7F7F4" opacity="0.39"/><rect x="811" y="694" width="17" height="18" fill="#F7F7F4" opacity="0.26"/><rect x="811" y="731" width="17" height="18" fill="#F7F7F4" opacity="0.24"/><rect x="811" y="768" width="17" height="18" fill="#F7F7F4" opacity="0.37"/><rect x="840" y="507" width="17" height="18" fill="#F7F7F4" opacity="0.33"/><rect x="840" y="545" width="17" height="18" fill="#F7F7F4" opacity="0.23"/><rect x="840" y="582" width="17" height="18" fill="#F7F7F4" opacity="0.29"/><rect x="840" y="619" width="17" height="18" fill="#F7F7F4" opacity="0.53"/><rect x="840" y="657" width="17" height="18" fill="#F7F7F4" opacity="0.50"/><rect x="840" y="694" width="17" height="18" fill="#F7F7F4" opacity="0.18"/><rect x="840" y="768" width="17" height="18" fill="#F7F7F4" opacity="0.29"/><rect x="868" y="507" width="17" height="18" fill="#F7F7F4" opacity="0.49"/><rect x="868" y="545" width="17" height="18" fill="#F7F7F4" opacity="0.47"/><rect x="868" y="582" width="17" height="18" fill="#F7F7F4" opacity="0.50"/><rect x="868" y="619" width="17" height="18" fill="#F7F7F4" opacity="0.16"/><rect x="868" y="657" width="17" height="18" fill="#F7F7F4" opacity="0.54"/><rect x="868" y="694" width="17" height="18" fill="#F7F7F4" opacity="0.42"/><rect x="868" y="731" width="17" height="18" fill="#F7F7F4" opacity="0.42"/><rect x="868" y="768" width="17" height="18" fill="#F7F7F4" opacity="0.38"/><rect x="899" y="337" width="151" height="463" fill="#1b3a63"/><rect x="905" y="394" width="17" height="18" fill="#F7F7F4" opacity="0.24"/><rect x="905" y="432" width="17" height="18" fill="#F7F7F4" opacity="0.18"/><rect x="905" y="469" width="17" height="18" fill="#F7F7F4" opacity="0.25"/><rect x="905" y="619" width="17" height="18" fill="#F7F7F4" opacity="0.43"/><rect x="905" y="656" width="17" height="18" fill="#F7F7F4" opacity="0.36"/><rect x="905" y="694" width="17" height="18" fill="#F7F7F4" opacity="0.33"/><rect x="905" y="731" width="17" height="18" fill="#F7F7F4" opacity="0.15"/><rect x="935" y="357" width="17" height="18" fill="#F7F7F4" opacity="0.18"/><rect x="935" y="394" width="17" height="18" fill="#F7F7F4" opacity="0.47"/><rect x="935" y="432" width="17" height="18" fill="#F7F7F4" opacity="0.35"/><rect x="935" y="469" width="17" height="18" fill="#F7F7F4" opacity="0.52"/><rect x="935" y="507" width="17" height="18" fill="#F7F7F4" opacity="0.24"/><rect x="935" y="656" width="17" height="18" fill="#F7F7F4" opacity="0.34"/><rect x="935" y="731" width="17" height="18" fill="#F7F7F4" opacity="0.45"/><rect x="966" y="394" width="17" height="18" fill="#F7F7F4" opacity="0.30"/><rect x="966" y="432" width="17" height="18" fill="#F7F7F4" opacity="0.26"/><rect x="966" y="469" width="17" height="18" fill="#F7F7F4" opacity="0.12"/><rect x="966" y="507" width="17" height="18" fill="#F7F7F4" opacity="0.44"/><rect x="966" y="544" width="17" height="18" fill="#F7F7F4" opacity="0.35"/><rect x="966" y="581" width="17" height="18" fill="#F7F7F4" opacity="0.33"/><rect x="966" y="619" width="17" height="18" fill="#F7F7F4" opacity="0.30"/><rect x="966" y="656" width="17" height="18" fill="#F7F7F4" opacity="0.50"/><rect x="966" y="768" width="17" height="18" fill="#F7F7F4" opacity="0.51"/><rect x="996" y="469" width="17" height="18" fill="#F7F7F4" opacity="0.14"/><rect x="996" y="507" width="17" height="18" fill="#F7F7F4" opacity="0.40"/><rect x="996" y="544" width="17" height="18" fill="#F7F7F4" opacity="0.22"/><rect x="996" y="581" width="17" height="18" fill="#F7F7F4" opacity="0.42"/><rect x="996" y="656" width="17" height="18" fill="#F7F7F4" opacity="0.50"/><rect x="996" y="694" width="17" height="18" fill="#F7F7F4" opacity="0.27"/><rect x="996" y="731" width="17" height="18" fill="#F7F7F4" opacity="0.50"/><rect x="1026" y="357" width="17" height="18" fill="#F7F7F4" opacity="0.31"/><rect x="1026" y="432" width="17" height="18" fill="#F7F7F4" opacity="0.33"/><rect x="1026" y="507" width="17" height="18" fill="#F7F7F4" opacity="0.28"/><rect x="1026" y="544" width="17" height="18" fill="#F7F7F4" opacity="0.10"/><rect x="1026" y="581" width="17" height="18" fill="#F7F7F4" opacity="0.19"/><rect x="1026" y="656" width="17" height="18" fill="#F7F7F4" opacity="0.33"/><rect x="1026" y="731" width="17" height="18" fill="#F7F7F4" opacity="0.33"/><rect x="1026" y="768" width="17" height="18" fill="#F7F7F4" opacity="0.32"/><rect x="1052" y="442" width="151" height="358" fill="#07182D"/><rect x="1058" y="462" width="18" height="18" fill="#F7F7F4" opacity="0.33"/><rect x="1058" y="615" width="18" height="18" fill="#F7F7F4" opacity="0.11"/><rect x="1058" y="691" width="18" height="18" fill="#F7F7F4" opacity="0.54"/><rect x="1088" y="462" width="18" height="18" fill="#F7F7F4" opacity="0.29"/><rect x="1088" y="500" width="18" height="18" fill="#F7F7F4" opacity="0.43"/><rect x="1088" y="538" width="18" height="18" fill="#F7F7F4" opacity="0.26"/><rect x="1088" y="577" width="18" height="18" fill="#F7F7F4" opacity="0.26"/><rect x="1088" y="653" width="18" height="18" fill="#F7F7F4" opacity="0.53"/><rect x="1088" y="691" width="18" height="18" fill="#F7F7F4" opacity="0.24"/><rect x="1088" y="729" width="18" height="18" fill="#F7F7F4" opacity="0.15"/><rect x="1088" y="768" width="18" height="18" fill="#F7F7F4" opacity="0.54"/><rect x="1119" y="462" width="18" height="18" fill="#F7F7F4" opacity="0.51"/><rect x="1119" y="500" width="18" height="18" fill="#F7F7F4" opacity="0.18"/><rect x="1119" y="538" width="18" height="18" fill="#F7F7F4" opacity="0.41"/><rect x="1119" y="615" width="18" height="18" fill="#F7F7F4" opacity="0.51"/><rect x="1119" y="653" width="18" height="18" fill="#F7F7F4" opacity="0.50"/><rect x="1119" y="729" width="18" height="18" fill="#F7F7F4" opacity="0.33"/><rect x="1119" y="768" width="18" height="18" fill="#F7F7F4" opacity="0.13"/><rect x="1149" y="500" width="18" height="18" fill="#F7F7F4" opacity="0.40"/><rect x="1149" y="577" width="18" height="18" fill="#F7F7F4" opacity="0.35"/><rect x="1149" y="615" width="18" height="18" fill="#F7F7F4" opacity="0.14"/><rect x="1149" y="653" width="18" height="18" fill="#F7F7F4" opacity="0.19"/><rect x="1149" y="729" width="18" height="18" fill="#F7F7F4" opacity="0.53"/><rect x="1179" y="500" width="18" height="18" fill="#F7F7F4" opacity="0.14"/><rect x="1179" y="538" width="18" height="18" fill="#F7F7F4" opacity="0.50"/><rect x="1179" y="577" width="18" height="18" fill="#F7F7F4" opacity="0.29"/><rect y="736" width="1200" height="64" fill="#06111F" opacity=".5"/><filter id="g"><feTurbulence type="fractalNoise" baseFrequency="0.9" numOctaves="2"/><feColorMatrix type="saturate" values="0"/></filter><rect width="1200" height="800" filter="url(#g)" opacity=".045"/><radialGradient id="v" cx="50%" cy="45%" r="78%"><stop offset="55%" stop-color="#000" stop-opacity="0"/><stop offset="100%" stop-color="#000" stop-opacity=".42"/></radialGradient><rect width="1200" height="800" fill="url(#v)"/></svg>