<svg xmlns="http://www.w3.org/2000/svg" viewBox="0 0 1200 800" width="1200" height="800" role="img" aria-labelledby="t d" preserveAspectRatio="xMidYMid slice"><title id="t">Placeholder gallery image 4 for demo listing DEMO-1027</title><desc id="d">Generated placeholder graphic. Not a photograph. Replace with real photography before launch.</desc><rect width="1200" height="800" fill="#06111F"/><rect x="-1" y="514" width="114" height="286" fill="#1b3a63"/><rect x="5" y="535" width="17" height="19" fill="#F7F7F4" opacity="0.29"/><rect x="5" y="690" width="17" height="19" fill="#F7F7F4" opacity="0.50"/><rect x="5" y="728" width="17" height="19" fill="#F7F7F4" opacity="0.19"/><rect x="5" y="767" width="17" height="19" fill="#F7F7F4" opacity="0.26"/><rect x="34" y="612" width="17" height="19" fill="#F7F7F4" opacity="0.52"/><rect x="34" y="728" width="17" height="19" fill="#F7F7F4" opacity="0.49"/><rect x="34" y="767" width="17" height="19" fill="#F7F7F4" opacity="0.18"/><rect x="62" y="612" width="17" height="19" fill="#F7F7F4" opacity="0.13"/><rect x="62" y="651" width="17" height="19" fill="#F7F7F4" opacity="0.22"/><rect x="62" y="767" width="17" height="19" fill="#F7F7F4" opacity="0.18"/><rect x="91" y="535" width="17" height="19" fill="#F7F7F4" opacity="0.29"/><rect x="91" y="573" width="17" height="19" fill="#F7F7F4" opacity="0.21"/><rect x="91" y="612" width="17" height="19" fill="#F7F7F4" opacity="0.34"/><rect x="91" y="728" width="17" height="19" fill="#F7F7F4" opacity="0.38"/><rect x="91" y="767" width="17" height="19" fill="#F7F7F4" opacity="0.15"/><rect x="119" y="194" width="109" height="606" fill="#07182D"/><rect x="124" y="214" width="16" height="19" fill="#F7F7F4" opacity="0.50"/><rect x="124" y="293" width="16" height="19" fill="#F7F7F4" opacity="0.34"/><rect x="124" y="333" width="16" height="19" fill="#F7F7F4" opacity="0.14"/><rect x="124" y="372" width="16" height="19" fill="#F7F7F4" opacity="0.50"/><rect x="124" y="451" width="16" height="19" fill="#F7F7F4" opacity="0.25"/><rect x="124" y="530" width="16" height="19" fill="#F7F7F4" opacity="0.46"/><rect x="124" y="569" width="16" height="19" fill="#F7F7F4" opacity="0.29"/><rect x="124" y="609" width="16" height="19" fill="#F7F7F4" opacity="0.36"/><rect x="124" y="648" width="16" height="19" fill="#F7F7F4" opacity="0.34"/><rect x="124" y="688" width="16" height="19" fill="#F7F7F4" opacity="0.11"/><rect x="124" y="727" width="16" height="19" fill="#F7F7F4" opacity="0.37"/><rect x="152" y="254" width="16" height="19" fill="#F7F7F4" opacity="0.49"/><rect x="152" y="293" width="16" height="19" fill="#F7F7F4" opacity="0.39"/><rect x="152" y="333" width="16" height="19" fill="#F7F7F4" opacity="0.31"/><rect x="152" y="411" width="16" height="19" fill="#F7F7F4" opacity="0.41"/><rect x="152" y="451" width="16" height="19" fill="#F7F7F4" opacity="0.35"/><rect x="152" y="490" width="16" height="19" fill="#F7F7F4" opacity="0.49"/><rect x="152" y="530" width="16" height="19" fill="#F7F7F4" opacity="0.45"/><rect x="152" y="688" width="16" height="19" fill="#F7F7F4" opacity="0.38"/><rect x="152" y="727" width="16" height="19" fill="#F7F7F4" opacity="0.16"/><rect x="179" y="254" width="16" height="19" fill="#F7F7F4" opacity="0.55"/><rect x="179" y="372" width="16" height="19" fill="#F7F7F4" opacity="0.13"/><rect x="179" y="490" width="16" height="19" fill="#F7F7F4" opacity="0.19"/><rect x="179" y="727" width="16" height="19" fill="#F7F7F4" opacity="0.38"/><rect x="179" y="767" width="16" height="19" fill="#F7F7F4" opacity="0.45"/><rect x="206" y="214" width="16" height="19" fill="#F7F7F4" opacity="0.17"/><rect x="206" y="372" width="16" height="19" fill="#F7F7F4" opacity="0.18"/><rect x="206" y="411" width="16" height="19" fill="#F7F7F4" opacity="0.22"/><rect x="206" y="451" width="16" height="19" fill="#F7F7F4" opacity="0.17"/><rect x="206" y="530" width="16" height="19" fill="#F7F7F4" opacity="0.29"/><rect x="206" y="569" width="16" height="19" fill="#F7F7F4" opacity="0.33"/><rect x="206" y="609" width="16" height="19" fill="#F7F7F4" opacity="0.28"/><rect x="206" y="648" width="16" height="19" fill="#F7F7F4" opacity="0.39"/><rect x="206" y="688" width="16" height="19" fill="#F7F7F4" opacity="0.16"/><rect x="206" y="727" width="16" height="19" fill="#F7F7F4" opacity="0.39"/><rect x="206" y="767" width="16" height="19" fill="#F7F7F4" opacity="0.41"/><rect x="238" y="150" width="114" height="650" fill="#12294a"/><rect x="244" y="170" width="16" height="18" fill="#F7F7F4" opacity="0.45"/><rect x="244" y="207" width="16" height="18" fill="#F7F7F4" opacity="0.22"/><rect x="244" y="282" width="16" height="18" fill="#F7F7F4" opacity="0.32"/><rect x="244" y="319" width="16" height="18" fill="#F7F7F4" opacity="0.32"/><rect x="244" y="394" width="16" height="18" fill="#F7F7F4" opacity="0.53"/><rect x="244" y="581" width="16" height="18" fill="#F7F7F4" opacity="0.35"/><rect x="244" y="619" width="16" height="18" fill="#F7F7F4" opacity="0.49"/><rect x="244" y="693" width="16" height="18" fill="#F7F7F4" opacity="0.40"/><rect x="244" y="768" width="16" height="18" fill="#F7F7F4" opacity="0.50"/><rect x="273" y="244" width="16" height="18" fill="#F7F7F4" opacity="0.35"/><rect x="273" y="282" width="16" height="18" fill="#F7F7F4" opacity="0.38"/><rect x="273" y="469" width="16" height="18" fill="#F7F7F4" opacity="0.36"/><rect x="273" y="544" width="16" height="18" fill="#F7F7F4" opacity="0.17"/><rect x="273" y="581" width="16" height="18" fill="#F7F7F4" opacity="0.21"/><rect x="273" y="619" width="16" height="18" fill="#F7F7F4" opacity="0.30"/><rect x="273" y="656" width="16" height="18" fill="#F7F7F4" opacity="0.27"/><rect x="273" y="731" width="16" height="18" fill="#F7F7F4" opacity="0.40"/><rect x="273" y="768" width="16" height="18" fill="#F7F7F4" opacity="0.47"/><rect x="301" y="207" width="16" height="18" fill="#F7F7F4" opacity="0.52"/><rect x="301" y="244" width="16" height="18" fill="#F7F7F4" opacity="0.28"/><rect x="301" y="282" width="16" height="18" fill="#F7F7F4" opacity="0.32"/><rect x="301" y="319" width="16" height="18" fill="#F7F7F4" opacity="0.44"/><rect x="301" y="357" width="16" height="18" fill="#F7F7F4" opacity="0.44"/><rect x="301" y="394" width="16" height="18" fill="#F7F7F4" opacity="0.43"/><rect x="301" y="469" width="16" height="18" fill="#F7F7F4" opacity="0.14"/><rect x="301" y="656" width="16" height="18" fill="#F7F7F4" opacity="0.37"/><rect x="301" y="693" width="16" height="18" fill="#F7F7F4" opacity="0.26"/><rect x="301" y="768" width="16" height="18" fill="#F7F7F4" opacity="0.49"/><rect x="329" y="207" width="16" height="18" fill="#F7F7F4" opacity="0.38"/><rect x="329" y="244" width="16" height="18" fill="#F7F7F4" opacity="0.24"/><rect x="329" y="282" width="16" height="18" fill="#F7F7F4" opacity="0.53"/><rect x="329" y="319" width="16" height="18" fill="#F7F7F4" opacity="0.34"/><rect x="329" y="357" width="16" height="18" fill="#F7F7F4" opacity="0.30"/><rect x="329" y="432" width="16" height="18" fill="#F7F7F4" opacity="0.54"/><rect x="329" y="469" width="16" height="18" fill="#F7F7F4" opacity="0.42"/><rect x="329" y="544" width="16" height="18" fill="#F7F7F4" opacity="0.39"/><rect x="329" y="656" width="16" height="18" fill="#F7F7F4" opacity="0.37"/><rect x="329" y="693" width="16" height="18" fill="#F7F7F4" opacity="0.26"/><rect x="329" y="731" width="16" height="18" fill="#F7F7F4" opacity="0.26"/><rect x="329" y="768" width="16" height="18" fill="#F7F7F4" opacity="0.33"/><rect x="359" y="184" width="120" height="616" fill="#12294a"/><rect x="365" y="316" width="17" height="18" fill="#F7F7F4" opacity="0.52"/><rect x="365" y="467" width="17" height="18" fill="#F7F7F4" opacity="0.16"/><rect x="365" y="505" width="17" height="18" fill="#F7F7F4" opacity="0.47"/><rect x="365" y="618" width="17" height="18" fill="#F7F7F4" opacity="0.14"/><rect x="395" y="316" width="17" height="18" fill="#F7F7F4" opacity="0.26"/><rect x="395" y="354" width="17" height="18" fill="#F7F7F4" opacity="0.30"/><rect x="395" y="505" width="17" height="18" fill="#F7F7F4" opacity="0.21"/><rect x="395" y="542" width="17" height="18" fill="#F7F7F4" opacity="0.53"/><rect x="395" y="655" width="17" height="18" fill="#F7F7F4" opacity="0.17"/><rect x="395" y="693" width="17" height="18" fill="#F7F7F4" opacity="0.25"/><rect x="395" y="730" width="17" height="18" fill="#F7F7F4" opacity="0.55"/><rect x="395" y="768" width="17" height="18" fill="#F7F7F4" opacity="0.13"/><rect x="425" y="203" width="17" height="18" fill="#F7F7F4" opacity="0.33"/><rect x="425" y="241" width="17" height="18" fill="#F7F7F4" opacity="0.29"/><rect x="425" y="354" width="17" height="18" fill="#F7F7F4" opacity="0.11"/><rect x="425" y="467" width="17" height="18" fill="#F7F7F4" opacity="0.45"/><rect x="425" y="542" width="17" height="18" fill="#F7F7F4" opacity="0.21"/><rect x="425" y="580" width="17" height="18" fill="#F7F7F4" opacity="0.48"/><rect x="425" y="618" width="17" height="18" fill="#F7F7F4" opacity="0.27"/><rect x="425" y="693" width="17" height="18" fill="#F7F7F4" opacity="0.35"/><rect x="425" y="730" width="17" height="18" fill="#F7F7F4" opacity="0.33"/><rect x="425" y="768" width="17" height="18" fill="#F7F7F4" opacity="0.29"/><rect x="455" y="241" width="17" height="18" fill="#F7F7F4" opacity="0.21"/><rect x="455" y="279" width="17" height="18" fill="#F7F7F4" opacity="0.28"/><rect x="455" y="429" width="17" height="18" fill="#F7F7F4" opacity="0.53"/><rect x="455" y="542" width="17" height="18" fill="#F7F7F4" opacity="0.44"/><rect x="455" y="618" width="17" height="18" fill="#F7F7F4" opacity="0.51"/><rect x="455" y="655" width="17" height="18" fill="#F7F7F4" opacity="0.42"/><rect x="455" y="693" width="17" height="18" fill="#F7F7F4" opacity="0.21"/><rect x="455" y="730" width="17" height="18" fill="#F7F7F4" opacity="0.30"/><rect x="455" y="768" width="17" height="18" fill="#F7F7F4" opacity="0.31"/><rect x="478" y="373" width="118" height="427" fill="#1b3a63"/><rect x="484" y="392" width="17" height="18" fill="#F7F7F4" opacity="0.10"/><rect x="484" y="580" width="17" height="18" fill="#F7F7F4" opacity="0.28"/><rect x="484" y="618" width="17" height="18" fill="#F7F7F4" opacity="0.44"/><rect x="484" y="693" width="17" height="18" fill="#F7F7F4" opacity="0.11"/><rect x="514" y="392" width="17" height="18" fill="#F7F7F4" opacity="0.52"/><rect x="514" y="468" width="17" height="18" fill="#F7F7F4" opacity="0.53"/><rect x="514" y="505" width="17" height="18" fill="#F7F7F4" opacity="0.50"/><rect x="514" y="580" width="17" height="18" fill="#F7F7F4" opacity="0.16"/><rect x="514" y="618" width="17" height="18" fill="#F7F7F4" opacity="0.36"/><rect x="514" y="693" width="17" height="18" fill="#F7F7F4" opacity="0.26"/><rect x="514" y="731" width="17" height="18" fill="#F7F7F4" opacity="0.21"/><rect x="514" y="768" width="17" height="18" fill="#F7F7F4" opacity="0.23"/><rect x="543" y="430" width="17" height="18" fill="#F7F7F4" opacity="0.22"/><rect x="543" y="468" width="17" height="18" fill="#F7F7F4" opacity="0.31"/><rect x="543" y="505" width="17" height="18" fill="#F7F7F4" opacity="0.14"/><rect x="543" y="618" width="17" height="18" fill="#F7F7F4" opacity="0.19"/><rect x="543" y="655" width="17" height="18" fill="#F7F7F4" opacity="0.19"/><rect x="543" y="693" width="17" height="18" fill="#F7F7F4" opacity="0.12"/><rect x="543" y="731" width="17" height="18" fill="#F7F7F4" opacity="0.24"/><rect x="543" y="768" width="17" height="18" fill="#F7F7F4" opacity="0.37"/><rect x="573" y="392" width="17" height="18" fill="#F7F7F4" opacity="0.47"/><rect x="573" y="468" width="17" height="18" fill="#F7F7F4" opacity="0.44"/><rect x="573" y="505" width="17" height="18" fill="#F7F7F4" opacity="0.32"/><rect x="573" y="580" width="17" height="18" fill="#F7F7F4" opacity="0.20"/><rect x="573" y="693" width="17" height="18" fill="#F7F7F4" opacity="0.27"/><rect x="573" y="768" width="17" height="18" fill="#F7F7F4" opacity="0.13"/><rect x="600" y="270" width="98" height="530" fill="#1b3a63"/><rect x="607" y="290" width="19" height="19" fill="#F7F7F4" opacity="0.39"/><rect x="607" y="330" width="19" height="19" fill="#F7F7F4" opacity="0.24"/><rect x="607" y="449" width="19" height="19" fill="#F7F7F4" opacity="0.27"/><rect x="607" y="489" width="19" height="19" fill="#F7F7F4" opacity="0.14"/><rect x="607" y="647" width="19" height="19" fill="#F7F7F4" opacity="0.14"/><rect x="607" y="687" width="19" height="19" fill="#F7F7F4" opacity="0.29"/><rect x="607" y="767" width="19" height="19" fill="#F7F7F4" opacity="0.49"/><rect x="640" y="290" width="19" height="19" fill="#F7F7F4" opacity="0.18"/><rect x="640" y="330" width="19" height="19" fill="#F7F7F4" opacity="0.30"/><rect x="640" y="409" width="19" height="19" fill="#F7F7F4" opacity="0.44"/><rect x="640" y="449" width="19" height="19" fill="#F7F7F4" opacity="0.32"/><rect x="640" y="489" width="19" height="19" fill="#F7F7F4" opacity="0.52"/><rect x="640" y="568" width="19" height="19" fill="#F7F7F4" opacity="0.45"/><rect x="640" y="687" width="19" height="19" fill="#F7F7F4" opacity="0.12"/><rect x="640" y="767" width="19" height="19" fill="#F7F7F4" opacity="0.53"/><rect x="673" y="290" width="19" height="19" fill="#F7F7F4" opacity="0.39"/><rect x="673" y="330" width="19" height="19" fill="#F7F7F4" opacity="0.41"/><rect x="673" y="369" width="19" height="19" fill="#F7F7F4" opacity="0.12"/><rect x="673" y="409" width="19" height="19" fill="#F7F7F4" opacity="0.26"/><rect x="673" y="449" width="19" height="19" fill="#F7F7F4" opacity="0.49"/><rect x="673" y="489" width="19" height="19" fill="#F7F7F4" opacity="0.11"/><rect x="673" y="528" width="19" height="19" fill="#F7F7F4" opacity="0.34"/><rect x="673" y="608" width="19" height="19" fill="#F7F7F4" opacity="0.26"/><rect x="673" y="647" width="19" height="19" fill="#F7F7F4" opacity="0.14"/><rect x="673" y="727" width="19" height="19" fill="#F7F7F4" opacity="0.10"/><rect x="673" y="767" width="19" height="19" fill="#F7F7F4" opacity="0.54"/><rect x="719" y="172" width="109" height="628" fill="#1b3a63"/><rect x="724" y="230" width="16" height="18" fill="#F7F7F4" opacity="0.20"/><rect x="724" y="269" width="16" height="18" fill="#F7F7F4" opacity="0.15"/><rect x="724" y="307" width="16" height="18" fill="#F7F7F4" opacity="0.12"/><rect x="724" y="345" width="16" height="18" fill="#F7F7F4" opacity="0.14"/><rect x="724" y="499" width="16" height="18" fill="#F7F7F4" opacity="0.18"/><rect x="724" y="537" width="16" height="18" fill="#F7F7F4" opacity="0.35"/><rect x="724" y="576" width="16" height="18" fill="#F7F7F4" opacity="0.37"/><rect x="724" y="614" width="16" height="18" fill="#F7F7F4" opacity="0.21"/><rect x="724" y="652" width="16" height="18" fill="#F7F7F4" opacity="0.28"/><rect x="724" y="691" width="16" height="18" fill="#F7F7F4" opacity="0.46"/><rect x="752" y="192" width="16" height="18" fill="#F7F7F4" opacity="0.29"/><rect x="752" y="230" width="16" height="18" fill="#F7F7F4" opacity="0.42"/><rect x="752" y="384" width="16" height="18" fill="#F7F7F4" opacity="0.53"/><rect x="752" y="422" width="16" height="18" fill="#F7F7F4" opacity="0.22"/><rect x="752" y="499" width="16" height="18" fill="#F7F7F4" opacity="0.17"/><rect x="752" y="652" width="16" height="18" fill="#F7F7F4" opacity="0.26"/><rect x="752" y="691" width="16" height="18" fill="#F7F7F4" opacity="0.14"/><rect x="752" y="768" width="16" height="18" fill="#F7F7F4" opacity="0.30"/><rect x="779" y="230" width="16" height="18" fill="#F7F7F4" opacity="0.27"/><rect x="779" y="269" width="16" height="18" fill="#F7F7F4" opacity="0.39"/><rect x="779" y="307" width="16" height="18" fill="#F7F7F4" opacity="0.38"/><rect x="779" y="461" width="16" height="18" fill="#F7F7F4" opacity="0.42"/><rect x="779" y="499" width="16" height="18" fill="#F7F7F4" opacity="0.12"/><rect x="779" y="537" width="16" height="18" fill="#F7F7F4" opacity="0.27"/><rect x="779" y="576" width="16" height="18" fill="#F7F7F4" opacity="0.46"/><rect x="779" y="652" width="16" height="18" fill="#F7F7F4" opacity="0.53"/><rect x="779" y="691" width="16" height="18" fill="#F7F7F4" opacity="0.47"/><rect x="779" y="729" width="16" height="18" fill="#F7F7F4" opacity="0.31"/><rect x="806" y="192" width="16" height="18" fill="#F7F7F4" opacity="0.41"/><rect x="806" y="230" width="16" height="18" fill="#F7F7F4" opacity="0.14"/><rect x="806" y="307" width="16" height="18" fill="#F7F7F4" opacity="0.21"/><rect x="806" y="384" width="16" height="18" fill="#F7F7F4" opacity="0.46"/><rect x="806" y="461" width="16" height="18" fill="#F7F7F4" opacity="0.19"/><rect x="806" y="499" width="16" height="18" fill="#F7F7F4" opacity="0.12"/><rect x="806" y="537" width="16" height="18" fill="#F7F7F4" opacity="0.26"/><rect x="806" y="576" width="16" height="18" fill="#F7F7F4" opacity="0.15"/><rect x="806" y="691" width="16" height="18" fill="#F7F7F4" opacity="0.50"/><rect x="842" y="553" width="104" height="247" fill="#1b3a63"/><rect x="849" y="651" width="20" height="19" fill="#F7F7F4" opacity="0.39"/><rect x="849" y="690" width="20" height="19" fill="#F7F7F4" opacity="0.38"/><rect x="849" y="729" width="20" height="19" fill="#F7F7F4" opacity="0.15"/><rect x="849" y="767" width="20" height="19" fill="#F7F7F4" opacity="0.55"/><rect x="884" y="651" width="20" height="19" fill="#F7F7F4" opacity="0.43"/><rect x="884" y="690" width="20" height="19" fill="#F7F7F4" opacity="0.46"/><rect x="884" y="729" width="20" height="19" fill="#F7F7F4" opacity="0.28"/><rect x="884" y="767" width="20" height="19" fill="#F7F7F4" opacity="0.41"/><rect x="918" y="767" width="20" height="19" fill="#F7F7F4" opacity="0.14"/><rect x="959" y="415" width="96" height="385" fill="#1b3a63"/><rect x="966" y="435" width="19" height="18" fill="#F7F7F4" opacity="0.18"/><rect x="966" y="509" width="19" height="18" fill="#F7F7F4" opacity="0.53"/><rect x="966" y="620" width="19" height="18" fill="#F7F7F4" opacity="0.33"/><rect x="966" y="657" width="19" height="18" fill="#F7F7F4" opacity="0.45"/><rect x="966" y="694" width="19" height="18" fill="#F7F7F4" opacity="0.54"/><rect x="998" y="435" width="19" height="18" fill="#F7F7F4" opacity="0.48"/><rect x="998" y="583" width="19" height="18" fill="#F7F7F4" opacity="0.12"/><rect x="998" y="620" width="19" height="18" fill="#F7F7F4" opacity="0.52"/><rect x="998" y="657" width="19" height="18" fill="#F7F7F4" opacity="0.44"/><rect x="998" y="694" width="19" height="18" fill="#F7F7F4" opacity="0.12"/><rect x="998" y="731" width="19" height="18" fill="#F7F7F4" opacity="0.45"/><rect x="998" y="769" width="19" height="18" fill="#F7F7F4" opacity="0.21"/><rect x="1030" y="620" width="19" height="18" fill="#F7F7F4" opacity="0.26"/><rect x="1030" y="657" width="19" height="18" fill="#F7F7F4" opacity="0.37"/><rect x="1030" y="769" width="19" height="18" fill="#F7F7F4" opacity="0.51"/><rect x="1078" y="189" width="115" height="611" fill="#07182D"/><rect x="1084" y="208" width="17" height="18" fill="#F7F7F4" opacity="0.46"/><rect x="1084" y="246" width="17" height="18" fill="#F7F7F4" opacity="0.41"/><rect x="1084" y="320" width="17" height="18" fill="#F7F7F4" opacity="0.50"/><rect x="1084" y="358" width="17" height="18" fill="#F7F7F4" opacity="0.31"/><rect x="1084" y="395" width="17" height="18" fill="#F7F7F4" opacity="0.28"/><rect x="1084" y="544" width="17" height="18" fill="#F7F7F4" opacity="0.32"/><rect x="1084" y="656" width="17" height="18" fill="#F7F7F4" opacity="0.47"/><rect x="1084" y="694" width="17" height="18" fill="#F7F7F4" opacity="0.40"/><rect x="1113" y="246" width="17" height="18" fill="#F7F7F4" opacity="0.55"/><rect x="1113" y="283" width="17" height="18" fill="#F7F7F4" opacity="0.21"/><rect x="1113" y="358" width="17" height="18" fill="#F7F7F4" opacity="0.48"/><rect x="1113" y="395" width="17" height="18" fill="#F7F7F4" opacity="0.39"/><rect x="1113" y="470" width="17" height="18" fill="#F7F7F4" opacity="0.44"/><rect x="1113" y="544" width="17" height="18" fill="#F7F7F4" opacity="0.16"/><rect x="1113" y="656" width="17" height="18" fill="#F7F7F4" opacity="0.15"/><rect x="1113" y="731" width="17" height="18" fill="#F7F7F4" opacity="0.30"/><rect x="1113" y="768" width="17" height="18" fill="#F7F7F4" opacity="0.47"/><rect x="1142" y="208" width="17" height="18" fill="#F7F7F4" opacity="0.50"/><rect x="1142" y="246" width="17" height="18" fill="#F7F7F4" opacity="0.40"/><rect x="1142" y="283" width="17" height="18" fill="#F7F7F4" opacity="0.50"/><rect x="1142" y="320" width="17" height="18" fill="#F7F7F4" opacity="0.37"/><rect x="1142" y="395" width="17" height="18" fill="#F7F7F4" opacity="0.35"/><rect x="1142" y="507" width="17" height="18" fill="#F7F7F4" opacity="0.27"/><rect x="1142" y="619" width="17" height="18" fill="#F7F7F4" opacity="0.21"/><rect x="1142" y="656" width="17" height="18" fill="#F7F7F4" opacity="0.12"/><rect x="1142" y="731" width="17" height="18" fill="#F7F7F4" opacity="0.32"/><rect x="1170" y="208" width="17" height="18" fill="#F7F7F4" opacity="0.48"/><rect x="1170" y="320" width="17" height="18" fill="#F7F7F4" opacity="0.52"/><rect x="1170" y="358" width="17" height="18" fill="#F7F7F4" opacity="0.29"/><rect x="1170" y="395" width="17" height="18" fill="#F7F7F4" opacity="0.33"/><rect x="1170" y="470" width="17" height="18" fill="#F7F7F4" opacity="0.34"/><rect x="1170" y="544" width="17" height="18" fill="#F7F7F4" opacity="0.15"/><rect x="1170" y="619" width="17" height="18" fill="#F7F7F4" opacity="0.32"/><rect x="1170" y="656" width="17" height="18" fill="#F7F7F4" opacity="0.49"/><rect x="1170" y="694" width="17" height="18" fill="#F7F7F4" opacity="0.38"/><rect y="736" width="1200" height="64" fill="#06111F" opacity=".5"/><filter id="g"><feTurbulence type="fractalNoise" baseFrequency="0.9" numOctaves="2"/><feColorMatrix type="saturate" values="0"/></filter><rect width="1200" height="800" filter="url(#g)" opacity=".045"/><radialGradient id="v" cx="50%" cy="45%" r="78%"><stop offset="55%" stop-color="#000" stop-opacity="0"/><stop offset="100%" stop-color="#000" stop-opacity=".42"/></radialGradient><rect width="1200" height="800" fill="url(#v)"/></svg>