<svg xmlns="http://www.w3.org/2000/svg" viewBox="0 0 1200 800" width="1200" height="800" role="img" aria-labelledby="t d" preserveAspectRatio="xMidYMid slice"><title id="t">Placeholder image for demo listing DEMO-1025</title><desc id="d">Generated placeholder graphic. Not a photograph. Replace with real photography before launch.</desc><rect width="1200" height="800" fill="#07182D"/><rect y="477" width="1200" height="323" fill="#06111F"/><polygon points="-13,278 90,204 192,278" fill="#1b3a63"/><rect x="-2" y="278" width="183" height="199" fill="#1b3a63"/><rect x="18" y="318" width="53" height="13" fill="#F7F7F4" opacity="0.23"/><rect x="18" y="372" width="53" height="13" fill="#F7F7F4" opacity="0.29"/><rect x="109" y="291" width="53" height="13" fill="#F7F7F4" opacity="0.41"/><rect x="109" y="318" width="53" height="13" fill="#F7F7F4" opacity="0.22"/><rect x="109" y="372" width="53" height="13" fill="#F7F7F4" opacity="0.45"/><rect x="109" y="426" width="53" height="13" fill="#F7F7F4" opacity="0.22"/><polygon points="187,255 288,173 390,255" fill="#1b3a63"/><rect x="198" y="255" width="181" height="222" fill="#1b3a63"/><rect x="217" y="268" width="53" height="13" fill="#F7F7F4" opacity="0.16"/><rect x="217" y="295" width="53" height="13" fill="#F7F7F4" opacity="0.24"/><rect x="217" y="348" width="53" height="13" fill="#F7F7F4" opacity="0.38"/><rect x="217" y="374" width="53" height="13" fill="#F7F7F4" opacity="0.19"/><rect x="217" y="401" width="53" height="13" fill="#F7F7F4" opacity="0.36"/><rect x="217" y="454" width="53" height="13" fill="#F7F7F4" opacity="0.19"/><rect x="307" y="295" width="53" height="13" fill="#F7F7F4" opacity="0.15"/><rect x="307" y="321" width="53" height="13" fill="#F7F7F4" opacity="0.36"/><rect x="307" y="401" width="53" height="13" fill="#F7F7F4" opacity="0.15"/><rect x="307" y="427" width="53" height="13" fill="#F7F7F4" opacity="0.31"/><rect x="307" y="454" width="53" height="13" fill="#F7F7F4" opacity="0.43"/><polygon points="390,240 485,138 580,240" fill="#12294a"/><rect x="400" y="240" width="170" height="238" fill="#12294a"/><rect x="418" y="252" width="49" height="12" fill="#F7F7F4" opacity="0.37"/><rect x="418" y="278" width="49" height="12" fill="#F7F7F4" opacity="0.41"/><rect x="418" y="328" width="49" height="12" fill="#F7F7F4" opacity="0.47"/><rect x="418" y="379" width="49" height="12" fill="#F7F7F4" opacity="0.16"/><rect x="418" y="404" width="49" height="12" fill="#F7F7F4" opacity="0.19"/><rect x="418" y="429" width="49" height="12" fill="#F7F7F4" opacity="0.40"/><rect x="503" y="252" width="49" height="12" fill="#F7F7F4" opacity="0.46"/><rect x="503" y="303" width="49" height="12" fill="#F7F7F4" opacity="0.44"/><rect x="503" y="328" width="49" height="12" fill="#F7F7F4" opacity="0.50"/><rect x="503" y="353" width="49" height="12" fill="#F7F7F4" opacity="0.48"/><rect x="503" y="379" width="49" height="12" fill="#F7F7F4" opacity="0.22"/><rect x="503" y="404" width="49" height="12" fill="#F7F7F4" opacity="0.35"/><rect x="503" y="455" width="49" height="12" fill="#F7F7F4" opacity="0.15"/><polygon points="590,229 678,125 766,229" fill="#1b3a63"/><rect x="600" y="229" width="157" height="248" fill="#1b3a63"/><rect x="616" y="295" width="45" height="13" fill="#F7F7F4" opacity="0.18"/><rect x="616" y="321" width="45" height="13" fill="#F7F7F4" opacity="0.42"/><rect x="616" y="348" width="45" height="13" fill="#F7F7F4" opacity="0.43"/><rect x="616" y="374" width="45" height="13" fill="#F7F7F4" opacity="0.47"/><rect x="616" y="401" width="45" height="13" fill="#F7F7F4" opacity="0.25"/><rect x="616" y="427" width="45" height="13" fill="#F7F7F4" opacity="0.33"/><rect x="616" y="454" width="45" height="13" fill="#F7F7F4" opacity="0.30"/><rect x="695" y="268" width="45" height="13" fill="#F7F7F4" opacity="0.25"/><rect x="695" y="321" width="45" height="13" fill="#F7F7F4" opacity="0.29"/><rect x="695" y="348" width="45" height="13" fill="#F7F7F4" opacity="0.21"/><rect x="695" y="374" width="45" height="13" fill="#F7F7F4" opacity="0.31"/><rect x="695" y="401" width="45" height="13" fill="#F7F7F4" opacity="0.24"/><polygon points="787,312 880,242 973,312" fill="#1b3a63"/><rect x="797" y="312" width="166" height="165" fill="#1b3a63"/><rect x="815" y="351" width="48" height="12" fill="#F7F7F4" opacity="0.49"/><rect x="815" y="377" width="48" height="12" fill="#F7F7F4" opacity="0.39"/><rect x="815" y="402" width="48" height="12" fill="#F7F7F4" opacity="0.42"/><rect x="815" y="428" width="48" height="12" fill="#F7F7F4" opacity="0.23"/><rect x="815" y="454" width="48" height="12" fill="#F7F7F4" opacity="0.33"/><rect x="897" y="325" width="48" height="12" fill="#F7F7F4" opacity="0.28"/><rect x="897" y="351" width="48" height="12" fill="#F7F7F4" opacity="0.42"/><rect x="897" y="377" width="48" height="12" fill="#F7F7F4" opacity="0.46"/><rect x="897" y="402" width="48" height="12" fill="#F7F7F4" opacity="0.48"/><rect x="897" y="428" width="48" height="12" fill="#F7F7F4" opacity="0.36"/><rect x="897" y="454" width="48" height="12" fill="#F7F7F4" opacity="0.18"/><polygon points="989,310 1079,250 1169,310" fill="#12294a"/><rect x="999" y="310" width="160" height="168" fill="#12294a"/><rect x="1016" y="323" width="46" height="13" fill="#F7F7F4" opacity="0.41"/><rect x="1016" y="349" width="46" height="13" fill="#F7F7F4" opacity="0.32"/><rect x="1016" y="375" width="46" height="13" fill="#F7F7F4" opacity="0.17"/><rect x="1016" y="428" width="46" height="13" fill="#F7F7F4" opacity="0.28"/><rect x="1016" y="454" width="46" height="13" fill="#F7F7F4" opacity="0.17"/><rect x="1096" y="323" width="46" height="13" fill="#F7F7F4" opacity="0.33"/><rect x="1096" y="349" width="46" height="13" fill="#F7F7F4" opacity="0.29"/><rect x="1096" y="401" width="46" height="13" fill="#F7F7F4" opacity="0.45"/><rect x="1096" y="454" width="46" height="13" fill="#F7F7F4" opacity="0.36"/><line x1="0" y1="477" x2="1200" y2="477" stroke="#22456f" stroke-width="1" opacity=".55"/><filter id="g"><feTurbulence type="fractalNoise" baseFrequency="0.9" numOctaves="2"/><feColorMatrix type="saturate" values="0"/></filter><rect width="1200" height="800" filter="url(#g)" opacity=".045"/><radialGradient id="v" cx="50%" cy="45%" r="78%"><stop offset="55%" stop-color="#000" stop-opacity="0"/><stop offset="100%" stop-color="#000" stop-opacity=".42"/></radialGradient><rect width="1200" height="800" fill="url(#v)"/></svg>