<svg xmlns="http://www.w3.org/2000/svg" viewBox="0 0 1200 800" width="1200" height="800" role="img" aria-labelledby="t d" preserveAspectRatio="xMidYMid slice"><title id="t">Placeholder gallery image 4 for demo listing DEMO-1015</title><desc id="d">Generated placeholder graphic. Not a photograph. Replace with real photography before launch.</desc><rect width="1200" height="800" fill="#06111F"/><rect x="-2" y="138" width="102" height="662" fill="#12294a"/><rect x="5" y="158" width="20" height="18" fill="#F7F7F4" opacity="0.47"/><rect x="5" y="196" width="20" height="18" fill="#F7F7F4" opacity="0.52"/><rect x="5" y="272" width="20" height="18" fill="#F7F7F4" opacity="0.52"/><rect x="5" y="349" width="20" height="18" fill="#F7F7F4" opacity="0.44"/><rect x="5" y="387" width="20" height="18" fill="#F7F7F4" opacity="0.11"/><rect x="5" y="463" width="20" height="18" fill="#F7F7F4" opacity="0.22"/><rect x="5" y="577" width="20" height="18" fill="#F7F7F4" opacity="0.25"/><rect x="5" y="692" width="20" height="18" fill="#F7F7F4" opacity="0.50"/><rect x="5" y="768" width="20" height="18" fill="#F7F7F4" opacity="0.37"/><rect x="39" y="158" width="20" height="18" fill="#F7F7F4" opacity="0.25"/><rect x="39" y="196" width="20" height="18" fill="#F7F7F4" opacity="0.26"/><rect x="39" y="310" width="20" height="18" fill="#F7F7F4" opacity="0.33"/><rect x="39" y="501" width="20" height="18" fill="#F7F7F4" opacity="0.23"/><rect x="39" y="539" width="20" height="18" fill="#F7F7F4" opacity="0.41"/><rect x="39" y="653" width="20" height="18" fill="#F7F7F4" opacity="0.36"/><rect x="39" y="692" width="20" height="18" fill="#F7F7F4" opacity="0.15"/><rect x="73" y="234" width="20" height="18" fill="#F7F7F4" opacity="0.25"/><rect x="73" y="387" width="20" height="18" fill="#F7F7F4" opacity="0.45"/><rect x="73" y="425" width="20" height="18" fill="#F7F7F4" opacity="0.30"/><rect x="73" y="501" width="20" height="18" fill="#F7F7F4" opacity="0.32"/><rect x="73" y="539" width="20" height="18" fill="#F7F7F4" opacity="0.15"/><rect x="73" y="577" width="20" height="18" fill="#F7F7F4" opacity="0.38"/><rect x="73" y="615" width="20" height="18" fill="#F7F7F4" opacity="0.54"/><rect x="73" y="653" width="20" height="18" fill="#F7F7F4" opacity="0.25"/><rect x="73" y="692" width="20" height="18" fill="#F7F7F4" opacity="0.28"/><rect x="73" y="730" width="20" height="18" fill="#F7F7F4" opacity="0.40"/><rect x="119" y="184" width="99" height="616" fill="#07182D"/><rect x="126" y="316" width="19" height="18" fill="#F7F7F4" opacity="0.33"/><rect x="126" y="354" width="19" height="18" fill="#F7F7F4" opacity="0.34"/><rect x="126" y="429" width="19" height="18" fill="#F7F7F4" opacity="0.26"/><rect x="126" y="467" width="19" height="18" fill="#F7F7F4" opacity="0.36"/><rect x="126" y="505" width="19" height="18" fill="#F7F7F4" opacity="0.35"/><rect x="126" y="580" width="19" height="18" fill="#F7F7F4" opacity="0.43"/><rect x="126" y="693" width="19" height="18" fill="#F7F7F4" opacity="0.49"/><rect x="159" y="279" width="19" height="18" fill="#F7F7F4" opacity="0.48"/><rect x="159" y="354" width="19" height="18" fill="#F7F7F4" opacity="0.46"/><rect x="159" y="392" width="19" height="18" fill="#F7F7F4" opacity="0.40"/><rect x="159" y="467" width="19" height="18" fill="#F7F7F4" opacity="0.11"/><rect x="159" y="542" width="19" height="18" fill="#F7F7F4" opacity="0.17"/><rect x="159" y="580" width="19" height="18" fill="#F7F7F4" opacity="0.12"/><rect x="159" y="618" width="19" height="18" fill="#F7F7F4" opacity="0.29"/><rect x="159" y="655" width="19" height="18" fill="#F7F7F4" opacity="0.12"/><rect x="159" y="693" width="19" height="18" fill="#F7F7F4" opacity="0.43"/><rect x="159" y="730" width="19" height="18" fill="#F7F7F4" opacity="0.13"/><rect x="159" y="768" width="19" height="18" fill="#F7F7F4" opacity="0.14"/><rect x="192" y="203" width="19" height="18" fill="#F7F7F4" opacity="0.32"/><rect x="192" y="241" width="19" height="18" fill="#F7F7F4" opacity="0.22"/><rect x="192" y="354" width="19" height="18" fill="#F7F7F4" opacity="0.14"/><rect x="192" y="392" width="19" height="18" fill="#F7F7F4" opacity="0.14"/><rect x="192" y="505" width="19" height="18" fill="#F7F7F4" opacity="0.41"/><rect x="192" y="542" width="19" height="18" fill="#F7F7F4" opacity="0.51"/><rect x="192" y="580" width="19" height="18" fill="#F7F7F4" opacity="0.29"/><rect x="192" y="618" width="19" height="18" fill="#F7F7F4" opacity="0.40"/><rect x="192" y="693" width="19" height="18" fill="#F7F7F4" opacity="0.26"/><rect x="192" y="768" width="19" height="18" fill="#F7F7F4" opacity="0.16"/><rect x="240" y="152" width="100" height="648" fill="#07182D"/><rect x="247" y="171" width="19" height="18" fill="#F7F7F4" opacity="0.50"/><rect x="247" y="209" width="19" height="18" fill="#F7F7F4" opacity="0.46"/><rect x="247" y="283" width="19" height="18" fill="#F7F7F4" opacity="0.47"/><rect x="247" y="321" width="19" height="18" fill="#F7F7F4" opacity="0.44"/><rect x="247" y="358" width="19" height="18" fill="#F7F7F4" opacity="0.30"/><rect x="247" y="395" width="19" height="18" fill="#F7F7F4" opacity="0.14"/><rect x="247" y="470" width="19" height="18" fill="#F7F7F4" opacity="0.16"/><rect x="247" y="582" width="19" height="18" fill="#F7F7F4" opacity="0.14"/><rect x="247" y="619" width="19" height="18" fill="#F7F7F4" opacity="0.14"/><rect x="247" y="656" width="19" height="18" fill="#F7F7F4" opacity="0.16"/><rect x="247" y="768" width="19" height="18" fill="#F7F7F4" opacity="0.29"/><rect x="280" y="171" width="19" height="18" fill="#F7F7F4" opacity="0.45"/><rect x="280" y="209" width="19" height="18" fill="#F7F7F4" opacity="0.27"/><rect x="280" y="358" width="19" height="18" fill="#F7F7F4" opacity="0.40"/><rect x="280" y="395" width="19" height="18" fill="#F7F7F4" opacity="0.47"/><rect x="280" y="470" width="19" height="18" fill="#F7F7F4" opacity="0.50"/><rect x="280" y="507" width="19" height="18" fill="#F7F7F4" opacity="0.40"/><rect x="280" y="656" width="19" height="18" fill="#F7F7F4" opacity="0.51"/><rect x="280" y="731" width="19" height="18" fill="#F7F7F4" opacity="0.26"/><rect x="280" y="768" width="19" height="18" fill="#F7F7F4" opacity="0.23"/><rect x="314" y="246" width="19" height="18" fill="#F7F7F4" opacity="0.41"/><rect x="314" y="321" width="19" height="18" fill="#F7F7F4" opacity="0.13"/><rect x="314" y="395" width="19" height="18" fill="#F7F7F4" opacity="0.18"/><rect x="314" y="433" width="19" height="18" fill="#F7F7F4" opacity="0.38"/><rect x="314" y="470" width="19" height="18" fill="#F7F7F4" opacity="0.16"/><rect x="314" y="544" width="19" height="18" fill="#F7F7F4" opacity="0.26"/><rect x="314" y="582" width="19" height="18" fill="#F7F7F4" opacity="0.31"/><rect x="314" y="619" width="19" height="18" fill="#F7F7F4" opacity="0.21"/><rect x="314" y="731" width="19" height="18" fill="#F7F7F4" opacity="0.26"/><rect x="314" y="768" width="19" height="18" fill="#F7F7F4" opacity="0.18"/><rect x="359" y="523" width="106" height="277" fill="#1b3a63"/><rect x="365" y="543" width="15" height="18" fill="#F7F7F4" opacity="0.50"/><rect x="365" y="580" width="15" height="18" fill="#F7F7F4" opacity="0.35"/><rect x="365" y="655" width="15" height="18" fill="#F7F7F4" opacity="0.48"/><rect x="365" y="731" width="15" height="18" fill="#F7F7F4" opacity="0.15"/><rect x="391" y="543" width="15" height="18" fill="#F7F7F4" opacity="0.28"/><rect x="391" y="580" width="15" height="18" fill="#F7F7F4" opacity="0.23"/><rect x="391" y="693" width="15" height="18" fill="#F7F7F4" opacity="0.15"/><rect x="418" y="543" width="15" height="18" fill="#F7F7F4" opacity="0.11"/><rect x="418" y="580" width="15" height="18" fill="#F7F7F4" opacity="0.21"/><rect x="418" y="655" width="15" height="18" fill="#F7F7F4" opacity="0.19"/><rect x="418" y="693" width="15" height="18" fill="#F7F7F4" opacity="0.46"/><rect x="418" y="768" width="15" height="18" fill="#F7F7F4" opacity="0.40"/><rect x="444" y="543" width="15" height="18" fill="#F7F7F4" opacity="0.33"/><rect x="444" y="580" width="15" height="18" fill="#F7F7F4" opacity="0.34"/><rect x="444" y="655" width="15" height="18" fill="#F7F7F4" opacity="0.40"/><rect x="444" y="693" width="15" height="18" fill="#F7F7F4" opacity="0.21"/><rect x="444" y="768" width="15" height="18" fill="#F7F7F4" opacity="0.53"/><rect x="480" y="194" width="116" height="606" fill="#07182D"/><rect x="486" y="333" width="17" height="19" fill="#F7F7F4" opacity="0.30"/><rect x="486" y="372" width="17" height="19" fill="#F7F7F4" opacity="0.44"/><rect x="486" y="530" width="17" height="19" fill="#F7F7F4" opacity="0.32"/><rect x="486" y="609" width="17" height="19" fill="#F7F7F4" opacity="0.35"/><rect x="486" y="767" width="17" height="19" fill="#F7F7F4" opacity="0.48"/><rect x="515" y="254" width="17" height="19" fill="#F7F7F4" opacity="0.53"/><rect x="515" y="293" width="17" height="19" fill="#F7F7F4" opacity="0.13"/><rect x="515" y="333" width="17" height="19" fill="#F7F7F4" opacity="0.50"/><rect x="515" y="411" width="17" height="19" fill="#F7F7F4" opacity="0.10"/><rect x="515" y="451" width="17" height="19" fill="#F7F7F4" opacity="0.20"/><rect x="515" y="530" width="17" height="19" fill="#F7F7F4" opacity="0.50"/><rect x="515" y="609" width="17" height="19" fill="#F7F7F4" opacity="0.32"/><rect x="515" y="688" width="17" height="19" fill="#F7F7F4" opacity="0.17"/><rect x="515" y="727" width="17" height="19" fill="#F7F7F4" opacity="0.33"/><rect x="544" y="254" width="17" height="19" fill="#F7F7F4" opacity="0.47"/><rect x="544" y="293" width="17" height="19" fill="#F7F7F4" opacity="0.15"/><rect x="544" y="333" width="17" height="19" fill="#F7F7F4" opacity="0.19"/><rect x="544" y="372" width="17" height="19" fill="#F7F7F4" opacity="0.22"/><rect x="544" y="411" width="17" height="19" fill="#F7F7F4" opacity="0.15"/><rect x="544" y="490" width="17" height="19" fill="#F7F7F4" opacity="0.46"/><rect x="544" y="530" width="17" height="19" fill="#F7F7F4" opacity="0.39"/><rect x="544" y="569" width="17" height="19" fill="#F7F7F4" opacity="0.31"/><rect x="544" y="688" width="17" height="19" fill="#F7F7F4" opacity="0.24"/><rect x="544" y="727" width="17" height="19" fill="#F7F7F4" opacity="0.46"/><rect x="573" y="293" width="17" height="19" fill="#F7F7F4" opacity="0.32"/><rect x="573" y="333" width="17" height="19" fill="#F7F7F4" opacity="0.21"/><rect x="573" y="451" width="17" height="19" fill="#F7F7F4" opacity="0.46"/><rect x="573" y="490" width="17" height="19" fill="#F7F7F4" opacity="0.54"/><rect x="573" y="569" width="17" height="19" fill="#F7F7F4" opacity="0.17"/><rect x="573" y="609" width="17" height="19" fill="#F7F7F4" opacity="0.34"/><rect x="573" y="648" width="17" height="19" fill="#F7F7F4" opacity="0.53"/><rect x="573" y="727" width="17" height="19" fill="#F7F7F4" opacity="0.44"/><rect x="573" y="767" width="17" height="19" fill="#F7F7F4" opacity="0.55"/><rect x="600" y="327" width="114" height="473" fill="#07182D"/><rect x="606" y="500" width="16" height="18" fill="#F7F7F4" opacity="0.46"/><rect x="606" y="577" width="16" height="18" fill="#F7F7F4" opacity="0.26"/><rect x="606" y="615" width="16" height="18" fill="#F7F7F4" opacity="0.11"/><rect x="606" y="653" width="16" height="18" fill="#F7F7F4" opacity="0.16"/><rect x="606" y="691" width="16" height="18" fill="#F7F7F4" opacity="0.38"/><rect x="606" y="729" width="16" height="18" fill="#F7F7F4" opacity="0.40"/><rect x="634" y="385" width="16" height="18" fill="#F7F7F4" opacity="0.35"/><rect x="634" y="424" width="16" height="18" fill="#F7F7F4" opacity="0.52"/><rect x="634" y="462" width="16" height="18" fill="#F7F7F4" opacity="0.19"/><rect x="634" y="538" width="16" height="18" fill="#F7F7F4" opacity="0.43"/><rect x="634" y="615" width="16" height="18" fill="#F7F7F4" opacity="0.48"/><rect x="634" y="653" width="16" height="18" fill="#F7F7F4" opacity="0.51"/><rect x="634" y="691" width="16" height="18" fill="#F7F7F4" opacity="0.27"/><rect x="634" y="768" width="16" height="18" fill="#F7F7F4" opacity="0.41"/><rect x="662" y="424" width="16" height="18" fill="#F7F7F4" opacity="0.26"/><rect x="662" y="462" width="16" height="18" fill="#F7F7F4" opacity="0.54"/><rect x="662" y="500" width="16" height="18" fill="#F7F7F4" opacity="0.37"/><rect x="662" y="691" width="16" height="18" fill="#F7F7F4" opacity="0.52"/><rect x="662" y="729" width="16" height="18" fill="#F7F7F4" opacity="0.15"/><rect x="662" y="768" width="16" height="18" fill="#F7F7F4" opacity="0.10"/><rect x="691" y="347" width="16" height="18" fill="#F7F7F4" opacity="0.11"/><rect x="691" y="577" width="16" height="18" fill="#F7F7F4" opacity="0.16"/><rect x="691" y="615" width="16" height="18" fill="#F7F7F4" opacity="0.34"/><rect x="691" y="653" width="16" height="18" fill="#F7F7F4" opacity="0.50"/><rect x="691" y="691" width="16" height="18" fill="#F7F7F4" opacity="0.54"/><rect x="719" y="280" width="116" height="520" fill="#1b3a63"/><rect x="725" y="300" width="17" height="19" fill="#F7F7F4" opacity="0.39"/><rect x="725" y="339" width="17" height="19" fill="#F7F7F4" opacity="0.48"/><rect x="725" y="378" width="17" height="19" fill="#F7F7F4" opacity="0.46"/><rect x="725" y="417" width="17" height="19" fill="#F7F7F4" opacity="0.37"/><rect x="725" y="456" width="17" height="19" fill="#F7F7F4" opacity="0.17"/><rect x="725" y="534" width="17" height="19" fill="#F7F7F4" opacity="0.53"/><rect x="725" y="650" width="17" height="19" fill="#F7F7F4" opacity="0.23"/><rect x="754" y="300" width="17" height="19" fill="#F7F7F4" opacity="0.51"/><rect x="754" y="339" width="17" height="19" fill="#F7F7F4" opacity="0.53"/><rect x="754" y="417" width="17" height="19" fill="#F7F7F4" opacity="0.51"/><rect x="754" y="456" width="17" height="19" fill="#F7F7F4" opacity="0.24"/><rect x="754" y="573" width="17" height="19" fill="#F7F7F4" opacity="0.42"/><rect x="754" y="689" width="17" height="19" fill="#F7F7F4" opacity="0.14"/><rect x="754" y="767" width="17" height="19" fill="#F7F7F4" opacity="0.21"/><rect x="783" y="378" width="17" height="19" fill="#F7F7F4" opacity="0.32"/><rect x="783" y="417" width="17" height="19" fill="#F7F7F4" opacity="0.26"/><rect x="783" y="495" width="17" height="19" fill="#F7F7F4" opacity="0.41"/><rect x="783" y="534" width="17" height="19" fill="#F7F7F4" opacity="0.43"/><rect x="783" y="573" width="17" height="19" fill="#F7F7F4" opacity="0.29"/><rect x="783" y="611" width="17" height="19" fill="#F7F7F4" opacity="0.28"/><rect x="812" y="300" width="17" height="19" fill="#F7F7F4" opacity="0.50"/><rect x="812" y="417" width="17" height="19" fill="#F7F7F4" opacity="0.33"/><rect x="812" y="456" width="17" height="19" fill="#F7F7F4" opacity="0.35"/><rect x="812" y="611" width="17" height="19" fill="#F7F7F4" opacity="0.13"/><rect x="812" y="650" width="17" height="19" fill="#F7F7F4" opacity="0.54"/><rect x="812" y="689" width="17" height="19" fill="#F7F7F4" opacity="0.18"/><rect x="841" y="406" width="107" height="394" fill="#07182D"/><rect x="847" y="426" width="16" height="18" fill="#F7F7F4" opacity="0.18"/><rect x="847" y="464" width="16" height="18" fill="#F7F7F4" opacity="0.36"/><rect x="847" y="502" width="16" height="18" fill="#F7F7F4" opacity="0.34"/><rect x="847" y="540" width="16" height="18" fill="#F7F7F4" opacity="0.48"/><rect x="847" y="578" width="16" height="18" fill="#F7F7F4" opacity="0.35"/><rect x="847" y="616" width="16" height="18" fill="#F7F7F4" opacity="0.29"/><rect x="847" y="730" width="16" height="18" fill="#F7F7F4" opacity="0.36"/><rect x="847" y="768" width="16" height="18" fill="#F7F7F4" opacity="0.13"/><rect x="874" y="426" width="16" height="18" fill="#F7F7F4" opacity="0.38"/><rect x="874" y="502" width="16" height="18" fill="#F7F7F4" opacity="0.35"/><rect x="874" y="540" width="16" height="18" fill="#F7F7F4" opacity="0.46"/><rect x="874" y="578" width="16" height="18" fill="#F7F7F4" opacity="0.43"/><rect x="874" y="654" width="16" height="18" fill="#F7F7F4" opacity="0.46"/><rect x="874" y="768" width="16" height="18" fill="#F7F7F4" opacity="0.33"/><rect x="900" y="426" width="16" height="18" fill="#F7F7F4" opacity="0.17"/><rect x="900" y="464" width="16" height="18" fill="#F7F7F4" opacity="0.20"/><rect x="900" y="502" width="16" height="18" fill="#F7F7F4" opacity="0.43"/><rect x="900" y="540" width="16" height="18" fill="#F7F7F4" opacity="0.33"/><rect x="900" y="578" width="16" height="18" fill="#F7F7F4" opacity="0.33"/><rect x="900" y="654" width="16" height="18" fill="#F7F7F4" opacity="0.33"/><rect x="900" y="692" width="16" height="18" fill="#F7F7F4" opacity="0.27"/><rect x="900" y="768" width="16" height="18" fill="#F7F7F4" opacity="0.37"/><rect x="927" y="426" width="16" height="18" fill="#F7F7F4" opacity="0.33"/><rect x="927" y="540" width="16" height="18" fill="#F7F7F4" opacity="0.45"/><rect x="927" y="616" width="16" height="18" fill="#F7F7F4" opacity="0.10"/><rect x="927" y="692" width="16" height="18" fill="#F7F7F4" opacity="0.11"/><rect x="927" y="768" width="16" height="18" fill="#F7F7F4" opacity="0.10"/><rect x="960" y="425" width="119" height="375" fill="#07182D"/><rect x="967" y="486" width="17" height="19" fill="#F7F7F4" opacity="0.24"/><rect x="967" y="526" width="17" height="19" fill="#F7F7F4" opacity="0.15"/><rect x="967" y="606" width="17" height="19" fill="#F7F7F4" opacity="0.10"/><rect x="967" y="646" width="17" height="19" fill="#F7F7F4" opacity="0.11"/><rect x="967" y="726" width="17" height="19" fill="#F7F7F4" opacity="0.15"/><rect x="996" y="486" width="17" height="19" fill="#F7F7F4" opacity="0.36"/><rect x="996" y="566" width="17" height="19" fill="#F7F7F4" opacity="0.41"/><rect x="996" y="646" width="17" height="19" fill="#F7F7F4" opacity="0.33"/><rect x="996" y="726" width="17" height="19" fill="#F7F7F4" opacity="0.44"/><rect x="996" y="766" width="17" height="19" fill="#F7F7F4" opacity="0.32"/><rect x="1026" y="445" width="17" height="19" fill="#F7F7F4" opacity="0.40"/><rect x="1026" y="646" width="17" height="19" fill="#F7F7F4" opacity="0.52"/><rect x="1026" y="686" width="17" height="19" fill="#F7F7F4" opacity="0.26"/><rect x="1056" y="445" width="17" height="19" fill="#F7F7F4" opacity="0.22"/><rect x="1056" y="726" width="17" height="19" fill="#F7F7F4" opacity="0.41"/><rect x="1056" y="766" width="17" height="19" fill="#F7F7F4" opacity="0.21"/><rect x="1079" y="320" width="122" height="480" fill="#1b3a63"/><rect x="1086" y="379" width="18" height="19" fill="#F7F7F4" opacity="0.45"/><rect x="1086" y="573" width="18" height="19" fill="#F7F7F4" opacity="0.54"/><rect x="1086" y="612" width="18" height="19" fill="#F7F7F4" opacity="0.14"/><rect x="1086" y="690" width="18" height="19" fill="#F7F7F4" opacity="0.25"/><rect x="1086" y="767" width="18" height="19" fill="#F7F7F4" opacity="0.25"/><rect x="1116" y="340" width="18" height="19" fill="#F7F7F4" opacity="0.49"/><rect x="1116" y="379" width="18" height="19" fill="#F7F7F4" opacity="0.35"/><rect x="1116" y="418" width="18" height="19" fill="#F7F7F4" opacity="0.50"/><rect x="1116" y="612" width="18" height="19" fill="#F7F7F4" opacity="0.32"/><rect x="1116" y="651" width="18" height="19" fill="#F7F7F4" opacity="0.15"/><rect x="1116" y="690" width="18" height="19" fill="#F7F7F4" opacity="0.49"/><rect x="1116" y="728" width="18" height="19" fill="#F7F7F4" opacity="0.46"/><rect x="1116" y="767" width="18" height="19" fill="#F7F7F4" opacity="0.42"/><rect x="1147" y="379" width="18" height="19" fill="#F7F7F4" opacity="0.20"/><rect x="1147" y="418" width="18" height="19" fill="#F7F7F4" opacity="0.43"/><rect x="1147" y="534" width="18" height="19" fill="#F7F7F4" opacity="0.54"/><rect x="1147" y="651" width="18" height="19" fill="#F7F7F4" opacity="0.35"/><rect x="1147" y="690" width="18" height="19" fill="#F7F7F4" opacity="0.34"/><rect x="1147" y="728" width="18" height="19" fill="#F7F7F4" opacity="0.42"/><rect x="1147" y="767" width="18" height="19" fill="#F7F7F4" opacity="0.23"/><rect x="1177" y="340" width="18" height="19" fill="#F7F7F4" opacity="0.19"/><rect x="1177" y="379" width="18" height="19" fill="#F7F7F4" opacity="0.54"/><rect x="1177" y="418" width="18" height="19" fill="#F7F7F4" opacity="0.19"/><rect x="1177" y="457" width="18" height="19" fill="#F7F7F4" opacity="0.52"/><rect x="1177" y="496" width="18" height="19" fill="#F7F7F4" opacity="0.41"/><rect x="1177" y="612" width="18" height="19" fill="#F7F7F4" opacity="0.30"/><rect x="1177" y="767" width="18" height="19" fill="#F7F7F4" opacity="0.27"/><rect y="736" width="1200" height="64" fill="#06111F" opacity=".5"/><filter id="g"><feTurbulence type="fractalNoise" baseFrequency="0.9" numOctaves="2"/><feColorMatrix type="saturate" values="0"/></filter><rect width="1200" height="800" filter="url(#g)" opacity=".045"/><radialGradient id="v" cx="50%" cy="45%" r="78%"><stop offset="55%" stop-color="#000" stop-opacity="0"/><stop offset="100%" stop-color="#000" stop-opacity=".42"/></radialGradient><rect width="1200" height="800" fill="url(#v)"/></svg>