<svg xmlns="http://www.w3.org/2000/svg" viewBox="0 0 1200 800" width="1200" height="800" role="img" aria-labelledby="t d" preserveAspectRatio="xMidYMid slice"><title id="t">Placeholder gallery image 3 for demo listing DEMO-1027</title><desc id="d">Generated placeholder graphic. Not a photograph. Replace with real photography before launch.</desc><rect width="1200" height="800" fill="#07182D"/><rect y="514" width="1200" height="286" fill="#06111F"/><polygon points="-16,228 109,111 235,228" fill="#1b3a63"/><rect x="-3" y="228" width="224" height="286" fill="#1b3a63"/><rect x="21" y="241" width="65" height="12" fill="#F7F7F4" opacity="0.35"/><rect x="21" y="266" width="65" height="12" fill="#F7F7F4" opacity="0.20"/><rect x="21" y="316" width="65" height="12" fill="#F7F7F4" opacity="0.30"/><rect x="21" y="341" width="65" height="12" fill="#F7F7F4" opacity="0.25"/><rect x="21" y="417" width="65" height="12" fill="#F7F7F4" opacity="0.50"/><rect x="21" y="492" width="65" height="12" fill="#F7F7F4" opacity="0.28"/><rect x="133" y="241" width="65" height="12" fill="#F7F7F4" opacity="0.21"/><rect x="133" y="266" width="65" height="12" fill="#F7F7F4" opacity="0.24"/><rect x="133" y="291" width="65" height="12" fill="#F7F7F4" opacity="0.23"/><rect x="133" y="316" width="65" height="12" fill="#F7F7F4" opacity="0.23"/><rect x="133" y="341" width="65" height="12" fill="#F7F7F4" opacity="0.46"/><rect x="133" y="366" width="65" height="12" fill="#F7F7F4" opacity="0.20"/><rect x="133" y="417" width="65" height="12" fill="#F7F7F4" opacity="0.46"/><rect x="133" y="467" width="65" height="12" fill="#F7F7F4" opacity="0.17"/><rect x="133" y="492" width="65" height="12" fill="#F7F7F4" opacity="0.45"/><polygon points="224,256 350,137 476,256" fill="#16335a"/><rect x="238" y="256" width="225" height="258" fill="#16335a"/><rect x="262" y="269" width="65" height="13" fill="#F7F7F4" opacity="0.29"/><rect x="262" y="324" width="65" height="13" fill="#F7F7F4" opacity="0.40"/><rect x="262" y="352" width="65" height="13" fill="#F7F7F4" opacity="0.16"/><rect x="262" y="379" width="65" height="13" fill="#F7F7F4" opacity="0.33"/><rect x="262" y="407" width="65" height="13" fill="#F7F7F4" opacity="0.46"/><rect x="262" y="435" width="65" height="13" fill="#F7F7F4" opacity="0.38"/><rect x="262" y="462" width="65" height="13" fill="#F7F7F4" opacity="0.28"/><rect x="262" y="490" width="65" height="13" fill="#F7F7F4" opacity="0.26"/><rect x="374" y="297" width="65" height="13" fill="#F7F7F4" opacity="0.50"/><rect x="374" y="352" width="65" height="13" fill="#F7F7F4" opacity="0.33"/><rect x="374" y="379" width="65" height="13" fill="#F7F7F4" opacity="0.46"/><rect x="374" y="407" width="65" height="13" fill="#F7F7F4" opacity="0.28"/><rect x="374" y="435" width="65" height="13" fill="#F7F7F4" opacity="0.38"/><rect x="374" y="462" width="65" height="13" fill="#F7F7F4" opacity="0.25"/><polygon points="468,245 586,140 704,245" fill="#16335a"/><rect x="480" y="245" width="210" height="270" fill="#16335a"/><rect x="502" y="258" width="61" height="12" fill="#F7F7F4" opacity="0.47"/><rect x="502" y="284" width="61" height="12" fill="#F7F7F4" opacity="0.44"/><rect x="502" y="310" width="61" height="12" fill="#F7F7F4" opacity="0.48"/><rect x="502" y="335" width="61" height="12" fill="#F7F7F4" opacity="0.45"/><rect x="502" y="361" width="61" height="12" fill="#F7F7F4" opacity="0.45"/><rect x="502" y="439" width="61" height="12" fill="#F7F7F4" opacity="0.37"/><rect x="502" y="491" width="61" height="12" fill="#F7F7F4" opacity="0.28"/><rect x="608" y="258" width="61" height="12" fill="#F7F7F4" opacity="0.16"/><rect x="608" y="284" width="61" height="12" fill="#F7F7F4" opacity="0.18"/><rect x="608" y="310" width="61" height="12" fill="#F7F7F4" opacity="0.22"/><rect x="608" y="335" width="61" height="12" fill="#F7F7F4" opacity="0.19"/><rect x="608" y="361" width="61" height="12" fill="#F7F7F4" opacity="0.43"/><rect x="608" y="413" width="61" height="12" fill="#F7F7F4" opacity="0.37"/><rect x="608" y="439" width="61" height="12" fill="#F7F7F4" opacity="0.38"/><polygon points="706,245 823,143 941,245" fill="#16335a"/><rect x="718" y="245" width="210" height="269" fill="#16335a"/><rect x="740" y="258" width="61" height="12" fill="#F7F7F4" opacity="0.48"/><rect x="740" y="284" width="61" height="12" fill="#F7F7F4" opacity="0.46"/><rect x="740" y="310" width="61" height="12" fill="#F7F7F4" opacity="0.32"/><rect x="740" y="336" width="61" height="12" fill="#F7F7F4" opacity="0.25"/><rect x="740" y="362" width="61" height="12" fill="#F7F7F4" opacity="0.20"/><rect x="740" y="414" width="61" height="12" fill="#F7F7F4" opacity="0.20"/><rect x="740" y="439" width="61" height="12" fill="#F7F7F4" opacity="0.47"/><rect x="845" y="284" width="61" height="12" fill="#F7F7F4" opacity="0.46"/><rect x="845" y="336" width="61" height="12" fill="#F7F7F4" opacity="0.40"/><rect x="845" y="388" width="61" height="12" fill="#F7F7F4" opacity="0.20"/><rect x="845" y="465" width="61" height="12" fill="#F7F7F4" opacity="0.37"/><polygon points="948,337 1066,262 1183,337" fill="#1b3a63"/><rect x="961" y="337" width="210" height="177" fill="#1b3a63"/><rect x="983" y="351" width="61" height="13" fill="#F7F7F4" opacity="0.35"/><rect x="983" y="378" width="61" height="13" fill="#F7F7F4" opacity="0.30"/><rect x="983" y="434" width="61" height="13" fill="#F7F7F4" opacity="0.32"/><rect x="1088" y="406" width="61" height="13" fill="#F7F7F4" opacity="0.28"/><rect x="1088" y="462" width="61" height="13" fill="#F7F7F4" opacity="0.47"/><line x1="0" y1="514" x2="1200" y2="514" stroke="#22456f" stroke-width="1" opacity=".55"/><filter id="g"><feTurbulence type="fractalNoise" baseFrequency="0.9" numOctaves="2"/><feColorMatrix type="saturate" values="0"/></filter><rect width="1200" height="800" filter="url(#g)" opacity=".045"/><radialGradient id="v" cx="50%" cy="45%" r="78%"><stop offset="55%" stop-color="#000" stop-opacity="0"/><stop offset="100%" stop-color="#000" stop-opacity=".42"/></radialGradient><rect width="1200" height="800" fill="url(#v)"/></svg>