<svg xmlns="http://www.w3.org/2000/svg" viewBox="0 0 1200 800" width="1200" height="800" role="img" aria-labelledby="t d" preserveAspectRatio="xMidYMid slice"><title id="t">Placeholder gallery image 3 for demo listing DEMO-1007</title><desc id="d">Generated placeholder graphic. Not a photograph. Replace with real photography before launch.</desc><rect width="1200" height="800" fill="#07182D"/><rect y="502" width="1200" height="298" fill="#06111F"/><polygon points="-14,311 109,240 232,311" fill="#16335a"/><rect x="-1" y="311" width="220" height="191" fill="#16335a"/><rect x="22" y="323" width="64" height="12" fill="#F7F7F4" opacity="0.43"/><rect x="22" y="375" width="64" height="12" fill="#F7F7F4" opacity="0.32"/><rect x="22" y="427" width="64" height="12" fill="#F7F7F4" opacity="0.35"/><rect x="22" y="453" width="64" height="12" fill="#F7F7F4" opacity="0.29"/><rect x="132" y="375" width="64" height="12" fill="#F7F7F4" opacity="0.35"/><rect x="132" y="401" width="64" height="12" fill="#F7F7F4" opacity="0.30"/><rect x="132" y="427" width="64" height="12" fill="#F7F7F4" opacity="0.35"/><rect x="132" y="453" width="64" height="12" fill="#F7F7F4" opacity="0.20"/><rect x="132" y="478" width="64" height="12" fill="#F7F7F4" opacity="0.33"/><polygon points="227,242 338,134 449,242" fill="#12294a"/><rect x="239" y="242" width="198" height="260" fill="#12294a"/><rect x="260" y="283" width="57" height="13" fill="#F7F7F4" opacity="0.41"/><rect x="260" y="311" width="57" height="13" fill="#F7F7F4" opacity="0.17"/><rect x="260" y="338" width="57" height="13" fill="#F7F7F4" opacity="0.30"/><rect x="260" y="394" width="57" height="13" fill="#F7F7F4" opacity="0.15"/><rect x="260" y="422" width="57" height="13" fill="#F7F7F4" opacity="0.16"/><rect x="260" y="449" width="57" height="13" fill="#F7F7F4" opacity="0.42"/><rect x="260" y="477" width="57" height="13" fill="#F7F7F4" opacity="0.28"/><rect x="359" y="255" width="57" height="13" fill="#F7F7F4" opacity="0.44"/><rect x="359" y="311" width="57" height="13" fill="#F7F7F4" opacity="0.36"/><rect x="359" y="338" width="57" height="13" fill="#F7F7F4" opacity="0.39"/><rect x="359" y="366" width="57" height="13" fill="#F7F7F4" opacity="0.43"/><rect x="359" y="394" width="57" height="13" fill="#F7F7F4" opacity="0.41"/><rect x="359" y="422" width="57" height="13" fill="#F7F7F4" opacity="0.50"/><rect x="359" y="449" width="57" height="13" fill="#F7F7F4" opacity="0.34"/><rect x="359" y="477" width="57" height="13" fill="#F7F7F4" opacity="0.50"/><polygon points="472,232 577,109 683,232" fill="#16335a"/><rect x="483" y="232" width="189" height="270" fill="#16335a"/><rect x="503" y="271" width="55" height="12" fill="#F7F7F4" opacity="0.33"/><rect x="503" y="323" width="55" height="12" fill="#F7F7F4" opacity="0.23"/><rect x="503" y="349" width="55" height="12" fill="#F7F7F4" opacity="0.18"/><rect x="503" y="478" width="55" height="12" fill="#F7F7F4" opacity="0.43"/><rect x="597" y="245" width="55" height="12" fill="#F7F7F4" opacity="0.20"/><rect x="597" y="271" width="55" height="12" fill="#F7F7F4" opacity="0.34"/><rect x="597" y="323" width="55" height="12" fill="#F7F7F4" opacity="0.22"/><rect x="597" y="452" width="55" height="12" fill="#F7F7F4" opacity="0.30"/><rect x="597" y="478" width="55" height="12" fill="#F7F7F4" opacity="0.44"/><polygon points="704,270 832,167 960,270" fill="#16335a"/><rect x="717" y="270" width="229" height="232" fill="#16335a"/><rect x="741" y="339" width="66" height="13" fill="#F7F7F4" opacity="0.17"/><rect x="741" y="366" width="66" height="13" fill="#F7F7F4" opacity="0.38"/><rect x="741" y="394" width="66" height="13" fill="#F7F7F4" opacity="0.30"/><rect x="741" y="422" width="66" height="13" fill="#F7F7F4" opacity="0.20"/><rect x="741" y="449" width="66" height="13" fill="#F7F7F4" opacity="0.31"/><rect x="741" y="477" width="66" height="13" fill="#F7F7F4" opacity="0.44"/><rect x="856" y="311" width="66" height="13" fill="#F7F7F4" opacity="0.31"/><rect x="856" y="339" width="66" height="13" fill="#F7F7F4" opacity="0.33"/><rect x="856" y="366" width="66" height="13" fill="#F7F7F4" opacity="0.47"/><rect x="856" y="394" width="66" height="13" fill="#F7F7F4" opacity="0.46"/><rect x="856" y="449" width="66" height="13" fill="#F7F7F4" opacity="0.22"/><rect x="856" y="477" width="66" height="13" fill="#F7F7F4" opacity="0.22"/><polygon points="948,233 1073,145 1198,233" fill="#16335a"/><rect x="961" y="233" width="223" height="269" fill="#16335a"/><rect x="985" y="245" width="65" height="12" fill="#F7F7F4" opacity="0.20"/><rect x="985" y="323" width="65" height="12" fill="#F7F7F4" opacity="0.32"/><rect x="985" y="349" width="65" height="12" fill="#F7F7F4" opacity="0.48"/><rect x="985" y="375" width="65" height="12" fill="#F7F7F4" opacity="0.21"/><rect x="985" y="401" width="65" height="12" fill="#F7F7F4" opacity="0.40"/><rect x="985" y="427" width="65" height="12" fill="#F7F7F4" opacity="0.15"/><rect x="985" y="453" width="65" height="12" fill="#F7F7F4" opacity="0.46"/><rect x="985" y="478" width="65" height="12" fill="#F7F7F4" opacity="0.17"/><rect x="1096" y="245" width="65" height="12" fill="#F7F7F4" opacity="0.46"/><rect x="1096" y="323" width="65" height="12" fill="#F7F7F4" opacity="0.30"/><rect x="1096" y="375" width="65" height="12" fill="#F7F7F4" opacity="0.21"/><rect x="1096" y="453" width="65" height="12" fill="#F7F7F4" opacity="0.28"/><line x1="0" y1="502" x2="1200" y2="502" stroke="#22456f" stroke-width="1" opacity=".55"/><filter id="g"><feTurbulence type="fractalNoise" baseFrequency="0.9" numOctaves="2"/><feColorMatrix type="saturate" values="0"/></filter><rect width="1200" height="800" filter="url(#g)" opacity=".045"/><radialGradient id="v" cx="50%" cy="45%" r="78%"><stop offset="55%" stop-color="#000" stop-opacity="0"/><stop offset="100%" stop-color="#000" stop-opacity=".42"/></radialGradient><rect width="1200" height="800" fill="url(#v)"/></svg>