<svg xmlns="http://www.w3.org/2000/svg" viewBox="0 0 1200 800" width="1200" height="800" role="img" aria-labelledby="t d" preserveAspectRatio="xMidYMid slice"><title id="t">Placeholder gallery image 3 for demo listing DEMO-1019</title><desc id="d">Generated placeholder graphic. Not a photograph. Replace with real photography before launch.</desc><rect width="1200" height="800" fill="#07182D"/><rect y="543" width="1200" height="257" fill="#06111F"/><polygon points="-10,276 83,195 176,276" fill="#12294a"/><rect x="-0" y="276" width="167" height="268" fill="#12294a"/><rect x="17" y="391" width="48" height="12" fill="#F7F7F4" opacity="0.45"/><rect x="17" y="443" width="48" height="12" fill="#F7F7F4" opacity="0.17"/><rect x="17" y="520" width="48" height="12" fill="#F7F7F4" opacity="0.39"/><rect x="100" y="288" width="48" height="12" fill="#F7F7F4" opacity="0.34"/><rect x="100" y="417" width="48" height="12" fill="#F7F7F4" opacity="0.23"/><rect x="100" y="494" width="48" height="12" fill="#F7F7F4" opacity="0.29"/><rect x="100" y="520" width="48" height="12" fill="#F7F7F4" opacity="0.16"/><polygon points="192,365 282,289 372,365" fill="#12294a"/><rect x="201" y="365" width="161" height="178" fill="#12294a"/><rect x="218" y="406" width="47" height="13" fill="#F7F7F4" opacity="0.37"/><rect x="218" y="518" width="47" height="13" fill="#F7F7F4" opacity="0.35"/><rect x="299" y="378" width="47" height="13" fill="#F7F7F4" opacity="0.32"/><rect x="299" y="406" width="47" height="13" fill="#F7F7F4" opacity="0.20"/><rect x="299" y="434" width="47" height="13" fill="#F7F7F4" opacity="0.48"/><rect x="299" y="490" width="47" height="13" fill="#F7F7F4" opacity="0.45"/><rect x="299" y="518" width="47" height="13" fill="#F7F7F4" opacity="0.39"/><polygon points="387,331 490,246 593,331" fill="#16335a"/><rect x="398" y="331" width="185" height="212" fill="#16335a"/><rect x="417" y="344" width="54" height="12" fill="#F7F7F4" opacity="0.26"/><rect x="417" y="470" width="54" height="12" fill="#F7F7F4" opacity="0.19"/><rect x="417" y="521" width="54" height="12" fill="#F7F7F4" opacity="0.49"/><rect x="509" y="344" width="54" height="12" fill="#F7F7F4" opacity="0.19"/><rect x="509" y="369" width="54" height="12" fill="#F7F7F4" opacity="0.21"/><rect x="509" y="445" width="54" height="12" fill="#F7F7F4" opacity="0.38"/><rect x="509" y="521" width="54" height="12" fill="#F7F7F4" opacity="0.29"/><polygon points="587,330 685,241 782,330" fill="#12294a"/><rect x="598" y="330" width="174" height="213" fill="#12294a"/><rect x="616" y="419" width="50" height="12" fill="#F7F7F4" opacity="0.22"/><rect x="616" y="470" width="50" height="12" fill="#F7F7F4" opacity="0.47"/><rect x="616" y="520" width="50" height="12" fill="#F7F7F4" opacity="0.26"/><rect x="703" y="343" width="50" height="12" fill="#F7F7F4" opacity="0.41"/><rect x="703" y="368" width="50" height="12" fill="#F7F7F4" opacity="0.42"/><rect x="703" y="470" width="50" height="12" fill="#F7F7F4" opacity="0.27"/><rect x="703" y="495" width="50" height="12" fill="#F7F7F4" opacity="0.27"/><rect x="703" y="520" width="50" height="12" fill="#F7F7F4" opacity="0.45"/><polygon points="789,275 887,164 986,275" fill="#16335a"/><rect x="799" y="275" width="176" height="268" fill="#16335a"/><rect x="818" y="288" width="51" height="12" fill="#F7F7F4" opacity="0.21"/><rect x="818" y="340" width="51" height="12" fill="#F7F7F4" opacity="0.42"/><rect x="818" y="365" width="51" height="12" fill="#F7F7F4" opacity="0.43"/><rect x="818" y="417" width="51" height="12" fill="#F7F7F4" opacity="0.27"/><rect x="818" y="443" width="51" height="12" fill="#F7F7F4" opacity="0.49"/><rect x="818" y="469" width="51" height="12" fill="#F7F7F4" opacity="0.33"/><rect x="818" y="494" width="51" height="12" fill="#F7F7F4" opacity="0.26"/><rect x="906" y="288" width="51" height="12" fill="#F7F7F4" opacity="0.16"/><rect x="906" y="314" width="51" height="12" fill="#F7F7F4" opacity="0.38"/><rect x="906" y="365" width="51" height="12" fill="#F7F7F4" opacity="0.36"/><rect x="906" y="443" width="51" height="12" fill="#F7F7F4" opacity="0.44"/><rect x="906" y="469" width="51" height="12" fill="#F7F7F4" opacity="0.14"/><rect x="906" y="520" width="51" height="12" fill="#F7F7F4" opacity="0.49"/><polygon points="991,367 1095,295 1198,367" fill="#1b3a63"/><rect x="1002" y="367" width="185" height="176" fill="#1b3a63"/><rect x="1022" y="380" width="54" height="13" fill="#F7F7F4" opacity="0.40"/><rect x="1022" y="436" width="54" height="13" fill="#F7F7F4" opacity="0.33"/><rect x="1022" y="491" width="54" height="13" fill="#F7F7F4" opacity="0.34"/><rect x="1114" y="380" width="54" height="13" fill="#F7F7F4" opacity="0.49"/><rect x="1114" y="408" width="54" height="13" fill="#F7F7F4" opacity="0.26"/><rect x="1114" y="436" width="54" height="13" fill="#F7F7F4" opacity="0.44"/><rect x="1114" y="463" width="54" height="13" fill="#F7F7F4" opacity="0.17"/><rect x="1114" y="491" width="54" height="13" fill="#F7F7F4" opacity="0.39"/><rect x="1114" y="519" width="54" height="13" fill="#F7F7F4" opacity="0.39"/><line x1="0" y1="543" x2="1200" y2="543" stroke="#22456f" stroke-width="1" opacity=".55"/><filter id="g"><feTurbulence type="fractalNoise" baseFrequency="0.9" numOctaves="2"/><feColorMatrix type="saturate" values="0"/></filter><rect width="1200" height="800" filter="url(#g)" opacity=".045"/><radialGradient id="v" cx="50%" cy="45%" r="78%"><stop offset="55%" stop-color="#000" stop-opacity="0"/><stop offset="100%" stop-color="#000" stop-opacity=".42"/></radialGradient><rect width="1200" height="800" fill="url(#v)"/></svg>